Ezerovo-Bold.ufo
<glyph name="exclam" format="2">
  <advance width="271"/>
  <unicode hex="0021"/>
  <outline>
    <contour>
      <point x="60" y="556" type="line" smooth="yes"/>
      <point x="50" y="630"/>
      <point x="55" y="665"/>
      <point x="136" y="665" type="curve" smooth="yes"/>
      <point x="218" y="665"/>
      <point x="224" y="630"/>
      <point x="214" y="556" type="curve" smooth="yes"/>
      <point x="166" y="206" type="line"/>
      <point x="106" y="206" type="line"/>
    </contour>
    <contour>
      <point x="48" y="76" type="line"/>
      <point x="48" y="128"/>
      <point x="84" y="164"/>
      <point x="136" y="164" type="curve" smooth="yes"/>
      <point x="188" y="164"/>
      <point x="223" y="128"/>
      <point x="223" y="76" type="curve" smooth="yes"/>
      <point x="223" y="24"/>
      <point x="188" y="-11"/>
      <point x="136" y="-11" type="curve" smooth="yes"/>
      <point x="84" y="-11"/>
      <point x="48" y="24"/>
      <point x="48" y="76" type="curve"/>
    </contour>
  </outline>
</glyph>
<glyph name="quotedbl" format="2">
  <advance width="454"/>
  <unicode hex="0022"/>
  <outline>
    <contour>
      <point x="255" y="591" type="line" smooth="yes"/>
      <point x="246" y="640"/>
      <point x="258" y="665"/>
      <point x="317" y="665" type="curve" smooth="yes"/>
      <point x="376" y="665"/>
      <point x="389" y="641"/>
      <point x="380" y="591" type="curve" smooth="yes"/>
      <point x="339" y="383" type="line"/>
      <point x="296" y="383" type="line"/>
    </contour>
    <contour>
      <point x="76" y="591" type="line" smooth="yes"/>
      <point x="67" y="640"/>
      <point x="78" y="665"/>
      <point x="137" y="665" type="curve" smooth="yes"/>
      <point x="196" y="665"/>
      <point x="209" y="641"/>
      <point x="200" y="591" type="curve" smooth="yes"/>
      <point x="159" y="383" type="line"/>
      <point x="115" y="383" type="line"/>
    </contour>
  </outline>
</glyph>
<glyph name="numbersign" format="2">
  <advance width="536"/>
  <unicode hex="0023"/>
  <outline>
    <contour>
      <point x="18" y="206" type="line"/>
      <point x="18" y="274" type="line"/>
      <point x="129" y="274" type="line"/>
      <point x="159" y="374" type="line"/>
      <point x="68" y="374" type="line"/>
      <point x="68" y="441" type="line"/>
      <point x="180" y="441" type="line"/>
      <point x="234" y="628" type="line"/>
      <point x="306" y="628" type="line"/>
      <point x="250" y="441" type="line"/>
      <point x="357" y="441" type="line"/>
      <point x="413" y="628" type="line"/>
      <point x="483" y="628" type="line"/>
      <point x="428" y="441" type="line"/>
      <point x="519" y="441" type="line"/>
      <point x="519" y="374" type="line"/>
      <point x="406" y="374" type="line"/>
      <point x="377" y="274" type="line"/>
      <point x="469" y="274" type="line"/>
      <point x="469" y="206" type="line"/>
      <point x="357" y="206" type="line"/>
      <point x="296" y="0" type="line"/>
      <point x="224" y="0" type="line"/>
      <point x="286" y="206" type="line"/>
      <point x="181" y="206" type="line"/>
      <point x="119" y="0" type="line"/>
      <point x="47" y="0" type="line"/>
      <point x="109" y="206" type="line"/>
    </contour>
    <contour>
      <point x="201" y="274" type="line"/>
      <point x="306" y="274" type="line"/>
      <point x="336" y="374" type="line"/>
      <point x="231" y="374" type="line"/>
    </contour>
  </outline>
</glyph>
<glyph name="dollar" format="2">
  <advance width="536"/>
  <unicode hex="0024"/>
  <outline>
    <contour>
      <point x="41" y="115" type="curve" smooth="yes"/>
      <point x="41" y="155"/>
      <point x="85" y="182"/>
      <point x="109" y="182" type="curve" smooth="yes"/>
      <point x="132" y="182"/>
      <point x="141" y="173"/>
      <point x="150" y="152" type="curve" smooth="yes"/>
      <point x="184" y="76"/>
      <point x="219" y="47"/>
      <point x="238" y="43" type="curve"/>
      <point x="238" y="264" type="line"/>
      <point x="141" y="294"/>
      <point x="43" y="332"/>
      <point x="43" y="449" type="curve" smooth="yes"/>
      <point x="43" y="567"/>
      <point x="129" y="624"/>
      <point x="238" y="628" type="curve"/>
      <point x="238" y="703" type="line"/>
      <point x="291" y="703" type="line"/>
      <point x="291" y="628" type="line"/>
      <point x="415" y="628"/>
      <point x="471" y="565"/>
      <point x="471" y="526" type="curve" smooth="yes"/>
      <point x="471" y="481"/>
      <point x="420" y="467"/>
      <point x="402" y="467" type="curve" smooth="yes"/>
      <point x="381" y="467"/>
      <point x="372" y="476"/>
      <point x="366" y="493" type="curve" smooth="yes"/>
      <point x="341" y="560"/>
      <point x="315" y="580"/>
      <point x="291" y="585" type="curve"/>
      <point x="291" y="391" type="line"/>
      <point x="402" y="354"/>
      <point x="497" y="317"/>
      <point x="498" y="185" type="curve" smooth="yes"/>
      <point x="497" y="50"/>
      <point x="377" y="0"/>
      <point x="291" y="0" type="curve"/>
      <point x="291" y="-98" type="line"/>
      <point x="238" y="-98" type="line"/>
      <point x="238" y="0" type="line"/>
      <point x="79" y="6"/>
      <point x="41" y="83"/>
    </contour>
    <contour>
      <point x="156" y="498" type="curve" smooth="yes"/>
      <point x="156" y="453"/>
      <point x="192" y="424"/>
      <point x="238" y="412" type="curve"/>
      <point x="238" y="585" type="line"/>
      <point x="190" y="582"/>
      <point x="156" y="545"/>
    </contour>
    <contour>
      <point x="291" y="43" type="line"/>
      <point x="341" y="43"/>
      <point x="377" y="76"/>
      <point x="377" y="131" type="curve" smooth="yes"/>
      <point x="377" y="188"/>
      <point x="342" y="226"/>
      <point x="291" y="246" type="curve"/>
    </contour>
  </outline>
</glyph>
<glyph name="percent" format="2">
  <advance width="843"/>
  <unicode hex="0025"/>
  <outline>
    <contour>
      <point x="44" y="464" type="line"/>
      <point x="44" y="580"/>
      <point x="100" y="639"/>
      <point x="209" y="639" type="curve" smooth="yes"/>
      <point x="263" y="639"/>
      <point x="290" y="626"/>
      <point x="322" y="607" type="curve" smooth="yes"/>
      <point x="332" y="601"/>
      <point x="345" y="595"/>
      <point x="364" y="595" type="curve" smooth="yes"/>
      <point x="499" y="595" type="line" smooth="yes"/>
      <point x="554" y="595"/>
      <point x="564" y="604"/>
      <point x="582" y="630" type="curve" smooth="yes"/>
      <point x="602" y="659" type="line"/>
      <point x="647" y="628" type="line"/>
      <point x="243" y="-29" type="line"/>
      <point x="198" y="6" type="line"/>
      <point x="535" y="555" type="line"/>
      <point x="361" y="555" type="line"/>
      <point x="368" y="533"/>
      <point x="373" y="505"/>
      <point x="373" y="464" type="curve" smooth="yes"/>
      <point x="373" y="348"/>
      <point x="311" y="290"/>
      <point x="202" y="290" type="curve" smooth="yes"/>
      <point x="99" y="290"/>
      <point x="44" y="348"/>
      <point x="44" y="464" type="curve"/>
    </contour>
    <contour>
      <point x="150" y="464" type="line"/>
      <point x="150" y="366"/>
      <point x="172" y="327"/>
      <point x="209" y="327" type="curve" smooth="yes"/>
      <point x="247" y="327"/>
      <point x="266" y="366"/>
      <point x="266" y="464" type="curve" smooth="yes"/>
      <point x="266" y="569"/>
      <point x="245" y="602"/>
      <point x="209" y="602" type="curve" smooth="yes"/>
      <point x="174" y="602"/>
      <point x="150" y="569"/>
      <point x="150" y="464" type="curve"/>
    </contour>
    <contour>
      <point x="470" y="164" type="line"/>
      <point x="470" y="280"/>
      <point x="527" y="338"/>
      <point x="637" y="338" type="curve" smooth="yes"/>
      <point x="746" y="338"/>
      <point x="801" y="280"/>
      <point x="801" y="164" type="curve" smooth="yes"/>
      <point x="801" y="48"/>
      <point x="746" y="-11"/>
      <point x="637" y="-11" type="curve" smooth="yes"/>
      <point x="527" y="-11"/>
      <point x="470" y="48"/>
      <point x="470" y="164" type="curve"/>
    </contour>
    <contour>
      <point x="578" y="164" type="line"/>
      <point x="578" y="66"/>
      <point x="598" y="26"/>
      <point x="637" y="26" type="curve" smooth="yes"/>
      <point x="674" y="26"/>
      <point x="695" y="66"/>
      <point x="695" y="164" type="curve" smooth="yes"/>
      <point x="695" y="269"/>
      <point x="671" y="301"/>
      <point x="637" y="301" type="curve" smooth="yes"/>
      <point x="601" y="301"/>
      <point x="578" y="269"/>
      <point x="578" y="164" type="curve"/>
    </contour>
  </outline>
</glyph>
<glyph name="ampersand" format="2">
  <advance width="712"/>
  <unicode hex="0026"/>
  <outline>
    <contour>
      <point x="47" y="174" type="curve" smooth="yes"/>
      <point x="47" y="263"/>
      <point x="126" y="313"/>
      <point x="180" y="337" type="curve"/>
      <point x="151" y="376"/>
      <point x="127" y="424"/>
      <point x="127" y="470" type="curve" smooth="yes"/>
      <point x="127" y="569"/>
      <point x="195" y="639"/>
      <point x="304" y="639" type="curve" smooth="yes"/>
      <point x="397" y="639"/>
      <point x="467" y="585"/>
      <point x="467" y="499" type="curve" smooth="yes"/>
      <point x="467" y="419"/>
      <point x="405" y="380"/>
      <point x="343" y="351" type="curve"/>
      <point x="384" y="303"/>
      <point x="445" y="239"/>
      <point x="510" y="176" type="curve"/>
      <point x="532" y="210"/>
      <point x="543" y="258"/>
      <point x="543" y="303" type="curve" smooth="yes"/>
      <point x="543" y="330"/>
      <point x="539" y="356"/>
      <point x="531" y="376" type="curve"/>
      <point x="558" y="404"/>
      <point x="608" y="419"/>
      <point x="636" y="416" type="curve"/>
      <point x="659" y="394"/>
      <point x="665" y="364"/>
      <point x="665" y="334" type="curve" smooth="yes"/>
      <point x="665" y="268"/>
      <point x="596" y="182"/>
      <point x="550" y="141" type="curve"/>
      <point x="601" y="91"/>
      <point x="662" y="38"/>
      <point x="696" y="23" type="curve"/>
      <point x="691" y="-8" type="line"/>
      <point x="648" y="-6" type="line" smooth="yes"/>
      <point x="571" y="-2"/>
      <point x="520" y="14"/>
      <point x="465" y="54" type="curve"/>
      <point x="408" y="13"/>
      <point x="345" y="-11"/>
      <point x="264" y="-11" type="curve" smooth="yes"/>
      <point x="148" y="-11"/>
      <point x="47" y="52"/>
    </contour>
    <contour>
      <point x="185" y="205" type="curve" smooth="yes"/>
      <point x="185" y="119"/>
      <point x="251" y="59"/>
      <point x="331" y="59" type="curve" smooth="yes"/>
      <point x="368" y="59"/>
      <point x="405" y="69"/>
      <point x="422" y="86" type="curve"/>
      <point x="335" y="156"/>
      <point x="256" y="241"/>
      <point x="215" y="291" type="curve"/>
      <point x="201" y="279"/>
      <point x="185" y="246"/>
    </contour>
    <contour>
      <point x="303" y="389" type="curve"/>
      <point x="332" y="412"/>
      <point x="356" y="453"/>
      <point x="356" y="509" type="curve" smooth="yes"/>
      <point x="356" y="564"/>
      <point x="328" y="596"/>
      <point x="299" y="596" type="curve" smooth="yes"/>
      <point x="268" y="596"/>
      <point x="244" y="564"/>
      <point x="244" y="516" type="curve" smooth="yes"/>
      <point x="244" y="468"/>
      <point x="266" y="427"/>
    </contour>
  </outline>
</glyph>
<glyph name="quotesingle" format="2">
  <advance width="245"/>
  <unicode hex="0027"/>
  <outline>
    <contour>
      <point x="62" y="591" type="line" smooth="yes"/>
      <point x="53" y="640"/>
      <point x="64" y="665"/>
      <point x="123" y="665" type="curve" smooth="yes"/>
      <point x="182" y="665"/>
      <point x="195" y="641"/>
      <point x="186" y="591" type="curve" smooth="yes"/>
      <point x="146" y="383" type="line"/>
      <point x="102" y="383" type="line"/>
    </contour>
  </outline>
</glyph>
<glyph name="parenleft" format="2">
  <advance width="392"/>
  <unicode hex="0028"/>
  <outline>
    <contour>
      <point x="73" y="278" type="curve" smooth="yes"/>
      <point x="73" y="459"/>
      <point x="111" y="743"/>
      <point x="348" y="754" type="curve"/>
      <point x="354" y="716" type="line"/>
      <point x="222" y="676"/>
      <point x="190" y="419"/>
      <point x="190" y="278" type="curve" smooth="yes"/>
      <point x="190" y="137"/>
      <point x="222" y="-119"/>
      <point x="354" y="-159" type="curve"/>
      <point x="348" y="-198" type="line"/>
      <point x="111" y="-190"/>
      <point x="73" y="97"/>
    </contour>
  </outline>
</glyph>
<glyph name="parenright" format="2">
  <advance width="390"/>
  <unicode hex="0029"/>
  <outline>
    <contour>
      <point x="43" y="-198" type="curve"/>
      <point x="38" y="-159" type="line"/>
      <point x="170" y="-121"/>
      <point x="202" y="137"/>
      <point x="202" y="278" type="curve" smooth="yes"/>
      <point x="202" y="419"/>
      <point x="170" y="678"/>
      <point x="38" y="716" type="curve"/>
      <point x="43" y="754" type="line"/>
      <point x="280" y="746"/>
      <point x="317" y="459"/>
      <point x="317" y="278" type="curve" smooth="yes"/>
      <point x="317" y="97"/>
      <point x="280" y="-190"/>
    </contour>
  </outline>
</glyph>
<glyph name="asterisk" format="2">
  <advance width="425"/>
  <unicode hex="002A"/>
  <outline>
    <contour>
      <point x="53" y="384" type="line"/>
      <point x="36" y="410"/>
      <point x="42" y="436"/>
      <point x="70" y="445" type="curve" smooth="yes"/>
      <point x="163" y="473" type="line"/>
      <point x="174" y="476"/>
      <point x="175" y="489"/>
      <point x="162" y="494" type="curve"/>
      <point x="70" y="526" type="line" smooth="yes"/>
      <point x="42" y="535"/>
      <point x="33" y="555"/>
      <point x="54" y="585" type="curve"/>
      <point x="69" y="608"/>
      <point x="90" y="612"/>
      <point x="109" y="595" type="curve" smooth="yes"/>
      <point x="174" y="534" type="line"/>
      <point x="187" y="523"/>
      <point x="196" y="531"/>
      <point x="191" y="547" type="curve"/>
      <point x="171" y="626" type="line" smooth="yes"/>
      <point x="164" y="652"/>
      <point x="184" y="665"/>
      <point x="214" y="665" type="curve" smooth="yes"/>
      <point x="244" y="665"/>
      <point x="261" y="652"/>
      <point x="254" y="626" type="curve" smooth="yes"/>
      <point x="234" y="547" type="line" smooth="yes"/>
      <point x="230" y="531"/>
      <point x="239" y="523"/>
      <point x="251" y="534" type="curve" smooth="yes"/>
      <point x="317" y="595" type="line"/>
      <point x="337" y="612"/>
      <point x="357" y="608"/>
      <point x="372" y="585" type="curve"/>
      <point x="393" y="555"/>
      <point x="385" y="535"/>
      <point x="356" y="526" type="curve"/>
      <point x="265" y="494" type="line" smooth="yes"/>
      <point x="251" y="489"/>
      <point x="254" y="476"/>
      <point x="264" y="473" type="curve" smooth="yes"/>
      <point x="356" y="445" type="line" smooth="yes"/>
      <point x="385" y="436"/>
      <point x="390" y="410"/>
      <point x="373" y="384" type="curve" smooth="yes"/>
      <point x="353" y="354"/>
      <point x="334" y="350"/>
      <point x="311" y="374" type="curve" smooth="yes"/>
      <point x="251" y="434" type="line"/>
      <point x="241" y="445"/>
      <point x="230" y="435"/>
      <point x="234" y="422" type="curve"/>
      <point x="255" y="341" type="line" smooth="yes"/>
      <point x="262" y="315"/>
      <point x="251" y="296"/>
      <point x="214" y="296" type="curve" smooth="yes"/>
      <point x="177" y="296"/>
      <point x="163" y="315"/>
      <point x="170" y="341" type="curve" smooth="yes"/>
      <point x="193" y="422" type="line" smooth="yes"/>
      <point x="197" y="435"/>
      <point x="186" y="444"/>
      <point x="176" y="434" type="curve" smooth="yes"/>
      <point x="117" y="374" type="line" smooth="yes"/>
      <point x="94" y="350"/>
      <point x="73" y="354"/>
      <point x="53" y="384" type="curve"/>
    </contour>
  </outline>
</glyph>
<glyph name="plus" format="2">
  <advance width="574"/>
  <unicode hex="002B"/>
  <outline>
    <contour>
      <point x="61" y="197" type="line"/>
      <point x="61" y="273" type="line"/>
      <point x="243" y="273" type="line"/>
      <point x="243" y="461" type="line"/>
      <point x="332" y="461" type="line"/>
      <point x="332" y="273" type="line"/>
      <point x="514" y="273" type="line"/>
      <point x="514" y="197" type="line"/>
      <point x="332" y="197" type="line"/>
      <point x="332" y="0" type="line"/>
      <point x="243" y="0" type="line"/>
      <point x="243" y="197" type="line"/>
    </contour>
  </outline>
</glyph>
<glyph name="comma" format="2">
  <advance width="273"/>
  <unicode hex="002C"/>
  <outline>
    <contour>
      <point x="44" y="-130" type="line"/>
      <point x="77" y="-93"/>
      <point x="99" y="-54"/>
      <point x="99" y="-9" type="curve" smooth="yes"/>
      <point x="99" y="36"/>
      <point x="62" y="58"/>
      <point x="62" y="101" type="curve" smooth="yes"/>
      <point x="62" y="136"/>
      <point x="85" y="169"/>
      <point x="131" y="169" type="curve" smooth="yes"/>
      <point x="180" y="169"/>
      <point x="217" y="129"/>
      <point x="217" y="61" type="curve" smooth="yes"/>
      <point x="217" y="-25"/>
      <point x="134" y="-106"/>
      <point x="71" y="-157" type="curve"/>
    </contour>
  </outline>
</glyph>
<glyph name="period" format="2">
  <advance width="273"/>
  <unicode hex="002E"/>
  <outline>
    <contour>
      <point x="49" y="76" type="line"/>
      <point x="49" y="128"/>
      <point x="85" y="164"/>
      <point x="137" y="164" type="curve" smooth="yes"/>
      <point x="189" y="164"/>
      <point x="224" y="128"/>
      <point x="224" y="76" type="curve" smooth="yes"/>
      <point x="224" y="24"/>
      <point x="189" y="-11"/>
      <point x="137" y="-11" type="curve" smooth="yes"/>
      <point x="85" y="-11"/>
      <point x="49" y="24"/>
      <point x="49" y="76" type="curve"/>
    </contour>
  </outline>
</glyph>
<glyph name="slash" format="2">
  <advance width="364"/>
  <unicode hex="002F"/>
  <outline>
    <contour>
      <point x="37" y="-14" type="line"/>
      <point x="234" y="665" type="line"/>
      <point x="329" y="665" type="line"/>
      <point x="131" y="-14" type="line"/>
    </contour>
  </outline>
</glyph>
<glyph name="colon" format="2">
  <advance width="273"/>
  <unicode hex="003A"/>
  <outline>
    <contour>
      <point x="49" y="76" type="curve" smooth="yes"/>
      <point x="49" y="128"/>
      <point x="85" y="164"/>
      <point x="137" y="164" type="curve" smooth="yes"/>
      <point x="189" y="164"/>
      <point x="224" y="128"/>
      <point x="224" y="76" type="curve" smooth="yes"/>
      <point x="224" y="24"/>
      <point x="189" y="-11"/>
      <point x="137" y="-11" type="curve" smooth="yes"/>
      <point x="85" y="-11"/>
      <point x="49" y="24"/>
    </contour>
    <contour>
      <point x="49" y="373" type="curve" smooth="yes"/>
      <point x="49" y="425"/>
      <point x="85" y="461"/>
      <point x="137" y="461" type="curve" smooth="yes"/>
      <point x="189" y="461"/>
      <point x="224" y="425"/>
      <point x="224" y="373" type="curve" smooth="yes"/>
      <point x="224" y="321"/>
      <point x="189" y="286"/>
      <point x="137" y="286" type="curve" smooth="yes"/>
      <point x="85" y="286"/>
      <point x="49" y="321"/>
    </contour>
  </outline>
</glyph>
<glyph name="semicolon" format="2">
  <advance width="273"/>
  <unicode hex="003B"/>
  <outline>
    <contour>
      <point x="44" y="-130" type="line"/>
      <point x="77" y="-93"/>
      <point x="99" y="-54"/>
      <point x="99" y="-15" type="curve" smooth="yes"/>
      <point x="99" y="36"/>
      <point x="62" y="58"/>
      <point x="62" y="101" type="curve" smooth="yes"/>
      <point x="62" y="136"/>
      <point x="85" y="169"/>
      <point x="131" y="169" type="curve" smooth="yes"/>
      <point x="180" y="169"/>
      <point x="217" y="129"/>
      <point x="217" y="67" type="curve" smooth="yes"/>
      <point x="217" y="-25"/>
      <point x="134" y="-106"/>
      <point x="71" y="-157" type="curve"/>
    </contour>
    <contour>
      <point x="49" y="373" type="curve" smooth="yes"/>
      <point x="49" y="425"/>
      <point x="85" y="461"/>
      <point x="137" y="461" type="curve" smooth="yes"/>
      <point x="189" y="461"/>
      <point x="224" y="425"/>
      <point x="224" y="373" type="curve" smooth="yes"/>
      <point x="224" y="321"/>
      <point x="189" y="286"/>
      <point x="137" y="286" type="curve" smooth="yes"/>
      <point x="85" y="286"/>
      <point x="49" y="321"/>
    </contour>
  </outline>
</glyph>
<glyph name="less" format="2">
  <advance width="574"/>
  <unicode hex="003C"/>
  <outline>
    <contour>
      <point x="63" y="194" type="line"/>
      <point x="63" y="272" type="line"/>
      <point x="513" y="463" type="line"/>
      <point x="513" y="378" type="line"/>
      <point x="154" y="233" type="line"/>
      <point x="513" y="89" type="line"/>
      <point x="513" y="5" type="line"/>
    </contour>
  </outline>
</glyph>
<glyph name="equal" format="2">
  <advance width="574"/>
  <unicode hex="003D"/>
  <outline>
    <contour>
      <point x="61" y="97" type="line"/>
      <point x="61" y="172" type="line"/>
      <point x="514" y="172" type="line"/>
      <point x="514" y="97" type="line"/>
    </contour>
    <contour>
      <point x="61" y="298" type="line"/>
      <point x="61" y="373" type="line"/>
      <point x="514" y="373" type="line"/>
      <point x="514" y="298" type="line"/>
    </contour>
  </outline>
</glyph>
<glyph name="greater" format="2">
  <advance width="574"/>
  <unicode hex="003E"/>
  <outline>
    <contour>
      <point x="63" y="5" type="line"/>
      <point x="63" y="89" type="line"/>
      <point x="420" y="233" type="line"/>
      <point x="63" y="378" type="line"/>
      <point x="63" y="463" type="line"/>
      <point x="513" y="272" type="line"/>
      <point x="513" y="194" type="line"/>
    </contour>
  </outline>
</glyph>
<glyph name="question" format="2">
  <advance width="438"/>
  <unicode hex="003F"/>
  <outline>
    <contour>
      <point x="24" y="547" type="curve" smooth="yes"/>
      <point x="24" y="594"/>
      <point x="87" y="665"/>
      <point x="220" y="665" type="curve" smooth="yes"/>
      <point x="330" y="665"/>
      <point x="413" y="620"/>
      <point x="413" y="526" type="curve" smooth="yes"/>
      <point x="413" y="459"/>
      <point x="353" y="427"/>
      <point x="314" y="409" type="curve" smooth="yes"/>
      <point x="266.084" y="386.885"/>
      <point x="245" y="354"/>
      <point x="245" y="326" type="curve" smooth="yes"/>
      <point x="245" y="298"/>
      <point x="266" y="276"/>
      <point x="303" y="276" type="curve" smooth="yes"/>
      <point x="323" y="276"/>
      <point x="337" y="279"/>
      <point x="347" y="282" type="curve"/>
      <point x="357" y="257" type="line"/>
      <point x="319" y="231"/>
      <point x="270" y="211"/>
      <point x="216" y="211" type="curve" smooth="yes"/>
      <point x="148" y="211"/>
      <point x="86" y="242"/>
      <point x="86" y="310" type="curve" smooth="yes"/>
      <point x="86" y="337"/>
      <point x="100" y="371"/>
      <point x="167" y="411" type="curve" smooth="yes"/>
      <point x="228" y="449"/>
      <point x="255" y="497"/>
      <point x="255" y="549" type="curve" smooth="yes"/>
      <point x="255" y="590"/>
      <point x="241" y="621"/>
      <point x="217" y="621" type="curve" smooth="yes"/>
      <point x="193" y="621"/>
      <point x="173" y="596"/>
      <point x="154" y="518" type="curve" smooth="yes"/>
      <point x="148" y="494"/>
      <point x="134" y="483"/>
      <point x="104" y="483" type="curve" smooth="yes"/>
      <point x="73" y="483"/>
      <point x="24" y="506"/>
    </contour>
    <contour>
      <point x="129" y="76" type="curve" smooth="yes"/>
      <point x="129" y="128"/>
      <point x="164" y="164"/>
      <point x="216" y="164" type="curve" smooth="yes"/>
      <point x="268" y="164"/>
      <point x="303" y="128"/>
      <point x="303" y="76" type="curve" smooth="yes"/>
      <point x="303" y="24"/>
      <point x="268" y="-11"/>
      <point x="216" y="-11" type="curve" smooth="yes"/>
      <point x="164" y="-11"/>
      <point x="129" y="24"/>
    </contour>
  </outline>
</glyph>
<glyph name="at" format="2">
  <advance width="793"/>
  <unicode hex="0040"/>
  <outline>
    <contour>
      <point x="47" y="289" type="curve" smooth="yes"/>
      <point x="47" y="524"/>
      <point x="238" y="665"/>
      <point x="449" y="665" type="curve" smooth="yes"/>
      <point x="638" y="665"/>
      <point x="754" y="539"/>
      <point x="754" y="389" type="curve" smooth="yes"/>
      <point x="754" y="284"/>
      <point x="684" y="151"/>
      <point x="535" y="151" type="curve" smooth="yes"/>
      <point x="471" y="151"/>
      <point x="452" y="181"/>
      <point x="452" y="214" type="curve" smooth="yes"/>
      <point x="452" y="239"/>
      <point x="459" y="265"/>
      <point x="467" y="290" type="curve"/>
      <point x="464" y="291" type="line"/>
      <point x="421" y="200"/>
      <point x="365" y="151"/>
      <point x="291" y="151" type="curve" smooth="yes"/>
      <point x="242" y="151"/>
      <point x="216" y="187"/>
      <point x="216" y="236" type="curve" smooth="yes"/>
      <point x="216" y="307"/>
      <point x="278" y="511"/>
      <point x="467" y="511" type="curve" smooth="yes"/>
      <point x="484" y="511"/>
      <point x="501" y="508"/>
      <point x="512" y="502" type="curve"/>
      <point x="514" y="509" type="line"/>
      <point x="617" y="509" type="line"/>
      <point x="549" y="243" type="line"/>
      <point x="548" y="238"/>
      <point x="547" y="232"/>
      <point x="547" y="227" type="curve" smooth="yes"/>
      <point x="547" y="212"/>
      <point x="554" y="200"/>
      <point x="579" y="200" type="curve" smooth="yes"/>
      <point x="646" y="200"/>
      <point x="684" y="321"/>
      <point x="684" y="384" type="curve" smooth="yes"/>
      <point x="684" y="532"/>
      <point x="574" y="609"/>
      <point x="441" y="609" type="curve" smooth="yes"/>
      <point x="277" y="609"/>
      <point x="150" y="458"/>
      <point x="150" y="289" type="curve" smooth="yes"/>
      <point x="150" y="187"/>
      <point x="210" y="37"/>
      <point x="410" y="37" type="curve" smooth="yes"/>
      <point x="475" y="37"/>
      <point x="536" y="51"/>
      <point x="580" y="70" type="curve"/>
      <point x="591" y="37" type="line"/>
      <point x="541" y="1"/>
      <point x="451" y="-14"/>
      <point x="396" y="-14" type="curve" smooth="yes"/>
      <point x="208" y="-14"/>
      <point x="47" y="82"/>
    </contour>
    <contour>
      <point x="331" y="238" type="curve" smooth="yes"/>
      <point x="331" y="211"/>
      <point x="339" y="200"/>
      <point x="352" y="200" type="curve" smooth="yes"/>
      <point x="410" y="200"/>
      <point x="481" y="380"/>
      <point x="501" y="468" type="curve"/>
      <point x="492" y="474"/>
      <point x="483" y="476"/>
      <point x="474" y="476" type="curve" smooth="yes"/>
      <point x="469" y="476"/>
      <point x="464" y="475"/>
      <point x="459" y="474" type="curve"/>
      <point x="385" y="454"/>
      <point x="331" y="295"/>
    </contour>
  </outline>
</glyph>
<glyph name="A" format="2">
  <advance width="614"/>
  <unicode hex="0041"/>
  <anchor x="305" y="697" name="top"/>
  <anchor x="305" y="616" name="t.ring"/>
  <anchor x="534" y="0" name="b.ogonek"/>
  <anchor x="271" y="-40" name="bottom"/>
  <outline>
    <contour>
      <point x="-20" y="0" type="line"/>
      <point x="199" y="0" type="line"/>
      <point x="199" y="36" type="line"/>
      <point x="143" y="40" type="line" smooth="yes"/>
      <point x="128" y="41"/>
      <point x="123" y="47"/>
      <point x="123" y="57" type="curve" smooth="yes"/>
      <point x="123" y="62"/>
      <point x="124" y="67"/>
      <point x="126" y="74" type="curve" smooth="yes"/>
      <point x="262" y="520" type="line"/>
      <point x="265" y="520" type="line"/>
      <point x="402" y="74" type="line" smooth="yes"/>
      <point x="404" y="68"/>
      <point x="405" y="63"/>
      <point x="405" y="58" type="curve" smooth="yes"/>
      <point x="405" y="48"/>
      <point x="400" y="42"/>
      <point x="386" y="41" type="curve" smooth="yes"/>
      <point x="331" y="36" type="line"/>
      <point x="331" y="0" type="line"/>
      <point x="629" y="0" type="line"/>
      <point x="629" y="36" type="line"/>
      <point x="578" y="36"/>
      <point x="567" y="44"/>
      <point x="555" y="81" type="curve" smooth="yes"/>
      <point x="370" y="650" type="line"/>
      <point x="250" y="650" type="line"/>
      <point x="143" y="334" type="line" smooth="yes"/>
      <point x="110" y="237"/>
      <point x="76" y="142"/>
      <point x="55" y="85" type="curve" smooth="yes"/>
      <point x="41" y="46"/>
      <point x="31" y="39"/>
      <point x="-20" y="36" type="curve"/>
    </contour>
    <contour>
      <point x="155" y="231" type="line"/>
      <point x="368" y="231" type="line"/>
      <point x="353" y="276" type="line"/>
      <point x="170" y="276" type="line"/>
    </contour>
  </outline>
</glyph>
<glyph name="B" format="2">
  <advance width="652"/>
  <unicode hex="0042"/>
  <anchor x="305" y="697" name="top"/>
  <anchor x="314" y="-40" name="bottom"/>
  <outline>
    <contour>
      <point x="36" y="0" type="line"/>
      <point x="36" y="36" type="line"/>
      <point x="103" y="39"/>
      <point x="111" y="43"/>
      <point x="111" y="91" type="curve" smooth="yes"/>
      <point x="111" y="559" type="line" smooth="yes"/>
      <point x="111" y="607"/>
      <point x="103" y="612"/>
      <point x="36" y="615" type="curve"/>
      <point x="36" y="650" type="line"/>
      <point x="347" y="650" type="line" smooth="yes"/>
      <point x="496" y="650"/>
      <point x="586" y="609"/>
      <point x="586" y="498" type="curve" smooth="yes"/>
      <point x="586" y="417"/>
      <point x="538" y="371"/>
      <point x="447" y="350" type="curve"/>
      <point x="447" y="347" type="line"/>
      <point x="534" y="334"/>
      <point x="612" y="282"/>
      <point x="612" y="171" type="curve" smooth="yes"/>
      <point x="612" y="23"/>
      <point x="475" y="0"/>
      <point x="347" y="0" type="curve" smooth="yes"/>
    </contour>
    <contour>
      <point x="262" y="104" type="line" smooth="yes"/>
      <point x="262" y="58"/>
      <point x="282" y="43"/>
      <point x="328" y="43" type="curve" smooth="yes"/>
      <point x="395" y="43"/>
      <point x="447" y="76"/>
      <point x="447" y="170" type="curve" smooth="yes"/>
      <point x="447" y="256"/>
      <point x="404" y="322"/>
      <point x="310" y="322" type="curve" smooth="yes"/>
      <point x="262" y="322" type="line"/>
    </contour>
    <contour>
      <point x="262" y="366" type="line"/>
      <point x="307" y="366" type="line" smooth="yes"/>
      <point x="397" y="366"/>
      <point x="434" y="417"/>
      <point x="434" y="488" type="curve" smooth="yes"/>
      <point x="434" y="557"/>
      <point x="400" y="607"/>
      <point x="315" y="607" type="curve" smooth="yes"/>
      <point x="277" y="607"/>
      <point x="262" y="604"/>
      <point x="262" y="572" type="curve" smooth="yes"/>
    </contour>
  </outline>
</glyph>
<glyph name="C" format="2">
  <advance width="657"/>
  <unicode hex="0043"/>
  <anchor x="428" y="10" name="b.cedilla"/>
  <anchor x="371" y="697" name="top"/>
  <outline>
    <contour>
      <point x="45" y="321" type="curve" smooth="yes"/>
      <point x="45" y="550"/>
      <point x="175" y="665"/>
      <point x="403" y="665" type="curve" smooth="yes"/>
      <point x="450" y="665"/>
      <point x="549" y="657"/>
      <point x="605" y="623" type="curve"/>
      <point x="605" y="455" type="line"/>
      <point x="569" y="455" type="line"/>
      <point x="547" y="523"/>
      <point x="515" y="621"/>
      <point x="399" y="621" type="curve" smooth="yes"/>
      <point x="225" y="621"/>
      <point x="212" y="403"/>
      <point x="212" y="328" type="curve" smooth="yes"/>
      <point x="212" y="228"/>
      <point x="235" y="29"/>
      <point x="402" y="29" type="curve" smooth="yes"/>
      <point x="508" y="29"/>
      <point x="548" y="111"/>
      <point x="584" y="214" type="curve"/>
      <point x="620" y="214" type="line"/>
      <point x="609" y="31" type="line"/>
      <point x="553" y="-3"/>
      <point x="455" y="-14"/>
      <point x="386" y="-14" type="curve" smooth="yes"/>
      <point x="148" y="-14"/>
      <point x="45" y="118"/>
    </contour>
  </outline>
</glyph>
<glyph name="D" format="2">
  <advance width="740"/>
  <unicode hex="0044"/>
  <anchor x="346" y="697" name="top"/>
  <anchor x="381" y="10" name="b.cedilla"/>
  <anchor x="314" y="-40" name="bottom"/>
  <outline>
    <contour>
      <point x="36" y="0" type="line"/>
      <point x="36" y="36" type="line"/>
      <point x="103" y="39"/>
      <point x="111" y="43"/>
      <point x="111" y="91" type="curve" smooth="yes"/>
      <point x="111" y="559" type="line" smooth="yes"/>
      <point x="111" y="607"/>
      <point x="103" y="612"/>
      <point x="36" y="615" type="curve"/>
      <point x="36" y="650" type="line"/>
      <point x="359" y="650" type="line" smooth="yes"/>
      <point x="575" y="650"/>
      <point x="697" y="558"/>
      <point x="697" y="332" type="curve" smooth="yes"/>
      <point x="697" y="20"/>
      <point x="464" y="0"/>
      <point x="317" y="0" type="curve" smooth="yes"/>
    </contour>
    <contour>
      <point x="262" y="85" type="line" smooth="yes"/>
      <point x="262" y="55"/>
      <point x="277" y="43"/>
      <point x="330" y="43" type="curve" smooth="yes"/>
      <point x="427" y="43"/>
      <point x="531" y="84"/>
      <point x="531" y="323" type="curve" smooth="yes"/>
      <point x="531" y="513"/>
      <point x="465" y="607"/>
      <point x="339" y="607" type="curve" smooth="yes"/>
      <point x="280" y="607"/>
      <point x="262" y="603"/>
      <point x="262" y="581" type="curve" smooth="yes"/>
    </contour>
  </outline>
</glyph>
<glyph name="E" format="2">
  <advance width="601"/>
  <unicode hex="0045"/>
  <anchor x="305" y="697" name="top"/>
  <anchor x="377" y="0" name="b.ogonek"/>
  <anchor x="314" y="-40" name="bottom"/>
  <outline>
    <contour>
      <point x="36" y="0" type="line"/>
      <point x="36" y="36" type="line"/>
      <point x="103" y="39"/>
      <point x="111" y="43"/>
      <point x="111" y="91" type="curve" smooth="yes"/>
      <point x="111" y="559" type="line" smooth="yes"/>
      <point x="111" y="607"/>
      <point x="103" y="612"/>
      <point x="36" y="615" type="curve"/>
      <point x="36" y="650" type="line"/>
      <point x="544" y="650" type="line"/>
      <point x="544" y="477" type="line"/>
      <point x="507" y="477" type="line"/>
      <point x="478" y="570"/>
      <point x="461" y="607"/>
      <point x="364" y="607" type="curve" smooth="yes"/>
      <point x="295" y="607" type="line" smooth="yes"/>
      <point x="269" y="607"/>
      <point x="262" y="600"/>
      <point x="262" y="573" type="curve" smooth="yes"/>
      <point x="262" y="366" type="line"/>
      <point x="350" y="366" type="line" smooth="yes"/>
      <point x="409" y="366"/>
      <point x="421" y="381"/>
      <point x="436" y="450" type="curve"/>
      <point x="472" y="450" type="line"/>
      <point x="472" y="232" type="line"/>
      <point x="436" y="232" type="line"/>
      <point x="421" y="301"/>
      <point x="409" y="317"/>
      <point x="350" y="317" type="curve" smooth="yes"/>
      <point x="262" y="317" type="line"/>
      <point x="262" y="112" type="line" smooth="yes"/>
      <point x="262" y="52"/>
      <point x="291" y="43"/>
      <point x="377" y="43" type="curve" smooth="yes"/>
      <point x="464" y="43"/>
      <point x="496" y="73"/>
      <point x="537" y="196" type="curve"/>
      <point x="573" y="196" type="line"/>
      <point x="562" y="0" type="line"/>
    </contour>
  </outline>
</glyph>
<glyph name="F" format="2">
  <advance width="567"/>
  <unicode hex="0046"/>
  <anchor x="305" y="697" name="top"/>
  <outline>
    <contour>
      <point x="40" y="0" type="line"/>
      <point x="40" y="36" type="line"/>
      <point x="107" y="39"/>
      <point x="114" y="43"/>
      <point x="114" y="91" type="curve" smooth="yes"/>
      <point x="114" y="559" type="line" smooth="yes"/>
      <point x="114" y="607"/>
      <point x="107" y="612"/>
      <point x="40" y="615" type="curve"/>
      <point x="40" y="650" type="line"/>
      <point x="539" y="650" type="line"/>
      <point x="539" y="477" type="line"/>
      <point x="503" y="477" type="line"/>
      <point x="474" y="568"/>
      <point x="458" y="607"/>
      <point x="361" y="607" type="curve" smooth="yes"/>
      <point x="297" y="607" type="line" smooth="yes"/>
      <point x="271" y="607"/>
      <point x="264" y="600"/>
      <point x="264" y="573" type="curve" smooth="yes"/>
      <point x="264" y="348" type="line"/>
      <point x="372" y="348" type="line" smooth="yes"/>
      <point x="431" y="348"/>
      <point x="444" y="363"/>
      <point x="459" y="432" type="curve"/>
      <point x="495" y="432" type="line"/>
      <point x="495" y="214" type="line"/>
      <point x="459" y="214" type="line"/>
      <point x="444" y="283"/>
      <point x="431" y="299"/>
      <point x="372" y="299" type="curve" smooth="yes"/>
      <point x="264" y="299" type="line"/>
      <point x="264" y="91" type="line" smooth="yes"/>
      <point x="264" y="43"/>
      <point x="272" y="39"/>
      <point x="355" y="36" type="curve"/>
      <point x="355" y="0" type="line"/>
    </contour>
  </outline>
</glyph>
<glyph name="G" format="2">
  <advance width="692"/>
  <unicode hex="0047"/>
  <anchor x="388" y="697" name="top"/>
  <outline>
    <contour>
      <point x="45" y="311.619" type="curve" smooth="yes"/>
      <point x="45" y="451"/>
      <point x="94" y="665"/>
      <point x="402.345" y="665" type="curve" smooth="yes"/>
      <point x="469" y="665"/>
      <point x="551" y="655"/>
      <point x="610" y="623" type="curve"/>
      <point x="610" y="452" type="line"/>
      <point x="574" y="452" type="line"/>
      <point x="548" y="533"/>
      <point x="503" y="621"/>
      <point x="394.809" y="621" type="curve" smooth="yes"/>
      <point x="235" y="621"/>
      <point x="212" y="429"/>
      <point x="212" y="325.211" type="curve" smooth="yes"/>
      <point x="212" y="264"/>
      <point x="220" y="29"/>
      <point x="390" y="29" type="curve" smooth="yes"/>
      <point x="455" y="29"/>
      <point x="468" y="38"/>
      <point x="468" y="71" type="curve" smooth="yes"/>
      <point x="468" y="204" type="line" smooth="yes"/>
      <point x="468" y="250"/>
      <point x="461" y="254"/>
      <point x="388" y="259" type="curve"/>
      <point x="388" y="295" type="line"/>
      <point x="671" y="295" type="line"/>
      <point x="671" y="259" type="line"/>
      <point x="626" y="254"/>
      <point x="619" y="250"/>
      <point x="619" y="206" type="curve" smooth="yes"/>
      <point x="619" y="31" type="line"/>
      <point x="553" y="2"/>
      <point x="461" y="-14"/>
      <point x="390" y="-14" type="curve" smooth="yes"/>
      <point x="170" y="-14"/>
      <point x="45" y="89"/>
    </contour>
  </outline>
</glyph>
<glyph name="H" format="2">
  <advance width="768"/>
  <unicode hex="0048"/>
  <anchor x="387" y="697" name="top"/>
  <anchor x="385" y="-40" name="bottom"/>
  <outline>
    <contour>
      <point x="36" y="0" type="line"/>
      <point x="36" y="36" type="line"/>
      <point x="103" y="39"/>
      <point x="111" y="43"/>
      <point x="111" y="91" type="curve" smooth="yes"/>
      <point x="111" y="559" type="line" smooth="yes"/>
      <point x="111" y="607"/>
      <point x="103" y="612"/>
      <point x="36" y="615" type="curve"/>
      <point x="36" y="650" type="line"/>
      <point x="335" y="650" type="line"/>
      <point x="335" y="615" type="line"/>
      <point x="268" y="612"/>
      <point x="262" y="607"/>
      <point x="262" y="559" type="curve" smooth="yes"/>
      <point x="262" y="366" type="line"/>
      <point x="509" y="366" type="line"/>
      <point x="509" y="559" type="line" smooth="yes"/>
      <point x="509" y="607"/>
      <point x="501" y="612"/>
      <point x="434" y="615" type="curve"/>
      <point x="434" y="650" type="line"/>
      <point x="733" y="650" type="line"/>
      <point x="733" y="615" type="line"/>
      <point x="666" y="612"/>
      <point x="659" y="607"/>
      <point x="659" y="559" type="curve" smooth="yes"/>
      <point x="659" y="91" type="line" smooth="yes"/>
      <point x="659" y="43"/>
      <point x="666" y="39"/>
      <point x="733" y="36" type="curve"/>
      <point x="733" y="0" type="line"/>
      <point x="434" y="0" type="line"/>
      <point x="434" y="36" type="line"/>
      <point x="501" y="39"/>
      <point x="509" y="43"/>
      <point x="509" y="91" type="curve" smooth="yes"/>
      <point x="509" y="321" type="line"/>
      <point x="262" y="321" type="line"/>
      <point x="262" y="91" type="line" smooth="yes"/>
      <point x="262" y="43"/>
      <point x="268" y="39"/>
      <point x="335" y="36" type="curve"/>
      <point x="335" y="0" type="line"/>
    </contour>
  </outline>
</glyph>
<glyph name="I" format="2">
  <advance width="370"/>
  <unicode hex="0049"/>
  <anchor x="185" y="697" name="top"/>
  <anchor x="187" y="-40" name="bottom"/>
  <outline>
    <contour>
      <point x="36" y="0" type="line"/>
      <point x="36" y="36" type="line"/>
      <point x="103" y="39"/>
      <point x="111" y="43"/>
      <point x="111" y="91" type="curve" smooth="yes"/>
      <point x="111" y="559" type="line" smooth="yes"/>
      <point x="111" y="607"/>
      <point x="103" y="612"/>
      <point x="36" y="615" type="curve"/>
      <point x="36" y="650" type="line"/>
      <point x="335" y="650" type="line"/>
      <point x="335" y="615" type="line"/>
      <point x="268" y="612"/>
      <point x="262" y="607"/>
      <point x="262" y="559" type="curve" smooth="yes"/>
      <point x="262" y="91" type="line" smooth="yes"/>
      <point x="262" y="43"/>
      <point x="268" y="39"/>
      <point x="335" y="36" type="curve"/>
      <point x="335" y="0" type="line"/>
    </contour>
  </outline>
</glyph>
<glyph name="J" format="2">
  <advance width="372"/>
  <unicode hex="004A"/>
  <anchor x="197" y="697" name="top"/>
  <outline>
    <contour>
      <point x="12" y="-78" type="line"/>
      <point x="114" y="-47"/>
      <point x="120" y="41"/>
      <point x="120" y="137" type="curve" smooth="yes"/>
      <point x="120" y="559" type="line" smooth="yes"/>
      <point x="120" y="607"/>
      <point x="113" y="612"/>
      <point x="46" y="615" type="curve"/>
      <point x="46" y="650" type="line"/>
      <point x="345" y="650" type="line"/>
      <point x="345" y="615" type="line"/>
      <point x="278" y="612"/>
      <point x="270" y="607"/>
      <point x="270" y="559" type="curve" smooth="yes"/>
      <point x="270" y="134" type="line" smooth="yes"/>
      <point x="270" y="-44"/>
      <point x="182" y="-107"/>
      <point x="16" y="-107" type="curve"/>
    </contour>
  </outline>
</glyph>
<glyph name="K" format="2">
  <advance width="674"/>
  <unicode hex="004B"/>
  <anchor x="358" y="697" name="top"/>
  <anchor x="358" y="-40" name="bottom"/>
  <outline>
    <contour>
      <point x="36" y="0" type="line"/>
      <point x="36" y="36" type="line"/>
      <point x="103" y="39"/>
      <point x="111" y="43"/>
      <point x="111" y="91" type="curve" smooth="yes"/>
      <point x="111" y="559" type="line" smooth="yes"/>
      <point x="111" y="607"/>
      <point x="103" y="612"/>
      <point x="36" y="615" type="curve"/>
      <point x="36" y="650" type="line"/>
      <point x="335" y="650" type="line"/>
      <point x="335" y="615" type="line"/>
      <point x="268" y="612"/>
      <point x="262" y="607"/>
      <point x="262" y="559" type="curve" smooth="yes"/>
      <point x="262" y="337" type="line"/>
      <point x="421" y="522" type="line" smooth="yes"/>
      <point x="453" y="560"/>
      <point x="476" y="590"/>
      <point x="476" y="602" type="curve" smooth="yes"/>
      <point x="476" y="607"/>
      <point x="472" y="610"/>
      <point x="464" y="611" type="curve" smooth="yes"/>
      <point x="423" y="617" type="line"/>
      <point x="423" y="650" type="line"/>
      <point x="680" y="650" type="line"/>
      <point x="680" y="617" type="line"/>
      <point x="623" y="612"/>
      <point x="604" y="605"/>
      <point x="571" y="578" type="curve" smooth="yes"/>
      <point x="506" y="525"/>
      <point x="454" y="470"/>
      <point x="382" y="394" type="curve"/>
      <point x="434" y="308"/>
      <point x="524" y="177"/>
      <point x="604" y="86" type="curve" smooth="yes"/>
      <point x="629" y="57"/>
      <point x="644" y="41"/>
      <point x="681" y="30" type="curve"/>
      <point x="681" y="-6" type="line"/>
      <point x="617" y="-3" type="line" smooth="yes"/>
      <point x="523" y="1"/>
      <point x="476" y="16"/>
      <point x="427" y="67" type="curve" smooth="yes"/>
      <point x="369" y="128"/>
      <point x="305" y="244"/>
      <point x="265" y="319" type="curve"/>
      <point x="262" y="319" type="line"/>
      <point x="262" y="91" type="line" smooth="yes"/>
      <point x="262" y="43"/>
      <point x="268" y="39"/>
      <point x="335" y="36" type="curve"/>
      <point x="335" y="0" type="line"/>
    </contour>
  </outline>
  <guideline angle="49.316" x="262" y="337"/>
</glyph>
<glyph name="L" format="2">
  <advance width="559"/>
  <unicode hex="004C"/>
  <anchor x="277" y="697" name="top"/>
  <anchor x="389" y="743" name="t.r.caron"/>
  <anchor x="314" y="-40" name="bottom"/>
  <outline>
    <contour>
      <point x="36" y="0" type="line"/>
      <point x="36" y="36" type="line"/>
      <point x="103" y="39"/>
      <point x="111" y="43"/>
      <point x="111" y="91" type="curve" smooth="yes"/>
      <point x="111" y="559" type="line" smooth="yes"/>
      <point x="111" y="607"/>
      <point x="103" y="612"/>
      <point x="36" y="615" type="curve"/>
      <point x="36" y="650" type="line"/>
      <point x="347" y="650" type="line"/>
      <point x="347" y="615" type="line"/>
      <point x="269" y="612"/>
      <point x="262" y="607"/>
      <point x="262" y="559" type="curve" smooth="yes"/>
      <point x="262" y="112" type="line" smooth="yes"/>
      <point x="262" y="52"/>
      <point x="286" y="43"/>
      <point x="365" y="43" type="curve" smooth="yes"/>
      <point x="460" y="43"/>
      <point x="486" y="79"/>
      <point x="518" y="189" type="curve"/>
      <point x="554" y="189" type="line"/>
      <point x="544" y="0" type="line"/>
    </contour>
  </outline>
</glyph>
<glyph name="M" format="2">
  <advance width="872"/>
  <unicode hex="004D"/>
  <anchor x="433" y="697" name="top"/>
  <anchor x="399" y="-40" name="bottom"/>
  <outline>
    <contour>
      <point x="30" y="0" type="line"/>
      <point x="30" y="36" type="line"/>
      <point x="63" y="40" type="line" smooth="yes"/>
      <point x="85" y="43"/>
      <point x="94" y="57"/>
      <point x="97" y="90" type="curve"/>
      <point x="101" y="123"/>
      <point x="101" y="160"/>
      <point x="101" y="237" type="curve" smooth="yes"/>
      <point x="101" y="559" type="line" smooth="yes"/>
      <point x="101" y="607"/>
      <point x="95" y="612"/>
      <point x="28" y="615" type="curve"/>
      <point x="28" y="650" type="line"/>
      <point x="276" y="650" type="line"/>
      <point x="288" y="610"/>
      <point x="310" y="553"/>
      <point x="326" y="512" type="curve" smooth="yes"/>
      <point x="436" y="224" type="line"/>
      <point x="439" y="224" type="line"/>
      <point x="519" y="444" type="line" smooth="yes"/>
      <point x="545" y="514"/>
      <point x="578" y="605"/>
      <point x="594" y="650" type="curve"/>
      <point x="837" y="650" type="line"/>
      <point x="837" y="615" type="line"/>
      <point x="770" y="612"/>
      <point x="764" y="607"/>
      <point x="764" y="559" type="curve" smooth="yes"/>
      <point x="764" y="91" type="line" smooth="yes"/>
      <point x="764" y="43"/>
      <point x="770" y="39"/>
      <point x="837" y="36" type="curve"/>
      <point x="837" y="0" type="line"/>
      <point x="546" y="0" type="line"/>
      <point x="546" y="36" type="line"/>
      <point x="613" y="39"/>
      <point x="620" y="43"/>
      <point x="620" y="91" type="curve" smooth="yes"/>
      <point x="620" y="557" type="line"/>
      <point x="617" y="557" type="line"/>
      <point x="420" y="17" type="line"/>
      <point x="364" y="17" type="line"/>
      <point x="163" y="557" type="line"/>
      <point x="160" y="557" type="line"/>
      <point x="160" y="237" type="line" smooth="yes"/>
      <point x="160" y="161"/>
      <point x="160" y="124"/>
      <point x="164" y="90" type="curve"/>
      <point x="167" y="57"/>
      <point x="177" y="42"/>
      <point x="203" y="40" type="curve" smooth="yes"/>
      <point x="254" y="36" type="line"/>
      <point x="254" y="0" type="line"/>
    </contour>
  </outline>
</glyph>
<glyph name="N" format="2">
  <advance width="704"/>
  <unicode hex="004E"/>
  <anchor x="357" y="697" name="top"/>
  <anchor x="356" y="-40" name="bottom"/>
  <outline>
    <contour>
      <point x="31" y="0" type="line"/>
      <point x="31" y="36" type="line"/>
      <point x="64" y="40" type="line" smooth="yes"/>
      <point x="97.7928" y="44.0961"/>
      <point x="103" y="73.2707"/>
      <point x="103" y="107" type="curve" smooth="yes"/>
      <point x="103" y="559" type="line" smooth="yes"/>
      <point x="103" y="607"/>
      <point x="97" y="612"/>
      <point x="30" y="615" type="curve"/>
      <point x="30" y="650" type="line"/>
      <point x="251" y="650" type="line"/>
      <point x="348" y="501"/>
      <point x="447" y="352"/>
      <point x="547" y="203" type="curve"/>
      <point x="551" y="203" type="line"/>
      <point x="551" y="534" type="line" smooth="yes"/>
      <point x="551" y="572.438"/>
      <point x="550.387" y="605.907"/>
      <point x="507" y="610" type="curve" smooth="yes"/>
      <point x="454" y="615" type="line"/>
      <point x="454" y="650" type="line"/>
      <point x="681" y="650" type="line"/>
      <point x="681" y="615" type="line"/>
      <point x="648" y="610" type="line" smooth="yes"/>
      <point x="611.921" y="604.534"/>
      <point x="610" y="568.432"/>
      <point x="610" y="534" type="curve" smooth="yes"/>
      <point x="610" y="0" type="line"/>
      <point x="506" y="0" type="line"/>
      <point x="395" y="174"/>
      <point x="281" y="352"/>
      <point x="165" y="526" type="curve"/>
      <point x="162" y="526" type="line"/>
      <point x="162" y="107" type="line" smooth="yes"/>
      <point x="162" y="69.8703"/>
      <point x="164.268" y="43.0172"/>
      <point x="205" y="40" type="curve" smooth="yes"/>
      <point x="259" y="36" type="line"/>
      <point x="259" y="0" type="line"/>
    </contour>
  </outline>
</glyph>
<glyph name="O" format="2">
  <advance width="730"/>
  <unicode hex="004F"/>
  <anchor x="371" y="697" name="top"/>
  <anchor x="364" y="-40" name="bottom"/>
  <outline>
    <contour>
      <point x="45" y="326" type="curve" smooth="yes"/>
      <point x="45" y="538"/>
      <point x="150" y="665"/>
      <point x="366" y="665" type="curve" smooth="yes"/>
      <point x="582" y="665"/>
      <point x="687" y="538"/>
      <point x="687" y="326" type="curve" smooth="yes"/>
      <point x="687" y="114"/>
      <point x="582" y="-14"/>
      <point x="366" y="-14" type="curve" smooth="yes"/>
      <point x="150" y="-14"/>
      <point x="45" y="114"/>
    </contour>
    <contour>
      <point x="212" y="329" type="curve" smooth="yes"/>
      <point x="212" y="213"/>
      <point x="230" y="30"/>
      <point x="366" y="30" type="curve" smooth="yes"/>
      <point x="504" y="30"/>
      <point x="521" y="213"/>
      <point x="521" y="326" type="curve" smooth="yes"/>
      <point x="521" y="440"/>
      <point x="504" y="621"/>
      <point x="366" y="621" type="curve" smooth="yes"/>
      <point x="228" y="621"/>
      <point x="212" y="440"/>
    </contour>
  </outline>
</glyph>
<glyph name="P" format="2">
  <advance width="621"/>
  <unicode hex="0050"/>
  <anchor x="357" y="697" name="top"/>
  <outline>
    <contour>
      <point x="36" y="0" type="line"/>
      <point x="36" y="36" type="line"/>
      <point x="103" y="39"/>
      <point x="111" y="43"/>
      <point x="111" y="91" type="curve" smooth="yes"/>
      <point x="111" y="559" type="line" smooth="yes"/>
      <point x="111" y="607"/>
      <point x="103" y="612"/>
      <point x="36" y="615" type="curve"/>
      <point x="36" y="650" type="line"/>
      <point x="328" y="650" type="line" smooth="yes"/>
      <point x="461" y="650"/>
      <point x="591" y="622"/>
      <point x="591" y="462" type="curve" smooth="yes"/>
      <point x="591" y="297"/>
      <point x="454" y="259"/>
      <point x="317" y="259" type="curve" smooth="yes"/>
      <point x="262" y="259" type="line"/>
      <point x="262" y="91" type="line" smooth="yes"/>
      <point x="262" y="43"/>
      <point x="268" y="39"/>
      <point x="351" y="34" type="curve"/>
      <point x="351" y="0" type="line"/>
    </contour>
    <contour>
      <point x="262" y="341" type="line" smooth="yes"/>
      <point x="262" y="305"/>
      <point x="277" y="302"/>
      <point x="314" y="302" type="curve" smooth="yes"/>
      <point x="409" y="302"/>
      <point x="433" y="386"/>
      <point x="433" y="457" type="curve" smooth="yes"/>
      <point x="433" y="566"/>
      <point x="379" y="607"/>
      <point x="316" y="607" type="curve" smooth="yes"/>
      <point x="268" y="607"/>
      <point x="262" y="598"/>
      <point x="262" y="572" type="curve" smooth="yes"/>
    </contour>
  </outline>
</glyph>
<glyph name="Q" format="2">
  <advance width="730"/>
  <unicode hex="0051"/>
  <outline>
    <contour>
      <point x="45" y="326" type="curve" smooth="yes"/>
      <point x="45" y="538"/>
      <point x="150" y="665"/>
      <point x="366" y="665" type="curve" smooth="yes"/>
      <point x="582" y="665"/>
      <point x="687" y="538"/>
      <point x="687" y="326" type="curve" smooth="yes"/>
      <point x="687" y="152"/>
      <point x="615" y="35"/>
      <point x="474" y="-2" type="curve"/>
      <point x="502" y="-54"/>
      <point x="585" y="-138"/>
      <point x="646" y="-138" type="curve" smooth="yes"/>
      <point x="655" y="-138" type="line"/>
      <point x="662" y="-161" type="line"/>
      <point x="639" y="-174"/>
      <point x="603" y="-181"/>
      <point x="564" y="-181" type="curve" smooth="yes"/>
      <point x="423" y="-181"/>
      <point x="337" y="-78"/>
      <point x="311" y="-10" type="curve"/>
      <point x="134" y="10"/>
      <point x="45" y="132"/>
    </contour>
    <contour>
      <point x="212" y="326" type="curve"/>
      <point x="214" y="198"/>
      <point x="230" y="29"/>
      <point x="366" y="29" type="curve" smooth="yes"/>
      <point x="502" y="29"/>
      <point x="519" y="198"/>
      <point x="521" y="326" type="curve"/>
      <point x="519" y="446"/>
      <point x="502" y="621"/>
      <point x="366" y="621" type="curve" smooth="yes"/>
      <point x="230" y="621"/>
      <point x="214" y="446"/>
    </contour>
  </outline>
</glyph>
<glyph name="R" format="2">
  <advance width="652"/>
  <unicode hex="0052"/>
  <anchor x="305" y="697" name="top"/>
  <anchor x="364" y="-40" name="bottom"/>
  <outline>
    <contour>
      <point x="36" y="0" type="line"/>
      <point x="36" y="36" type="line"/>
      <point x="103" y="39"/>
      <point x="111" y="43"/>
      <point x="111" y="91" type="curve" smooth="yes"/>
      <point x="111" y="559" type="line" smooth="yes"/>
      <point x="111" y="607"/>
      <point x="103" y="612"/>
      <point x="36" y="615" type="curve"/>
      <point x="36" y="650" type="line"/>
      <point x="363" y="650" type="line" smooth="yes"/>
      <point x="483" y="650"/>
      <point x="591" y="622"/>
      <point x="591" y="482" type="curve" smooth="yes"/>
      <point x="591" y="400"/>
      <point x="525" y="342"/>
      <point x="432" y="328" type="curve"/>
      <point x="432" y="325" type="line"/>
      <point x="529" y="300"/>
      <point x="548" y="238"/>
      <point x="560.069" y="171.073" type="curve" smooth="yes"/>
      <point x="570" y="116"/>
      <point x="589" y="40"/>
      <point x="650" y="36" type="curve"/>
      <point x="650" y="0" type="line"/>
      <point x="580" y="0" type="line" smooth="yes"/>
      <point x="437" y="0"/>
      <point x="422" y="58"/>
      <point x="399" y="177" type="curve" smooth="yes"/>
      <point x="382" y="266"/>
      <point x="356" y="299"/>
      <point x="304" y="299" type="curve" smooth="yes"/>
      <point x="262" y="299" type="line"/>
      <point x="262" y="91" type="line" smooth="yes"/>
      <point x="262" y="43"/>
      <point x="268" y="39"/>
      <point x="335" y="36" type="curve"/>
      <point x="335" y="0" type="line"/>
    </contour>
    <contour>
      <point x="262" y="341" type="line"/>
      <point x="309" y="341" type="line" smooth="yes"/>
      <point x="404" y="341"/>
      <point x="433" y="399"/>
      <point x="433" y="475.098" type="curve" smooth="yes"/>
      <point x="433" y="573"/>
      <point x="385" y="607"/>
      <point x="321" y="607" type="curve" smooth="yes"/>
      <point x="269" y="607"/>
      <point x="262" y="597"/>
      <point x="262" y="571" type="curve" smooth="yes"/>
    </contour>
  </outline>
</glyph>
<glyph name="S" format="2">
  <advance width="537"/>
  <unicode hex="0053"/>
  <anchor x="280" y="697" name="top"/>
  <anchor x="247" y="-40" name="bottom"/>
  <anchor x="307" y="10" name="b.cedilla"/>
  <outline>
    <contour>
      <point x="45" y="212" type="line"/>
      <point x="80" y="212" type="line"/>
      <point x="116" y="94"/>
      <point x="188" y="29"/>
      <point x="265" y="29" type="curve" smooth="yes"/>
      <point x="320" y="29"/>
      <point x="365" y="62"/>
      <point x="365" y="129" type="curve" smooth="yes"/>
      <point x="365" y="192"/>
      <point x="326" y="234"/>
      <point x="240" y="270" type="curve" smooth="yes"/>
      <point x="228" y="275" type="line" smooth="yes"/>
      <point x="147" y="310"/>
      <point x="53" y="360"/>
      <point x="53" y="478" type="curve" smooth="yes"/>
      <point x="53" y="583"/>
      <point x="128" y="665"/>
      <point x="284" y="665" type="curve" smooth="yes"/>
      <point x="344" y="665"/>
      <point x="415" y="653"/>
      <point x="464" y="623" type="curve"/>
      <point x="464" y="469" type="line"/>
      <point x="430" y="469" type="line"/>
      <point x="404" y="579"/>
      <point x="346" y="621"/>
      <point x="286" y="621" type="curve" smooth="yes"/>
      <point x="230" y="621"/>
      <point x="188" y="585"/>
      <point x="188" y="530" type="curve" smooth="yes"/>
      <point x="188" y="460"/>
      <point x="255" y="425"/>
      <point x="314" y="401" type="curve" smooth="yes"/>
      <point x="329" y="395" type="line" smooth="yes"/>
      <point x="416" y="360"/>
      <point x="506" y="311"/>
      <point x="506" y="187" type="curve" smooth="yes"/>
      <point x="506" y="89"/>
      <point x="451" y="-14"/>
      <point x="268" y="-14" type="curve" smooth="yes"/>
      <point x="201" y="-14"/>
      <point x="108" y="0"/>
      <point x="60" y="44" type="curve"/>
    </contour>
  </outline>
</glyph>
<glyph name="T" format="2">
  <advance width="595"/>
  <unicode hex="0054"/>
  <anchor x="305" y="697" name="top"/>
  <anchor x="328" y="10" name="b.cedilla"/>
  <outline>
    <contour>
      <point x="19" y="474" type="line"/>
      <point x="19" y="650" type="line"/>
      <point x="578" y="650" type="line"/>
      <point x="578" y="474" type="line"/>
      <point x="543" y="474" type="line"/>
      <point x="511" y="568"/>
      <point x="498" y="607"/>
      <point x="412" y="607" type="curve" smooth="yes"/>
      <point x="373" y="607" type="line"/>
      <point x="373" y="89" type="line" smooth="yes"/>
      <point x="373" y="55"/>
      <point x="381" y="41"/>
      <point x="411" y="39" type="curve" smooth="yes"/>
      <point x="464" y="36" type="line"/>
      <point x="464" y="0" type="line"/>
      <point x="133" y="0" type="line"/>
      <point x="133" y="36" type="line"/>
      <point x="186" y="39" type="line" smooth="yes"/>
      <point x="216" y="41"/>
      <point x="223" y="55"/>
      <point x="223" y="89" type="curve" smooth="yes"/>
      <point x="223" y="607" type="line"/>
      <point x="185" y="607" type="line" smooth="yes"/>
      <point x="103" y="607"/>
      <point x="87" y="568"/>
      <point x="55" y="474" type="curve"/>
    </contour>
  </outline>
</glyph>
<glyph name="U" format="2">
  <advance width="747"/>
  <unicode hex="0055"/>
  <anchor x="371" y="697" name="top"/>
  <anchor x="371" y="700" name="t.ring"/>
  <anchor x="372" y="-40" name="bottom"/>
  <outline>
    <contour>
      <point x="32" y="615" type="curve"/>
      <point x="32" y="650" type="line"/>
      <point x="327" y="650" type="line"/>
      <point x="327" y="615" type="line"/>
      <point x="263" y="612"/>
      <point x="254" y="607"/>
      <point x="254" y="559" type="curve" smooth="yes"/>
      <point x="254" y="198" type="line" smooth="yes"/>
      <point x="254" y="91"/>
      <point x="289" y="29"/>
      <point x="374" y="29" type="curve" smooth="yes"/>
      <point x="460" y="29"/>
      <point x="496" y="91"/>
      <point x="496" y="198" type="curve" smooth="yes"/>
      <point x="496" y="559" type="line" smooth="yes"/>
      <point x="496" y="607"/>
      <point x="487" y="612"/>
      <point x="423" y="615" type="curve"/>
      <point x="423" y="650" type="line"/>
      <point x="717" y="650" type="line"/>
      <point x="717" y="615" type="line"/>
      <point x="653" y="612"/>
      <point x="646" y="607"/>
      <point x="646" y="559" type="curve" smooth="yes"/>
      <point x="646" y="212" type="line" smooth="yes"/>
      <point x="646" y="49"/>
      <point x="548" y="-14"/>
      <point x="367" y="-14" type="curve" smooth="yes"/>
      <point x="186" y="-14"/>
      <point x="104" y="49"/>
      <point x="104" y="212" type="curve" smooth="yes"/>
      <point x="104" y="559" type="line" smooth="yes"/>
      <point x="104" y="607"/>
      <point x="96" y="612"/>
    </contour>
  </outline>
</glyph>
<glyph name="V" format="2">
  <advance width="615"/>
  <unicode hex="0056"/>
  <anchor x="355" y="697" name="top"/>
  <anchor x="314" y="-40" name="bottom"/>
  <outline>
    <contour>
      <point x="-10" y="615" type="curve"/>
      <point x="-10" y="650" type="line"/>
      <point x="276" y="650" type="line"/>
      <point x="276" y="615" type="line"/>
      <point x="231" y="610" type="line" smooth="yes"/>
      <point x="216" y="608"/>
      <point x="211" y="603"/>
      <point x="211" y="593" type="curve" smooth="yes"/>
      <point x="211" y="588"/>
      <point x="212" y="582"/>
      <point x="214" y="576" type="curve" smooth="yes"/>
      <point x="355" y="140" type="line"/>
      <point x="360" y="140" type="line"/>
      <point x="437" y="383" type="line" smooth="yes"/>
      <point x="459" y="451"/>
      <point x="479" y="514"/>
      <point x="490" y="553" type="curve"/>
      <point x="495" y="569"/>
      <point x="497" y="577"/>
      <point x="497" y="594" type="curve" smooth="yes"/>
      <point x="497" y="604"/>
      <point x="492" y="609"/>
      <point x="479" y="610" type="curve" smooth="yes"/>
      <point x="426" y="615" type="line"/>
      <point x="426" y="650" type="line"/>
      <point x="644" y="650" type="line"/>
      <point x="644" y="615" type="line"/>
      <point x="591" y="611"/>
      <point x="582" y="604"/>
      <point x="564" y="559" type="curve" smooth="yes"/>
      <point x="549" y="522"/>
      <point x="517" y="431"/>
      <point x="482" y="328" type="curve" smooth="yes"/>
      <point x="370" y="0" type="line"/>
      <point x="251" y="0" type="line"/>
      <point x="62" y="567" type="line" smooth="yes"/>
      <point x="49" y="607"/>
      <point x="38" y="613"/>
    </contour>
  </outline>
</glyph>
<glyph name="W" format="2">
  <advance width="887"/>
  <unicode hex="0057"/>
  <anchor x="469" y="697" name="top"/>
  <anchor x="443" y="-40" name="bottom"/>
  <outline>
    <contour>
      <point x="-3" y="617" type="curve"/>
      <point x="-3" y="650" type="line"/>
      <point x="265" y="650" type="line"/>
      <point x="265" y="617" type="line"/>
      <point x="222" y="610" type="line" smooth="yes"/>
      <point x="211" y="608"/>
      <point x="202" y="605"/>
      <point x="202" y="593" type="curve" smooth="yes"/>
      <point x="202" y="588"/>
      <point x="203" y="582"/>
      <point x="205" y="574" type="curve" smooth="yes"/>
      <point x="312" y="149" type="line"/>
      <point x="315" y="149" type="line"/>
      <point x="431" y="636" type="line"/>
      <point x="535" y="636" type="line"/>
      <point x="660" y="149" type="line"/>
      <point x="664" y="149" type="line"/>
      <point x="717" y="361" type="line" smooth="yes"/>
      <point x="724" y="391"/>
      <point x="747" y="491"/>
      <point x="761" y="552" type="curve" smooth="yes"/>
      <point x="765" y="568"/>
      <point x="766" y="581"/>
      <point x="766" y="589" type="curve" smooth="yes"/>
      <point x="766" y="601"/>
      <point x="761" y="607"/>
      <point x="747" y="609" type="curve" smooth="yes"/>
      <point x="693" y="617" type="line"/>
      <point x="693" y="650" type="line"/>
      <point x="907" y="650" type="line"/>
      <point x="907" y="617" type="line"/>
      <point x="856" y="610"/>
      <point x="848" y="605"/>
      <point x="835" y="562" type="curve" smooth="yes"/>
      <point x="821" y="517"/>
      <point x="794" y="428"/>
      <point x="767" y="326" type="curve" smooth="yes"/>
      <point x="680" y="0" type="line"/>
      <point x="562" y="0" type="line"/>
      <point x="446" y="440" type="line"/>
      <point x="443" y="440" type="line"/>
      <point x="331" y="0" type="line"/>
      <point x="214" y="0" type="line"/>
      <point x="131" y="314" type="line" smooth="yes"/>
      <point x="105" y="412"/>
      <point x="80" y="503"/>
      <point x="61" y="572" type="curve" smooth="yes"/>
      <point x="52" y="606"/>
      <point x="44" y="612"/>
    </contour>
  </outline>
</glyph>
<glyph name="X" format="2">
  <advance width="605"/>
  <unicode hex="0058"/>
  <anchor x="326" y="697" name="top"/>
  <outline>
    <contour>
      <point x="-13" y="0" type="line"/>
      <point x="-13" y="36" type="line"/>
      <point x="48" y="40"/>
      <point x="55" y="45"/>
      <point x="81" y="79" type="curve" smooth="yes"/>
      <point x="126" y="139"/>
      <point x="188" y="234"/>
      <point x="239" y="310" type="curve"/>
      <point x="83" y="567" type="line" smooth="yes"/>
      <point x="59" y="606"/>
      <point x="51" y="610"/>
      <point x="-1" y="615" type="curve"/>
      <point x="-1" y="650" type="line"/>
      <point x="286" y="650" type="line"/>
      <point x="286" y="615" type="line"/>
      <point x="247" y="610" type="line"/>
      <point x="236" y="609"/>
      <point x="230" y="603"/>
      <point x="230" y="595" type="curve" smooth="yes"/>
      <point x="230" y="590"/>
      <point x="232" y="584"/>
      <point x="236" y="577" type="curve" smooth="yes"/>
      <point x="329" y="422" type="line"/>
      <point x="332" y="422" type="line"/>
      <point x="430" y="581" type="line"/>
      <point x="434" y="587"/>
      <point x="435" y="591"/>
      <point x="435" y="595" type="curve" smooth="yes"/>
      <point x="435" y="603"/>
      <point x="428" y="608"/>
      <point x="420" y="609" type="curve" smooth="yes"/>
      <point x="380" y="615" type="line"/>
      <point x="380" y="650" type="line"/>
      <point x="598" y="650" type="line"/>
      <point x="598" y="615" type="line"/>
      <point x="550" y="612"/>
      <point x="532" y="608"/>
      <point x="503" y="572" type="curve" smooth="yes"/>
      <point x="465" y="525"/>
      <point x="412" y="450"/>
      <point x="364" y="377" type="curve"/>
      <point x="539" y="91" type="line" smooth="yes"/>
      <point x="567" y="45"/>
      <point x="577" y="39"/>
      <point x="636" y="36" type="curve"/>
      <point x="636" y="0" type="line"/>
      <point x="320" y="0" type="line"/>
      <point x="320" y="36" type="line"/>
      <point x="368" y="41" type="line"/>
      <point x="382" y="43"/>
      <point x="387" y="48"/>
      <point x="387" y="56" type="curve" smooth="yes"/>
      <point x="387" y="61"/>
      <point x="385" y="67"/>
      <point x="381" y="72" type="curve"/>
      <point x="271" y="259" type="line"/>
      <point x="267" y="259" type="line"/>
      <point x="164" y="72" type="line"/>
      <point x="161" y="66"/>
      <point x="160" y="61"/>
      <point x="160" y="56" type="curve" smooth="yes"/>
      <point x="160" y="46"/>
      <point x="166" y="40"/>
      <point x="179" y="39" type="curve" smooth="yes"/>
      <point x="232" y="36" type="line"/>
      <point x="232" y="0" type="line"/>
    </contour>
  </outline>
</glyph>
<glyph name="Y" format="2">
  <advance width="589"/>
  <unicode hex="0059"/>
  <anchor x="322" y="697" name="top"/>
  <anchor x="299" y="-40" name="bottom"/>
  <outline>
    <contour>
      <point x="138" y="0" type="line"/>
      <point x="138" y="36" type="line"/>
      <point x="221" y="39"/>
      <point x="230" y="43"/>
      <point x="230" y="91" type="curve" smooth="yes"/>
      <point x="230" y="226" type="line" smooth="yes"/>
      <point x="230" y="243.104"/>
      <point x="219" y="271"/>
      <point x="210" y="290" type="curve" smooth="yes"/>
      <point x="73" y="561" type="line" smooth="yes"/>
      <point x="51" y="604"/>
      <point x="44" y="611"/>
      <point x="-5" y="615" type="curve"/>
      <point x="-5" y="650" type="line"/>
      <point x="291" y="650" type="line"/>
      <point x="291" y="615" type="line"/>
      <point x="240" y="609" type="line" smooth="yes"/>
      <point x="219" y="606"/>
      <point x="221" y="593"/>
      <point x="228" y="578" type="curve" smooth="yes"/>
      <point x="343" y="321" type="line"/>
      <point x="346" y="321" type="line"/>
      <point x="457" y="572" type="line" smooth="yes"/>
      <point x="467.367" y="595.442"/>
      <point x="462" y="607"/>
      <point x="444" y="609" type="curve" smooth="yes"/>
      <point x="395" y="615" type="line"/>
      <point x="395" y="650" type="line"/>
      <point x="621" y="650" type="line"/>
      <point x="621" y="615" type="line"/>
      <point x="570" y="609"/>
      <point x="552.112" y="603.032"/>
      <point x="532" y="564" type="curve" smooth="yes"/>
      <point x="397" y="302" type="line" smooth="yes"/>
      <point x="385.931" y="280.518"/>
      <point x="380" y="261"/>
      <point x="380" y="235" type="curve" smooth="yes"/>
      <point x="380" y="91" type="line" smooth="yes"/>
      <point x="380" y="43"/>
      <point x="386" y="39"/>
      <point x="469" y="36" type="curve"/>
      <point x="469" y="0" type="line"/>
    </contour>
  </outline>
</glyph>
<glyph name="Z" format="2">
  <advance width="587"/>
  <unicode hex="005A"/>
  <anchor x="307" y="697" name="top"/>
  <anchor x="289" y="-40" name="bottom"/>
  <outline>
    <contour>
      <point x="5" y="21" type="line"/>
      <point x="135" y="216"/>
      <point x="261" y="411"/>
      <point x="388" y="607" type="curve"/>
      <point x="268" y="607" type="line" smooth="yes"/>
      <point x="153" y="607"/>
      <point x="119" y="575"/>
      <point x="96" y="466" type="curve"/>
      <point x="61" y="466" type="line"/>
      <point x="61" y="650" type="line"/>
      <point x="562" y="650" type="line"/>
      <point x="574" y="631" type="line"/>
      <point x="445" y="435"/>
      <point x="316" y="240"/>
      <point x="189" y="43" type="curve"/>
      <point x="341" y="43" type="line" smooth="yes"/>
      <point x="480" y="43"/>
      <point x="503" y="91"/>
      <point x="539" y="196" type="curve"/>
      <point x="576" y="196" type="line"/>
      <point x="564" y="0" type="line"/>
      <point x="17" y="0" type="line"/>
    </contour>
  </outline>
</glyph>
<glyph name="bracketleft" format="2">
  <advance width="348"/>
  <unicode hex="005B"/>
  <outline>
    <contour>
      <point x="102" y="-189" type="line"/>
      <point x="102" y="745" type="line"/>
      <point x="315" y="745" type="line"/>
      <point x="315" y="708" type="line"/>
      <point x="244" y="699" type="line" smooth="yes"/>
      <point x="212" y="695"/>
      <point x="210" y="679"/>
      <point x="210" y="646" type="curve" smooth="yes"/>
      <point x="210" y="-90" type="line" smooth="yes"/>
      <point x="210" y="-123"/>
      <point x="212" y="-139"/>
      <point x="244" y="-143" type="curve" smooth="yes"/>
      <point x="315" y="-151" type="line"/>
      <point x="315" y="-189" type="line"/>
    </contour>
  </outline>
</glyph>
<glyph name="backslash" format="2">
  <advance width="365"/>
  <unicode hex="005C"/>
  <outline>
    <contour>
      <point x="37" y="665" type="line"/>
      <point x="131" y="665" type="line"/>
      <point x="330" y="-14" type="line"/>
      <point x="235" y="-14" type="line"/>
    </contour>
  </outline>
</glyph>
<glyph name="bracketright" format="2">
  <advance width="348"/>
  <unicode hex="005D"/>
  <outline>
    <contour>
      <point x="35" y="-189" type="line"/>
      <point x="35" y="-151" type="line"/>
      <point x="103" y="-143" type="line" smooth="yes"/>
      <point x="135" y="-139"/>
      <point x="139" y="-123"/>
      <point x="139" y="-90" type="curve" smooth="yes"/>
      <point x="139" y="646" type="line" smooth="yes"/>
      <point x="139" y="679"/>
      <point x="135" y="695"/>
      <point x="103" y="699" type="curve" smooth="yes"/>
      <point x="35" y="708" type="line"/>
      <point x="35" y="745" type="line"/>
      <point x="246" y="745" type="line"/>
      <point x="246" y="-189" type="line"/>
    </contour>
  </outline>
</glyph>
<glyph name="asciicircum" format="2">
  <advance width="574"/>
  <unicode hex="005E"/>
  <outline>
    <contour>
      <point x="59" y="202" type="line"/>
      <point x="244" y="628" type="line"/>
      <point x="336" y="628" type="line"/>
      <point x="516" y="202" type="line"/>
      <point x="419" y="202" type="line"/>
      <point x="289" y="523" type="line"/>
      <point x="155" y="202" type="line"/>
    </contour>
  </outline>
</glyph>
<glyph name="underscore" format="2">
  <advance width="479"/>
  <unicode hex="005F"/>
  <outline>
    <contour>
      <point x="5" y="-70" type="line"/>
      <point x="476" y="-70" type="line"/>
      <point x="476" y="-118" type="line"/>
      <point x="5" y="-118" type="line"/>
    </contour>
  </outline>
</glyph>
<glyph name="grave" format="2">
  <advance width="413"/>
  <unicode hex="0060"/>
  <outline>
    <contour>
      <point x="44" y="639" type="curve" smooth="yes"/>
      <point x="44" y="663"/>
      <point x="70" y="696"/>
      <point x="97" y="696" type="curve" smooth="yes"/>
      <point x="112" y="696"/>
      <point x="128" y="685"/>
      <point x="163" y="649" type="curve" smooth="yes"/>
      <point x="298" y="509" type="line"/>
      <point x="280" y="480" type="line"/>
      <point x="107" y="577" type="line" smooth="yes"/>
      <point x="73" y="596"/>
      <point x="44" y="615"/>
    </contour>
  </outline>
</glyph>
<glyph name="a" format="2">
  <advance width="521"/>
  <unicode hex="0061"/>
  <anchor x="264" y="490" name="top"/>
  <anchor x="264" y="490" name="t.ring"/>
  <anchor x="476" y="0" name="b.ogonek"/>
  <anchor x="280" y="-40" name="bottom"/>
  <outline>
    <contour>
      <point x="45" y="126" type="curve" smooth="yes"/>
      <point x="45" y="211"/>
      <point x="114" y="238"/>
      <point x="203" y="262" type="curve" smooth="yes"/>
      <point x="243" y="273"/>
      <point x="288" y="290"/>
      <point x="316" y="309" type="curve"/>
      <point x="316" y="359" type="line" smooth="yes"/>
      <point x="316" y="413"/>
      <point x="290" y="429"/>
      <point x="263" y="429" type="curve" smooth="yes"/>
      <point x="237" y="429"/>
      <point x="207" y="415"/>
      <point x="180" y="335" type="curve" smooth="yes"/>
      <point x="172" y="312"/>
      <point x="161" y="297"/>
      <point x="140" y="297" type="curve" smooth="yes"/>
      <point x="116" y="297"/>
      <point x="56" y="315"/>
      <point x="56" y="361" type="curve" smooth="yes"/>
      <point x="56" y="417"/>
      <point x="142" y="472"/>
      <point x="283" y="472" type="curve" smooth="yes"/>
      <point x="446" y="472"/>
      <point x="454" y="399"/>
      <point x="454" y="340" type="curve" smooth="yes"/>
      <point x="454" y="123" type="line" smooth="yes"/>
      <point x="454" y="66"/>
      <point x="467" y="46"/>
      <point x="514" y="46" type="curve" smooth="yes"/>
      <point x="517" y="46"/>
      <point x="529" y="47"/>
      <point x="532" y="48" type="curve"/>
      <point x="532" y="17" type="line"/>
      <point x="502" y="5"/>
      <point x="443" y="-11"/>
      <point x="401" y="-11" type="curve" smooth="yes"/>
      <point x="349" y="-11"/>
      <point x="332" y="14"/>
      <point x="320" y="43" type="curve"/>
      <point x="287" y="12"/>
      <point x="245" y="-11"/>
      <point x="185" y="-11" type="curve" smooth="yes"/>
      <point x="90" y="-11"/>
      <point x="45" y="56"/>
    </contour>
    <contour>
      <point x="188" y="128" type="curve"/>
      <point x="188" y="86"/>
      <point x="208" y="62"/>
      <point x="242" y="62" type="curve" smooth="yes"/>
      <point x="273" y="62"/>
      <point x="316" y="82"/>
      <point x="316" y="126" type="curve" smooth="yes"/>
      <point x="316" y="262" type="line"/>
      <point x="294" y="246"/>
      <point x="270" y="233"/>
      <point x="253" y="226" type="curve" smooth="yes"/>
      <point x="207" y="207"/>
      <point x="188" y="177"/>
    </contour>
  </outline>
</glyph>
<glyph name="b" format="2">
  <advance width="577"/>
  <unicode hex="0062"/>
  <anchor x="318" y="697" name="top"/>
  <anchor x="289" y="-40" name="bottom"/>
  <outline>
    <contour>
      <point x="19" y="638" type="line"/>
      <point x="19" y="672" type="line"/>
      <point x="211" y="697" type="line"/>
      <point x="217" y="691" type="line"/>
      <point x="217" y="407" type="line"/>
      <point x="261" y="441"/>
      <point x="307" y="472"/>
      <point x="367" y="472" type="curve" smooth="yes"/>
      <point x="460" y="472"/>
      <point x="543" y="399"/>
      <point x="543" y="246" type="curve" smooth="yes"/>
      <point x="543" y="34"/>
      <point x="430" y="-11"/>
      <point x="305" y="-11" type="curve" smooth="yes"/>
      <point x="235" y="-11"/>
      <point x="189" y="3"/>
      <point x="155" y="21" type="curve"/>
      <point x="105" y="-11" type="line"/>
      <point x="76" y="6" type="line"/>
      <point x="76" y="584" type="line" smooth="yes"/>
      <point x="76" y="622"/>
      <point x="67" y="630"/>
      <point x="52" y="633" type="curve"/>
    </contour>
    <contour>
      <point x="217" y="145" type="line" smooth="yes"/>
      <point x="217" y="87"/>
      <point x="221" y="32"/>
      <point x="289" y="32" type="curve" smooth="yes"/>
      <point x="367" y="32"/>
      <point x="393" y="105"/>
      <point x="393" y="219" type="curve" smooth="yes"/>
      <point x="393" y="376"/>
      <point x="344" y="400"/>
      <point x="298" y="400" type="curve" smooth="yes"/>
      <point x="230" y="400"/>
      <point x="217" y="347"/>
      <point x="217" y="293" type="curve" smooth="yes"/>
    </contour>
  </outline>
</glyph>
<glyph name="c" format="2">
  <advance width="474"/>
  <unicode hex="0063"/>
  <anchor x="303" y="10" name="b.cedilla"/>
  <anchor x="267" y="490" name="top"/>
  <outline>
    <contour>
      <point x="37" y="225" type="curve" smooth="yes"/>
      <point x="37" y="379"/>
      <point x="122" y="472"/>
      <point x="269" y="472" type="curve" smooth="yes"/>
      <point x="362" y="472"/>
      <point x="454" y="435"/>
      <point x="454" y="371" type="curve" smooth="yes"/>
      <point x="454" y="327"/>
      <point x="410" y="310"/>
      <point x="378" y="310" type="curve" smooth="yes"/>
      <point x="353" y="310"/>
      <point x="338" y="321"/>
      <point x="331" y="343" type="curve"/>
      <point x="315" y="399"/>
      <point x="299" y="429"/>
      <point x="268" y="429" type="curve" smooth="yes"/>
      <point x="227" y="429"/>
      <point x="186" y="375"/>
      <point x="186" y="251" type="curve" smooth="yes"/>
      <point x="186" y="102"/>
      <point x="246" y="61"/>
      <point x="311" y="61" type="curve" smooth="yes"/>
      <point x="359" y="61"/>
      <point x="396" y="83"/>
      <point x="428" y="147" type="curve"/>
      <point x="461" y="132" type="line"/>
      <point x="424" y="15"/>
      <point x="337" y="-11"/>
      <point x="260" y="-11" type="curve" smooth="yes"/>
      <point x="126" y="-11"/>
      <point x="37" y="68"/>
    </contour>
  </outline>
</glyph>
<glyph name="d" format="2">
  <advance width="577"/>
  <unicode hex="0064"/>
  <anchor x="539" y="743" name="t.r.caron"/>
  <anchor x="318" y="697" name="top"/>
  <anchor x="289" y="-40" name="bottom"/>
  <anchor x="303" y="10" name="b.cedilla"/>
  <outline>
    <contour>
      <point x="37" y="222" type="curve" smooth="yes"/>
      <point x="37" y="380"/>
      <point x="130" y="472"/>
      <point x="285" y="472" type="curve" smooth="yes"/>
      <point x="325" y="472"/>
      <point x="353" y="466"/>
      <point x="373" y="455" type="curve"/>
      <point x="504" y="455" type="line"/>
      <point x="504" y="47" type="line"/>
      <point x="363" y="47" type="line"/>
      <point x="317" y="11"/>
      <point x="266" y="-11"/>
      <point x="227" y="-11" type="curve" smooth="yes"/>
      <point x="112" y="-11"/>
      <point x="37" y="81"/>
    </contour>
    <contour>
      <point x="187" y="242" type="curve" smooth="yes"/>
      <point x="187" y="127"/>
      <point x="226" y="61"/>
      <point x="293" y="61" type="curve" smooth="yes"/>
      <point x="337" y="61"/>
      <point x="363" y="91"/>
      <point x="363" y="143" type="curve" smooth="yes"/>
      <point x="363" y="348" type="line" smooth="yes"/>
      <point x="363" y="399"/>
      <point x="337" y="429"/>
      <point x="294" y="429" type="curve" smooth="yes"/>
      <point x="228" y="429"/>
      <point x="187" y="359"/>
    </contour>
    <contour>
      <point x="504" y="445" type="line"/>
      <point x="363" y="445" type="line"/>
      <point x="363" y="584" type="line" smooth="yes"/>
      <point x="363" y="617"/>
      <point x="357" y="630"/>
      <point x="340" y="633" type="curve" smooth="yes"/>
      <point x="307" y="638" type="line"/>
      <point x="307" y="672" type="line"/>
      <point x="498" y="697" type="line"/>
      <point x="504" y="691" type="line"/>
    </contour>
    <contour>
      <point x="369" y="0" type="line"/>
      <point x="363" y="6" type="line"/>
      <point x="363" y="82" type="line"/>
      <point x="504" y="82" type="line"/>
      <point x="504" y="44"/>
      <point x="510" y="39"/>
      <point x="565" y="36" type="curve"/>
      <point x="565" y="0" type="line"/>
    </contour>
  </outline>
</glyph>
<glyph name="e" format="2">
  <advance width="496"/>
  <unicode hex="0065"/>
  <anchor x="274" y="490" name="top"/>
  <anchor x="340" y="0" name="b.ogonek"/>
  <anchor x="289" y="-40" name="bottom"/>
  <outline>
    <contour>
      <point x="37" y="228" type="curve" smooth="yes"/>
      <point x="37" y="362"/>
      <point x="100" y="472"/>
      <point x="272" y="472" type="curve" smooth="yes"/>
      <point x="450" y="472"/>
      <point x="480" y="353"/>
      <point x="480" y="276" type="curve" smooth="yes"/>
      <point x="480" y="246"/>
      <point x="464" y="237"/>
      <point x="430" y="237" type="curve" smooth="yes"/>
      <point x="186" y="237" type="line"/>
      <point x="186" y="138"/>
      <point x="219" y="61"/>
      <point x="312" y="61" type="curve" smooth="yes"/>
      <point x="370" y="61"/>
      <point x="410" y="91"/>
      <point x="438" y="145" type="curve"/>
      <point x="472" y="126" type="line"/>
      <point x="440" y="43"/>
      <point x="379" y="-11"/>
      <point x="262" y="-11" type="curve" smooth="yes"/>
      <point x="93" y="-11"/>
      <point x="37" y="102"/>
    </contour>
    <contour>
      <point x="186" y="282" type="curve"/>
      <point x="303" y="282" type="line" smooth="yes"/>
      <point x="325" y="282"/>
      <point x="332" y="287"/>
      <point x="332" y="319" type="curve" smooth="yes"/>
      <point x="332" y="357"/>
      <point x="322" y="429"/>
      <point x="265" y="429" type="curve" smooth="yes"/>
      <point x="204" y="429"/>
      <point x="186" y="350"/>
    </contour>
  </outline>
</glyph>
<glyph name="f" format="2">
  <advance width="330"/>
  <unicode hex="0066"/>
  <anchor x="255" y="717" name="top"/>
  <outline>
    <contour>
      <point x="31" y="0" type="line"/>
      <point x="31" y="36" type="line"/>
      <point x="85" y="39"/>
      <point x="91" y="43"/>
      <point x="91" y="82" type="curve" smooth="yes"/>
      <point x="91" y="414" type="line"/>
      <point x="32" y="414" type="line"/>
      <point x="32" y="461" type="line"/>
      <point x="91" y="461" type="line"/>
      <point x="91" y="501" type="line" smooth="yes"/>
      <point x="91" y="630"/>
      <point x="159" y="697"/>
      <point x="263" y="697" type="curve" smooth="yes"/>
      <point x="366" y="697"/>
      <point x="401" y="645"/>
      <point x="401" y="610" type="curve" smooth="yes"/>
      <point x="401" y="578"/>
      <point x="362" y="556"/>
      <point x="332" y="556" type="curve" smooth="yes"/>
      <point x="309" y="556"/>
      <point x="299" y="567"/>
      <point x="290" y="584" type="curve" smooth="yes"/>
      <point x="262" y="637"/>
      <point x="250" y="654"/>
      <point x="235" y="654" type="curve" smooth="yes"/>
      <point x="224" y="654"/>
      <point x="214" y="643"/>
      <point x="214" y="619" type="curve" smooth="yes"/>
      <point x="214" y="587"/>
      <point x="233" y="520"/>
      <point x="233" y="474" type="curve" smooth="yes"/>
      <point x="233" y="461" type="line"/>
      <point x="331" y="461" type="line"/>
      <point x="331" y="414" type="line"/>
      <point x="233" y="414" type="line"/>
      <point x="233" y="82" type="line" smooth="yes"/>
      <point x="233" y="43"/>
      <point x="242" y="39"/>
      <point x="309" y="36" type="curve"/>
      <point x="309" y="0" type="line"/>
    </contour>
  </outline>
</glyph>
<glyph name="g" format="2">
  <advance width="510"/>
  <unicode hex="0067"/>
  <anchor x="251" y="490" name="top"/>
  <outline>
    <contour>
      <point x="30" y="-90" type="line"/>
      <point x="30" y="-27"/>
      <point x="99" y="-10"/>
      <point x="138" y="-1" type="curve"/>
      <point x="138" y="1" type="line"/>
      <point x="97" y="10"/>
      <point x="51" y="48"/>
      <point x="51" y="89" type="curve" smooth="yes"/>
      <point x="51" y="127"/>
      <point x="91" y="161"/>
      <point x="152" y="176" type="curve"/>
      <point x="152" y="178" type="line"/>
      <point x="95" y="187"/>
      <point x="37" y="234"/>
      <point x="37" y="312" type="curve" smooth="yes"/>
      <point x="37" y="385"/>
      <point x="87" y="472"/>
      <point x="256" y="472" type="curve" smooth="yes"/>
      <point x="307" y="472"/>
      <point x="359" y="459"/>
      <point x="390" y="441" type="curve"/>
      <point x="509" y="481" type="line"/>
      <point x="518" y="471" type="line"/>
      <point x="499" y="400" type="line"/>
      <point x="437" y="389" type="line"/>
      <point x="449" y="373"/>
      <point x="460" y="344"/>
      <point x="460" y="316" type="curve" smooth="yes"/>
      <point x="460" y="204"/>
      <point x="360" y="164"/>
      <point x="249" y="164" type="curve" smooth="yes"/>
      <point x="238" y="164"/>
      <point x="224" y="163"/>
      <point x="206" y="165" type="curve"/>
      <point x="193" y="162"/>
      <point x="169" y="152"/>
      <point x="169" y="131" type="curve" smooth="yes"/>
      <point x="169" y="114"/>
      <point x="186" y="99"/>
      <point x="232" y="99" type="curve" smooth="yes"/>
      <point x="319" y="99" type="line" smooth="yes"/>
      <point x="418" y="99"/>
      <point x="505" y="64"/>
      <point x="505" y="-49" type="curve" smooth="yes"/>
      <point x="505" y="-117"/>
      <point x="470" y="-166"/>
      <point x="418" y="-193" type="curve"/>
      <point x="371" y="-219"/>
      <point x="303" y="-227"/>
      <point x="262" y="-227" type="curve" smooth="yes"/>
      <point x="128" y="-227"/>
      <point x="30" y="-181"/>
      <point x="30" y="-90" type="curve"/>
    </contour>
    <contour>
      <point x="155" y="-81" type="line"/>
      <point x="155" y="-148"/>
      <point x="213" y="-184"/>
      <point x="276" y="-184" type="curve" smooth="yes"/>
      <point x="339" y="-184"/>
      <point x="391" y="-157"/>
      <point x="391" y="-90" type="curve" smooth="yes"/>
      <point x="391" y="-33"/>
      <point x="343" y="-15"/>
      <point x="263" y="-15" type="curve" smooth="yes"/>
      <point x="222" y="-15"/>
      <point x="193" y="-20"/>
      <point x="180" y="-29" type="curve" smooth="yes"/>
      <point x="167" y="-38"/>
      <point x="155" y="-55"/>
      <point x="155" y="-81" type="curve"/>
    </contour>
    <contour>
      <point x="184" y="315" type="line"/>
      <point x="184" y="250"/>
      <point x="214" y="207"/>
      <point x="254" y="207" type="curve" smooth="yes"/>
      <point x="297" y="207"/>
      <point x="326" y="249"/>
      <point x="326" y="316" type="curve" smooth="yes"/>
      <point x="326" y="395"/>
      <point x="292" y="429"/>
      <point x="255" y="429" type="curve" smooth="yes"/>
      <point x="217" y="429"/>
      <point x="184" y="395"/>
      <point x="184" y="315" type="curve"/>
    </contour>
  </outline>
</glyph>
<glyph name="h" format="2">
  <advance width="599"/>
  <unicode hex="0068"/>
  <anchor x="318" y="697" name="top"/>
  <anchor x="306" y="-40" name="bottom"/>
  <outline>
    <contour>
      <point x="526" y="111" type="line"/>
      <point x="526" y="83" type="line" smooth="yes"/>
      <point x="526" y="44"/>
      <point x="532" y="40"/>
      <point x="586" y="37" type="curve"/>
      <point x="586" y="1" type="line"/>
      <point x="335" y="1" type="line"/>
      <point x="335" y="37" type="line"/>
      <point x="355" y="39" type="line" smooth="yes"/>
      <point x="375" y="41"/>
      <point x="385" y="44"/>
      <point x="385" y="75" type="curve" smooth="yes"/>
      <point x="385" y="111" type="line"/>
    </contour>
    <contour>
      <point x="185" y="289" type="line"/>
      <point x="185" y="408" type="line"/>
      <point x="225" y="408" type="line"/>
      <point x="282" y="449"/>
      <point x="326" y="473"/>
      <point x="387" y="473" type="curve" smooth="yes"/>
      <point x="480" y="473"/>
      <point x="526" y="415"/>
      <point x="526" y="327" type="curve" smooth="yes"/>
      <point x="526" y="0" type="line"/>
      <point x="385" y="0" type="line"/>
      <point x="385" y="313" type="line" smooth="yes"/>
      <point x="385" y="369"/>
      <point x="359" y="401"/>
      <point x="308" y="401" type="curve" smooth="yes"/>
      <point x="246" y="401"/>
      <point x="225" y="354"/>
      <point x="225" y="299" type="curve" smooth="yes"/>
      <point x="225" y="289" type="line"/>
    </contour>
    <contour>
      <point x="23" y="1" type="line"/>
      <point x="23" y="37" type="line"/>
      <point x="77" y="40"/>
      <point x="84" y="44"/>
      <point x="84" y="83" type="curve" smooth="yes"/>
      <point x="84" y="585" type="line" smooth="yes"/>
      <point x="84" y="623"/>
      <point x="77" y="632"/>
      <point x="62" y="634" type="curve" smooth="yes"/>
      <point x="30" y="639" type="line"/>
      <point x="30" y="673" type="line"/>
      <point x="215" y="698" type="line"/>
      <point x="223" y="692" type="line"/>
      <point x="223" y="408" type="line"/>
      <point x="225" y="408" type="line"/>
      <point x="225" y="75" type="line" smooth="yes"/>
      <point x="225" y="44"/>
      <point x="234" y="41"/>
      <point x="254" y="39" type="curve" smooth="yes"/>
      <point x="275" y="37" type="line"/>
      <point x="275" y="1" type="line"/>
    </contour>
  </outline>
</glyph>
<glyph name="k" format="2">
  <advance width="562"/>
  <unicode hex="006B"/>
  <anchor x="355" y="697" name="top"/>
  <anchor x="306" y="-40" name="bottom"/>
  <outline>
    <contour>
      <point x="23" y="0" type="line"/>
      <point x="23" y="36" type="line"/>
      <point x="77" y="39"/>
      <point x="84" y="43"/>
      <point x="84" y="82" type="curve" smooth="yes"/>
      <point x="84" y="584" type="line" smooth="yes"/>
      <point x="84" y="622"/>
      <point x="77" y="631"/>
      <point x="62" y="633" type="curve" smooth="yes"/>
      <point x="30" y="638" type="line"/>
      <point x="30" y="672" type="line"/>
      <point x="217" y="697" type="line"/>
      <point x="225" y="691" type="line"/>
      <point x="225" y="256" type="line"/>
      <point x="228" y="256" type="line"/>
      <point x="294" y="352" type="line" smooth="yes"/>
      <point x="319" y="389"/>
      <point x="368" y="461"/>
      <point x="408" y="461" type="curve" smooth="yes"/>
      <point x="544" y="461" type="line"/>
      <point x="544" y="431" type="line"/>
      <point x="465" y="414"/>
      <point x="408" y="372"/>
      <point x="358" y="324" type="curve" smooth="yes"/>
      <point x="337" y="304" type="line"/>
      <point x="375" y="244"/>
      <point x="498" y="59"/>
      <point x="562" y="30" type="curve"/>
      <point x="562" y="0" type="line"/>
      <point x="478" y="0" type="line" smooth="yes"/>
      <point x="409" y="0"/>
      <point x="372" y="12"/>
      <point x="339" y="55" type="curve" smooth="yes"/>
      <point x="296" y="112"/>
      <point x="261" y="177"/>
      <point x="228" y="239" type="curve"/>
      <point x="225" y="239" type="line"/>
      <point x="225" y="82" type="line" smooth="yes"/>
      <point x="225" y="43"/>
      <point x="231" y="39"/>
      <point x="285" y="36" type="curve"/>
      <point x="285" y="0" type="line"/>
    </contour>
  </outline>
</glyph>
<glyph name="l" format="2">
  <advance width="300"/>
  <unicode hex="006C"/>
  <anchor x="157" y="717" name="top"/>
  <anchor x="269" y="743" name="t.r.caron"/>
  <anchor x="156" y="-40" name="bottom"/>
  <outline>
    <contour>
      <point x="84" y="0" type="line"/>
      <point x="84" y="584" type="line" smooth="yes"/>
      <point x="84" y="622"/>
      <point x="77" y="631"/>
      <point x="62" y="633" type="curve" smooth="yes"/>
      <point x="30" y="638" type="line"/>
      <point x="30" y="672" type="line"/>
      <point x="219" y="697" type="line"/>
      <point x="225" y="691" type="line"/>
      <point x="225" y="0" type="line"/>
    </contour>
    <contour>
      <point x="23" y="0" type="line"/>
      <point x="23" y="36" type="line"/>
      <point x="77" y="39"/>
      <point x="84" y="43"/>
      <point x="84" y="82" type="curve" smooth="yes"/>
      <point x="84" y="110" type="line"/>
      <point x="225" y="110" type="line"/>
      <point x="225" y="82" type="line" smooth="yes"/>
      <point x="225" y="43"/>
      <point x="231" y="39"/>
      <point x="285" y="36" type="curve"/>
      <point x="285" y="0" type="line"/>
    </contour>
  </outline>
</glyph>
<glyph name="m" format="2">
  <advance width="901"/>
  <unicode hex="006D"/>
  <anchor x="460" y="490" name="top"/>
  <anchor x="459" y="-40" name="bottom"/>
  <outline>
    <contour>
      <point x="30" y="0" type="line"/>
      <point x="30" y="36" type="line"/>
      <point x="84" y="39"/>
      <point x="91" y="43"/>
      <point x="91" y="82" type="curve" smooth="yes"/>
      <point x="91" y="359" type="line" smooth="yes"/>
      <point x="91" y="397"/>
      <point x="83" y="404"/>
      <point x="68" y="406" type="curve" smooth="yes"/>
      <point x="35" y="411" type="line"/>
      <point x="35" y="445" type="line"/>
      <point x="220" y="472" type="line"/>
      <point x="232" y="407" type="line"/>
      <point x="278" y="445"/>
      <point x="328" y="472"/>
      <point x="389" y="472" type="curve" smooth="yes"/>
      <point x="459" y="472"/>
      <point x="497" y="435"/>
      <point x="516" y="401" type="curve"/>
      <point x="554" y="434"/>
      <point x="615" y="472"/>
      <point x="688" y="472" type="curve" smooth="yes"/>
      <point x="780" y="472"/>
      <point x="828" y="413"/>
      <point x="828" y="326" type="curve" smooth="yes"/>
      <point x="828" y="82" type="line" smooth="yes"/>
      <point x="828" y="43"/>
      <point x="834" y="39"/>
      <point x="888" y="36" type="curve"/>
      <point x="888" y="0" type="line"/>
      <point x="635" y="0" type="line"/>
      <point x="635" y="36" type="line"/>
      <point x="655" y="38" type="line" smooth="yes"/>
      <point x="675" y="40"/>
      <point x="685" y="43"/>
      <point x="685" y="74" type="curve" smooth="yes"/>
      <point x="685" y="309" type="line" smooth="yes"/>
      <point x="685" y="361"/>
      <point x="660" y="400"/>
      <point x="613" y="400" type="curve" smooth="yes"/>
      <point x="573" y="400"/>
      <point x="531" y="373"/>
      <point x="531" y="291" type="curve" smooth="yes"/>
      <point x="531" y="74" type="line" smooth="yes"/>
      <point x="531" y="43"/>
      <point x="541" y="40"/>
      <point x="561" y="38" type="curve" smooth="yes"/>
      <point x="580" y="36" type="line"/>
      <point x="580" y="0" type="line"/>
      <point x="338" y="0" type="line"/>
      <point x="338" y="36" type="line"/>
      <point x="357" y="38" type="line" smooth="yes"/>
      <point x="377" y="40"/>
      <point x="388" y="43"/>
      <point x="388" y="74" type="curve" smooth="yes"/>
      <point x="388" y="309" type="line" smooth="yes"/>
      <point x="388" y="361"/>
      <point x="366" y="400"/>
      <point x="319" y="400" type="curve" smooth="yes"/>
      <point x="279" y="400"/>
      <point x="232" y="373"/>
      <point x="232" y="291" type="curve" smooth="yes"/>
      <point x="232" y="74" type="line" smooth="yes"/>
      <point x="232" y="43"/>
      <point x="244" y="40"/>
      <point x="264" y="38" type="curve" smooth="yes"/>
      <point x="282" y="36" type="line"/>
      <point x="282" y="0" type="line"/>
    </contour>
  </outline>
</glyph>
<glyph name="n" format="2">
  <advance width="609"/>
  <unicode hex="006E"/>
  <anchor x="319" y="490" name="top"/>
  <anchor x="313" y="-40" name="bottom"/>
  <outline>
    <contour>
      <point x="344" y="0" type="line"/>
      <point x="344" y="36" type="line"/>
      <point x="364" y="38" type="line" smooth="yes"/>
      <point x="384" y="40"/>
      <point x="394" y="43"/>
      <point x="394" y="74" type="curve" smooth="yes"/>
      <point x="394" y="100" type="line"/>
      <point x="535" y="100" type="line"/>
      <point x="535" y="82" type="line" smooth="yes"/>
      <point x="535" y="43"/>
      <point x="543" y="39"/>
      <point x="597" y="36" type="curve"/>
      <point x="597" y="0" type="line"/>
    </contour>
    <contour>
      <point x="30" y="0" type="line"/>
      <point x="30" y="36" type="line"/>
      <point x="84" y="39"/>
      <point x="91" y="43"/>
      <point x="91" y="82" type="curve" smooth="yes"/>
      <point x="91" y="100" type="line"/>
      <point x="232" y="100" type="line"/>
      <point x="232" y="74" type="line" smooth="yes"/>
      <point x="232" y="43"/>
      <point x="244" y="40"/>
      <point x="264" y="38" type="curve" smooth="yes"/>
      <point x="282" y="36" type="line"/>
      <point x="282" y="0" type="line"/>
    </contour>
    <contour>
      <point x="91" y="0" type="line"/>
      <point x="91" y="359" type="line" smooth="yes"/>
      <point x="91" y="397"/>
      <point x="83" y="404"/>
      <point x="68" y="406" type="curve" smooth="yes"/>
      <point x="35" y="411" type="line"/>
      <point x="35" y="445" type="line"/>
      <point x="220" y="472" type="line"/>
      <point x="232" y="407" type="line"/>
      <point x="290" y="449"/>
      <point x="339" y="472"/>
      <point x="398" y="472" type="curve" smooth="yes"/>
      <point x="491" y="472"/>
      <point x="535" y="415"/>
      <point x="535" y="327" type="curve" smooth="yes"/>
      <point x="535" y="0" type="line"/>
      <point x="394" y="0" type="line"/>
      <point x="394" y="314" type="line" smooth="yes"/>
      <point x="394" y="370"/>
      <point x="367" y="400"/>
      <point x="319" y="400" type="curve" smooth="yes"/>
      <point x="259" y="400"/>
      <point x="232" y="351"/>
      <point x="232" y="298" type="curve" smooth="yes"/>
      <point x="232" y="0" type="line"/>
    </contour>
  </outline>
</glyph>
<glyph name="o" format="2">
  <advance width="559"/>
  <unicode hex="006F"/>
  <anchor x="280" y="490" name="top"/>
  <anchor x="280" y="-40" name="bottom"/>
  <outline>
    <contour>
      <point x="37" y="230" type="curve" smooth="yes"/>
      <point x="37" y="380"/>
      <point x="109" y="472"/>
      <point x="280" y="472" type="curve" smooth="yes"/>
      <point x="451" y="472"/>
      <point x="524" y="380"/>
      <point x="524" y="230" type="curve" smooth="yes"/>
      <point x="524" y="80"/>
      <point x="451" y="-11"/>
      <point x="280" y="-11" type="curve" smooth="yes"/>
      <point x="109" y="-11"/>
      <point x="37" y="80"/>
    </contour>
    <contour>
      <point x="186" y="230" type="curve" smooth="yes"/>
      <point x="186" y="104"/>
      <point x="213" y="32"/>
      <point x="280" y="32" type="curve" smooth="yes"/>
      <point x="347" y="32"/>
      <point x="374" y="104"/>
      <point x="374" y="230" type="curve" smooth="yes"/>
      <point x="374" y="356"/>
      <point x="347" y="429"/>
      <point x="280" y="429" type="curve" smooth="yes"/>
      <point x="213" y="429"/>
      <point x="186" y="356"/>
    </contour>
  </outline>
</glyph>
<glyph name="p" format="2">
  <advance width="588"/>
  <unicode hex="0070"/>
  <anchor x="319" y="490" name="top"/>
  <outline>
    <contour>
      <point x="23" y="-180" type="line"/>
      <point x="77" y="-177"/>
      <point x="84" y="-173"/>
      <point x="84" y="-134" type="curve" smooth="yes"/>
      <point x="84" y="359" type="line" smooth="yes"/>
      <point x="84" y="397"/>
      <point x="77" y="404"/>
      <point x="62" y="406" type="curve" smooth="yes"/>
      <point x="30" y="411" type="line"/>
      <point x="30" y="445" type="line"/>
      <point x="210" y="472" type="line"/>
      <point x="227" y="407" type="line"/>
      <point x="273" y="442"/>
      <point x="315" y="472"/>
      <point x="375" y="472" type="curve" smooth="yes"/>
      <point x="469" y="472"/>
      <point x="551" y="399"/>
      <point x="551" y="243" type="curve" smooth="yes"/>
      <point x="551" y="37"/>
      <point x="439" y="-11"/>
      <point x="300" y="-11" type="curve" smooth="yes"/>
      <point x="274" y="-11"/>
      <point x="243" y="-7"/>
      <point x="227" y="0" type="curve"/>
      <point x="227" y="-134" type="line" smooth="yes"/>
      <point x="227" y="-173"/>
      <point x="235" y="-177"/>
      <point x="304" y="-180" type="curve"/>
      <point x="304" y="-216" type="line"/>
      <point x="23" y="-216" type="line"/>
    </contour>
    <contour>
      <point x="227" y="143" type="line" smooth="yes"/>
      <point x="227" y="90"/>
      <point x="237" y="32"/>
      <point x="302" y="32" type="curve" smooth="yes"/>
      <point x="376" y="32"/>
      <point x="402" y="106"/>
      <point x="402" y="219" type="curve" smooth="yes"/>
      <point x="402" y="375"/>
      <point x="353" y="400"/>
      <point x="308" y="400" type="curve" smooth="yes"/>
      <point x="241" y="400"/>
      <point x="227" y="345"/>
      <point x="227" y="291" type="curve" smooth="yes"/>
    </contour>
  </outline>
</glyph>
<glyph name="q" format="2">
  <advance width="571"/>
  <unicode hex="0071"/>
  <outline>
    <contour>
      <point x="37" y="224" type="curve" smooth="yes"/>
      <point x="37" y="380"/>
      <point x="129" y="472"/>
      <point x="285" y="472" type="curve" smooth="yes"/>
      <point x="342" y="472"/>
      <point x="388" y="460"/>
      <point x="420" y="443" type="curve"/>
      <point x="461" y="472" type="line"/>
      <point x="504" y="472" type="line"/>
      <point x="504" y="-134" type="line" smooth="yes"/>
      <point x="504" y="-173"/>
      <point x="511" y="-177"/>
      <point x="565" y="-180" type="curve"/>
      <point x="565" y="-216" type="line"/>
      <point x="293" y="-216" type="line"/>
      <point x="293" y="-180" type="line"/>
      <point x="356" y="-177"/>
      <point x="363" y="-173"/>
      <point x="363" y="-134" type="curve" smooth="yes"/>
      <point x="363" y="44" type="line"/>
      <point x="314" y="1"/>
      <point x="273" y="-11"/>
      <point x="231" y="-11" type="curve" smooth="yes"/>
      <point x="111" y="-11"/>
      <point x="37" y="84"/>
    </contour>
    <contour>
      <point x="294" y="61" type="curve" smooth="yes"/>
      <point x="350" y="61"/>
      <point x="363" y="105"/>
      <point x="363" y="143" type="curve" smooth="yes"/>
      <point x="363" y="332" type="line" smooth="yes"/>
      <point x="363" y="381"/>
      <point x="355" y="429"/>
      <point x="299" y="429" type="curve" smooth="yes"/>
      <point x="235" y="429"/>
      <point x="187" y="368"/>
      <point x="187" y="240" type="curve" smooth="yes"/>
      <point x="187" y="121"/>
      <point x="228" y="61"/>
    </contour>
  </outline>
</glyph>
<glyph name="r" format="2">
  <advance width="423"/>
  <unicode hex="0072"/>
  <anchor x="231" y="490" name="top"/>
  <anchor x="169" y="-40" name="bottom"/>
  <outline>
    <contour>
      <point x="30" y="0" type="line"/>
      <point x="30" y="36" type="line"/>
      <point x="84" y="39"/>
      <point x="91" y="43"/>
      <point x="91" y="82" type="curve" smooth="yes"/>
      <point x="91" y="110" type="line"/>
      <point x="232" y="110" type="line"/>
      <point x="232" y="82" type="line" smooth="yes"/>
      <point x="232" y="43"/>
      <point x="242" y="40"/>
      <point x="314" y="36" type="curve"/>
      <point x="314" y="0" type="line"/>
    </contour>
    <contour>
      <point x="91" y="0" type="line"/>
      <point x="91" y="359" type="line" smooth="yes"/>
      <point x="91" y="397"/>
      <point x="83" y="404"/>
      <point x="68" y="406" type="curve" smooth="yes"/>
      <point x="35" y="411" type="line"/>
      <point x="35" y="445" type="line"/>
      <point x="218" y="472" type="line"/>
      <point x="231" y="389" type="line"/>
      <point x="286" y="446"/>
      <point x="316" y="472"/>
      <point x="355" y="472" type="curve" smooth="yes"/>
      <point x="394" y="472"/>
      <point x="420" y="446"/>
      <point x="420" y="403" type="curve" smooth="yes"/>
      <point x="420" y="367"/>
      <point x="401" y="328"/>
      <point x="357" y="328" type="curve" smooth="yes"/>
      <point x="339" y="328"/>
      <point x="327" y="335"/>
      <point x="316" y="342" type="curve" smooth="yes"/>
      <point x="294" y="356"/>
      <point x="279" y="363"/>
      <point x="265" y="363" type="curve" smooth="yes"/>
      <point x="241" y="363"/>
      <point x="232" y="340"/>
      <point x="232" y="291" type="curve" smooth="yes"/>
      <point x="232" y="0" type="line"/>
    </contour>
  </outline>
</glyph>
<glyph name="s" format="2">
  <advance width="451"/>
  <unicode hex="0073"/>
  <anchor x="223" y="490" name="top"/>
  <anchor x="210" y="-40" name="bottom"/>
  <anchor x="247" y="10" name="b.cedilla"/>
  <outline>
    <contour>
      <point x="52" y="174" type="line"/>
      <point x="88" y="174" type="line"/>
      <point x="112" y="97"/>
      <point x="163" y="32"/>
      <point x="229" y="32" type="curve" smooth="yes"/>
      <point x="266" y="32"/>
      <point x="290" y="53"/>
      <point x="290" y="87" type="curve" smooth="yes"/>
      <point x="290" y="134"/>
      <point x="243" y="162"/>
      <point x="190" y="181" type="curve" smooth="yes"/>
      <point x="112" y="210"/>
      <point x="57" y="254"/>
      <point x="57" y="331" type="curve" smooth="yes"/>
      <point x="57" y="418"/>
      <point x="128" y="472"/>
      <point x="244" y="472" type="curve" smooth="yes"/>
      <point x="292" y="472"/>
      <point x="345" y="463"/>
      <point x="384" y="439" type="curve"/>
      <point x="384" y="314" type="line"/>
      <point x="349" y="314" type="line"/>
      <point x="331" y="385"/>
      <point x="291" y="429"/>
      <point x="242" y="429" type="curve" smooth="yes"/>
      <point x="204" y="429"/>
      <point x="183" y="403"/>
      <point x="183" y="374" type="curve" smooth="yes"/>
      <point x="183" y="336"/>
      <point x="223" y="313"/>
      <point x="278" y="293" type="curve" smooth="yes"/>
      <point x="364" y="262"/>
      <point x="416" y="222"/>
      <point x="416" y="140" type="curve" smooth="yes"/>
      <point x="416" y="39"/>
      <point x="338" y="-11"/>
      <point x="225" y="-11" type="curve" smooth="yes"/>
      <point x="170" y="-11"/>
      <point x="99" y="1"/>
      <point x="63" y="34" type="curve"/>
    </contour>
  </outline>
</glyph>
<glyph name="t" format="2">
  <advance width="357"/>
  <unicode hex="0074"/>
  <anchor x="187" y="650" name="top"/>
  <anchor x="188" y="-40" name="bottom"/>
  <anchor x="235" y="10" name="b.cedilla"/>
  <anchor x="269" y="743" name="t.r.caron"/>
  <outline>
    <contour>
      <point x="35" y="414" type="line"/>
      <point x="35" y="461" type="line"/>
      <point x="95" y="461" type="line"/>
      <point x="178" y="579" type="line"/>
      <point x="231" y="579" type="line"/>
      <point x="231" y="461" type="line"/>
      <point x="329" y="461" type="line"/>
      <point x="329" y="414" type="line"/>
      <point x="231" y="414" type="line"/>
      <point x="231" y="146" type="line" smooth="yes"/>
      <point x="231" y="86"/>
      <point x="256" y="59"/>
      <point x="297" y="59" type="curve" smooth="yes"/>
      <point x="313" y="59"/>
      <point x="332" y="63"/>
      <point x="345" y="69" type="curve"/>
      <point x="355" y="39" type="line"/>
      <point x="302" y="6"/>
      <point x="244" y="-11"/>
      <point x="206" y="-11" type="curve" smooth="yes"/>
      <point x="152" y="-11"/>
      <point x="90" y="24"/>
      <point x="90" y="110" type="curve" smooth="yes"/>
      <point x="90" y="414" type="line"/>
    </contour>
  </outline>
</glyph>
<glyph name="u" format="2">
  <advance width="601"/>
  <unicode hex="0075"/>
  <anchor x="304" y="490" name="top"/>
  <anchor x="304" y="490" name="t.ring"/>
  <anchor x="303" y="-40" name="bottom"/>
  <outline>
    <contour>
      <point x="28" y="411" type="line"/>
      <point x="28" y="445" type="line"/>
      <point x="216" y="472" type="line"/>
      <point x="223" y="466" type="line"/>
      <point x="223" y="165" type="line" smooth="yes"/>
      <point x="223" y="92"/>
      <point x="253" y="63"/>
      <point x="305" y="63" type="curve" smooth="yes"/>
      <point x="368" y="63"/>
      <point x="385" y="105"/>
      <point x="385" y="160" type="curve" smooth="yes"/>
      <point x="385" y="359" type="line" smooth="yes"/>
      <point x="385" y="397"/>
      <point x="378" y="404"/>
      <point x="363" y="406" type="curve" smooth="yes"/>
      <point x="330" y="411" type="line"/>
      <point x="330" y="445" type="line"/>
      <point x="518" y="472" type="line"/>
      <point x="526" y="466" type="line"/>
      <point x="526" y="82" type="line" smooth="yes"/>
      <point x="526" y="43"/>
      <point x="532" y="39"/>
      <point x="586" y="36" type="curve"/>
      <point x="586" y="0" type="line"/>
      <point x="393" y="0" type="line"/>
      <point x="385" y="53" type="line"/>
      <point x="349" y="25"/>
      <point x="298" y="-11"/>
      <point x="221" y="-11" type="curve" smooth="yes"/>
      <point x="150" y="-11"/>
      <point x="82" y="20"/>
      <point x="82" y="130" type="curve" smooth="yes"/>
      <point x="82" y="359" type="line" smooth="yes"/>
      <point x="82" y="397"/>
      <point x="76" y="404"/>
      <point x="61" y="406" type="curve" smooth="yes"/>
    </contour>
  </outline>
</glyph>
<glyph name="v" format="2">
  <advance width="497"/>
  <unicode hex="0076"/>
  <anchor x="269" y="490" name="top"/>
  <anchor x="254" y="-40" name="bottom"/>
  <outline>
    <contour>
      <point x="201" y="0" type="line"/>
      <point x="128" y="202" type="line" smooth="yes"/>
      <point x="105" y="263"/>
      <point x="82" y="324"/>
      <point x="60" y="384" type="curve" smooth="yes"/>
      <point x="49" y="414"/>
      <point x="34" y="423"/>
      <point x="-3" y="426" type="curve"/>
      <point x="-3" y="461" type="line"/>
      <point x="247" y="461" type="line"/>
      <point x="247" y="426" type="line"/>
      <point x="213" y="420" type="line"/>
      <point x="201" y="417"/>
      <point x="196" y="414"/>
      <point x="196" y="406" type="curve" smooth="yes"/>
      <point x="196" y="402"/>
      <point x="197" y="398"/>
      <point x="199" y="393" type="curve"/>
      <point x="291" y="124" type="line"/>
      <point x="296" y="124" type="line"/>
      <point x="333" y="235" type="line" smooth="yes"/>
      <point x="341" y="259"/>
      <point x="382" y="392"/>
      <point x="382" y="406" type="curve" smooth="yes"/>
      <point x="382" y="411"/>
      <point x="377" y="416"/>
      <point x="364" y="419" type="curve"/>
      <point x="324" y="426" type="line"/>
      <point x="324" y="461" type="line"/>
      <point x="518" y="461" type="line"/>
      <point x="518" y="426" type="line"/>
      <point x="479" y="423"/>
      <point x="469" y="417"/>
      <point x="451" y="380" type="curve" smooth="yes"/>
      <point x="436" y="350"/>
      <point x="412" y="292"/>
      <point x="386" y="222" type="curve" smooth="yes"/>
      <point x="304" y="0" type="line"/>
    </contour>
  </outline>
</glyph>
<glyph name="w" format="2">
  <advance width="737"/>
  <unicode hex="0077"/>
  <anchor x="393" y="490" name="top"/>
  <anchor x="379" y="-40" name="bottom"/>
  <anchor x="409" y="509" name="t.ring"/>
  <outline>
    <contour>
      <point x="-3" y="461" type="line"/>
      <point x="240" y="461" type="line"/>
      <point x="240" y="426" type="line"/>
      <point x="214" y="422" type="line" smooth="yes"/>
      <point x="200" y="420"/>
      <point x="194" y="416"/>
      <point x="194" y="406" type="curve" smooth="yes"/>
      <point x="194" y="402"/>
      <point x="195" y="397"/>
      <point x="197" y="391" type="curve"/>
      <point x="268" y="133" type="line"/>
      <point x="271" y="133" type="line"/>
      <point x="359" y="461" type="line"/>
      <point x="457" y="461" type="line"/>
      <point x="554" y="133" type="line"/>
      <point x="559" y="133" type="line"/>
      <point x="587" y="242" type="line" smooth="yes"/>
      <point x="602" y="302"/>
      <point x="613" y="349"/>
      <point x="616" y="362" type="curve"/>
      <point x="618" y="373"/>
      <point x="622" y="397"/>
      <point x="622" y="405" type="curve" smooth="yes"/>
      <point x="622" y="412"/>
      <point x="618" y="417"/>
      <point x="605" y="419" type="curve" smooth="yes"/>
      <point x="564" y="426" type="line"/>
      <point x="564" y="461" type="line"/>
      <point x="760" y="461" type="line"/>
      <point x="760" y="426" type="line"/>
      <point x="712" y="422"/>
      <point x="705" y="415"/>
      <point x="690" y="378" type="curve" smooth="yes"/>
      <point x="677" y="344"/>
      <point x="657" y="285"/>
      <point x="637" y="220" type="curve" smooth="yes"/>
      <point x="569" y="0" type="line"/>
      <point x="466" y="0" type="line"/>
      <point x="372" y="289" type="line"/>
      <point x="368" y="289" type="line"/>
      <point x="282" y="0" type="line"/>
      <point x="180" y="0" type="line"/>
      <point x="99" y="249" type="line" smooth="yes"/>
      <point x="89" y="281"/>
      <point x="74" y="327"/>
      <point x="55" y="384" type="curve" smooth="yes"/>
      <point x="44" y="416"/>
      <point x="35" y="422"/>
      <point x="-3" y="426" type="curve"/>
    </contour>
  </outline>
</glyph>
<glyph name="x" format="2">
  <advance width="500"/>
  <unicode hex="0078"/>
  <anchor x="276" y="490" name="top"/>
  <outline>
    <contour>
      <point x="-9" y="0" type="line"/>
      <point x="-9" y="36" type="line"/>
      <point x="40" y="42"/>
      <point x="58" y="47"/>
      <point x="87" y="82" type="curve" smooth="yes"/>
      <point x="195" y="213" type="line"/>
      <point x="69" y="390" type="line" smooth="yes"/>
      <point x="50" y="416"/>
      <point x="40" y="421"/>
      <point x="-1" y="426" type="curve"/>
      <point x="-1" y="461" type="line"/>
      <point x="245" y="461" type="line"/>
      <point x="245" y="426" type="line"/>
      <point x="222" y="421" type="line"/>
      <point x="216" y="419"/>
      <point x="213" y="416"/>
      <point x="213" y="412" type="curve" smooth="yes"/>
      <point x="213" y="409"/>
      <point x="214" y="405"/>
      <point x="217" y="401" type="curve"/>
      <point x="276" y="312" type="line"/>
      <point x="279" y="312" type="line"/>
      <point x="333" y="396" type="line"/>
      <point x="338" y="403"/>
      <point x="340" y="409"/>
      <point x="340" y="413" type="curve" smooth="yes"/>
      <point x="340" y="418"/>
      <point x="336" y="421"/>
      <point x="329" y="422" type="curve" smooth="yes"/>
      <point x="304" y="426" type="line"/>
      <point x="304" y="461" type="line"/>
      <point x="490" y="461" type="line"/>
      <point x="490" y="426" type="line"/>
      <point x="450" y="423"/>
      <point x="431" y="415"/>
      <point x="410" y="391" type="curve" smooth="yes"/>
      <point x="306" y="272" type="line"/>
      <point x="439" y="82" type="line" smooth="yes"/>
      <point x="464" y="46"/>
      <point x="482" y="39"/>
      <point x="522" y="36" type="curve"/>
      <point x="522" y="0" type="line"/>
      <point x="262" y="0" type="line"/>
      <point x="262" y="36" type="line"/>
      <point x="281" y="39" type="line" smooth="yes"/>
      <point x="292" y="41"/>
      <point x="299" y="45"/>
      <point x="299" y="53" type="curve" smooth="yes"/>
      <point x="299" y="56"/>
      <point x="298" y="61"/>
      <point x="295" y="65" type="curve"/>
      <point x="226" y="170" type="line"/>
      <point x="223" y="170" type="line"/>
      <point x="159" y="69" type="line"/>
      <point x="154" y="62"/>
      <point x="152" y="57"/>
      <point x="152" y="52" type="curve" smooth="yes"/>
      <point x="152" y="45"/>
      <point x="157" y="41"/>
      <point x="166" y="40" type="curve" smooth="yes"/>
      <point x="199" y="36" type="line"/>
      <point x="199" y="0" type="line"/>
    </contour>
  </outline>
</glyph>
<glyph name="y" format="2">
  <advance width="502"/>
  <unicode hex="0079"/>
  <anchor x="291" y="490" name="top"/>
  <anchor x="245" y="509" name="t.ring"/>
  <anchor x="418" y="-90" name="bottom"/>
  <outline>
    <contour>
      <point x="-5" y="426" type="line"/>
      <point x="-5" y="461" type="line"/>
      <point x="257" y="461" type="line"/>
      <point x="257" y="426" type="line"/>
      <point x="221" y="419" type="line" smooth="yes"/>
      <point x="211" y="417"/>
      <point x="207" y="413"/>
      <point x="207" y="405" type="curve" smooth="yes"/>
      <point x="207" y="401"/>
      <point x="208" y="395"/>
      <point x="211" y="388" type="curve"/>
      <point x="305" y="126" type="line"/>
      <point x="308" y="126" type="line"/>
      <point x="393" y="391" type="line"/>
      <point x="394" y="396"/>
      <point x="395" y="400"/>
      <point x="395" y="403" type="curve" smooth="yes"/>
      <point x="395" y="413"/>
      <point x="389" y="418"/>
      <point x="379" y="419" type="curve"/>
      <point x="340" y="426" type="line"/>
      <point x="340" y="461" type="line"/>
      <point x="530" y="461" type="line"/>
      <point x="530" y="426" type="line"/>
      <point x="510" y="423" type="line" smooth="yes"/>
      <point x="484" y="419"/>
      <point x="471" y="402"/>
      <point x="455" y="362" type="curve" smooth="yes"/>
      <point x="289" y="-56" type="line" smooth="yes"/>
      <point x="236" y="-190"/>
      <point x="196" y="-227"/>
      <point x="139" y="-227" type="curve" smooth="yes"/>
      <point x="95" y="-227"/>
      <point x="54" y="-205"/>
      <point x="54" y="-166" type="curve" smooth="yes"/>
      <point x="54" y="-132"/>
      <point x="84" y="-91"/>
      <point x="116" y="-91" type="curve" smooth="yes"/>
      <point x="130" y="-91"/>
      <point x="138" y="-99"/>
      <point x="149" y="-108" type="curve"/>
      <point x="167" y="-121"/>
      <point x="180" y="-126"/>
      <point x="190" y="-126" type="curve" smooth="yes"/>
      <point x="217" y="-126"/>
      <point x="230" y="-85"/>
      <point x="230" y="-62" type="curve" smooth="yes"/>
      <point x="230" y="-48"/>
      <point x="226" y="-32"/>
      <point x="221" y="-18" type="curve"/>
      <point x="61" y="382" type="line" smooth="yes"/>
      <point x="51" y="408"/>
      <point x="40" y="417"/>
      <point x="26" y="420" type="curve" smooth="yes"/>
    </contour>
  </outline>
</glyph>
<glyph name="z" format="2">
  <advance width="463"/>
  <unicode hex="007A"/>
  <anchor x="264" y="490" name="top"/>
  <anchor x="233" y="-40" name="bottom"/>
  <outline>
    <contour>
      <point x="4" y="20" type="line"/>
      <point x="277" y="417" type="line"/>
      <point x="199" y="417" type="line" smooth="yes"/>
      <point x="110" y="417"/>
      <point x="101" y="381"/>
      <point x="82" y="303" type="curve"/>
      <point x="46" y="303" type="line"/>
      <point x="46" y="461" type="line"/>
      <point x="443" y="461" type="line"/>
      <point x="452" y="441" type="line"/>
      <point x="181" y="43" type="line"/>
      <point x="272" y="43" type="line" smooth="yes"/>
      <point x="370" y="43"/>
      <point x="393" y="72"/>
      <point x="420" y="169" type="curve"/>
      <point x="456" y="169" type="line"/>
      <point x="446" y="0" type="line"/>
      <point x="15" y="0" type="line"/>
    </contour>
  </outline>
</glyph>
<glyph name="braceleft" format="2">
  <advance width="387"/>
  <unicode hex="007B"/>
  <outline>
    <contour>
      <point x="51" y="297" type="line"/>
      <point x="134" y="297"/>
      <point x="151" y="322"/>
      <point x="151" y="368" type="curve" smooth="yes"/>
      <point x="151" y="374"/>
      <point x="149" y="404"/>
      <point x="147" y="425" type="curve" smooth="yes"/>
      <point x="137" y="532" type="line" smooth="yes"/>
      <point x="135" y="550"/>
      <point x="134" y="569"/>
      <point x="134" y="588" type="curve" smooth="yes"/>
      <point x="134" y="668"/>
      <point x="159" y="745"/>
      <point x="289" y="745" type="curve" smooth="yes"/>
      <point x="337" y="745" type="line"/>
      <point x="337" y="708" type="line"/>
      <point x="262" y="704"/>
      <point x="244" y="668"/>
      <point x="244" y="613" type="curve" smooth="yes"/>
      <point x="244" y="599"/>
      <point x="244" y="586"/>
      <point x="246" y="572" type="curve" smooth="yes"/>
      <point x="257" y="483" type="line" smooth="yes"/>
      <point x="261" y="453"/>
      <point x="263" y="427"/>
      <point x="263" y="405" type="curve" smooth="yes"/>
      <point x="263" y="333"/>
      <point x="238" y="300"/>
      <point x="153" y="282" type="curve"/>
      <point x="153" y="274" type="line"/>
      <point x="238" y="256"/>
      <point x="263" y="218"/>
      <point x="263" y="147" type="curve" smooth="yes"/>
      <point x="263" y="128"/>
      <point x="261" y="107"/>
      <point x="258" y="84" type="curve" smooth="yes"/>
      <point x="246" y="-20" type="line"/>
      <point x="245" y="-27"/>
      <point x="244" y="-45"/>
      <point x="244" y="-56" type="curve" smooth="yes"/>
      <point x="244" y="-111"/>
      <point x="262" y="-147"/>
      <point x="337" y="-151" type="curve"/>
      <point x="337" y="-189" type="line"/>
      <point x="289" y="-189" type="line" smooth="yes"/>
      <point x="160" y="-189"/>
      <point x="133" y="-114"/>
      <point x="133" y="-35" type="curve" smooth="yes"/>
      <point x="133" y="-15"/>
      <point x="135" y="4"/>
      <point x="137" y="23" type="curve" smooth="yes"/>
      <point x="148" y="131" type="line" smooth="yes"/>
      <point x="149" y="144"/>
      <point x="150" y="157"/>
      <point x="150" y="168" type="curve" smooth="yes"/>
      <point x="150" y="226"/>
      <point x="124" y="259"/>
      <point x="51" y="259" type="curve"/>
    </contour>
  </outline>
</glyph>
<glyph name="bar" format="2">
  <advance width="276"/>
  <unicode hex="007C"/>
  <outline>
    <contour>
      <point x="93" y="-235" type="line"/>
      <point x="93" y="705" type="line"/>
      <point x="183" y="705" type="line"/>
      <point x="183" y="-235" type="line"/>
    </contour>
  </outline>
</glyph>
<glyph name="braceright" format="2">
  <advance width="393"/>
  <unicode hex="007D"/>
  <outline>
    <contour>
      <point x="305" y="259" type="line"/>
      <point x="231" y="259"/>
      <point x="203" y="225"/>
      <point x="203" y="165" type="curve" smooth="yes"/>
      <point x="203" y="155"/>
      <point x="204" y="143"/>
      <point x="205" y="131" type="curve"/>
      <point x="217" y="23" type="line" smooth="yes"/>
      <point x="219" y="4"/>
      <point x="221" y="-15"/>
      <point x="221" y="-34" type="curve" smooth="yes"/>
      <point x="221" y="-113"/>
      <point x="193" y="-189"/>
      <point x="64" y="-189" type="curve" smooth="yes"/>
      <point x="19" y="-189" type="line"/>
      <point x="19" y="-151" type="line"/>
      <point x="92" y="-147"/>
      <point x="109" y="-113"/>
      <point x="109" y="-60" type="curve" smooth="yes"/>
      <point x="109" y="-46"/>
      <point x="108" y="-31"/>
      <point x="106" y="-15" type="curve" smooth="yes"/>
      <point x="94" y="95" type="line" smooth="yes"/>
      <point x="92" y="115"/>
      <point x="90" y="136"/>
      <point x="90" y="156" type="curve" smooth="yes"/>
      <point x="90" y="211"/>
      <point x="110" y="255"/>
      <point x="202" y="274" type="curve"/>
      <point x="202" y="282" type="line"/>
      <point x="110" y="301"/>
      <point x="90" y="345"/>
      <point x="90" y="400" type="curve" smooth="yes"/>
      <point x="90" y="420"/>
      <point x="92" y="441"/>
      <point x="94" y="461" type="curve" smooth="yes"/>
      <point x="106" y="572" type="line" smooth="yes"/>
      <point x="108" y="588"/>
      <point x="109" y="603"/>
      <point x="109" y="617" type="curve" smooth="yes"/>
      <point x="109" y="670"/>
      <point x="92" y="704"/>
      <point x="19" y="708" type="curve"/>
      <point x="19" y="745" type="line"/>
      <point x="64" y="745" type="line" smooth="yes"/>
      <point x="193" y="745"/>
      <point x="221" y="668"/>
      <point x="221" y="589" type="curve" smooth="yes"/>
      <point x="221" y="570"/>
      <point x="219" y="551"/>
      <point x="217" y="532" type="curve" smooth="yes"/>
      <point x="204" y="425" type="line" smooth="yes"/>
      <point x="201" y="404"/>
      <point x="201" y="386"/>
      <point x="201" y="370" type="curve" smooth="yes"/>
      <point x="201" y="323"/>
      <point x="221" y="297"/>
      <point x="305" y="297" type="curve"/>
    </contour>
  </outline>
</glyph>
<glyph name="asciitilde" format="2">
  <advance width="574"/>
  <unicode hex="007E"/>
  <outline>
    <contour>
      <point x="52" y="174" type="line"/>
      <point x="75" y="228"/>
      <point x="112" y="305"/>
      <point x="198" y="305" type="curve" smooth="yes"/>
      <point x="232" y="305"/>
      <point x="265" y="291"/>
      <point x="297" y="278" type="curve"/>
      <point x="329" y="264"/>
      <point x="361" y="251"/>
      <point x="390" y="251" type="curve" smooth="yes"/>
      <point x="423" y="251"/>
      <point x="445" y="268"/>
      <point x="472" y="319" type="curve"/>
      <point x="523" y="291" type="line"/>
      <point x="497" y="229"/>
      <point x="459" y="167"/>
      <point x="377" y="167" type="curve" smooth="yes"/>
      <point x="337" y="167"/>
      <point x="305" y="181"/>
      <point x="276" y="195" type="curve"/>
      <point x="246" y="208"/>
      <point x="218" y="221"/>
      <point x="183" y="221" type="curve" smooth="yes"/>
      <point x="151" y="221"/>
      <point x="128" y="197"/>
      <point x="105" y="149" type="curve"/>
    </contour>
  </outline>
</glyph>
<glyph name="exclamdown" format="2">
  <advance width="271"/>
  <unicode hex="00A1"/>
  <outline>
    <contour>
      <point x="49" y="384" type="line"/>
      <point x="49" y="436"/>
      <point x="84" y="472"/>
      <point x="136" y="472" type="curve" smooth="yes"/>
      <point x="189" y="472"/>
      <point x="220" y="436"/>
      <point x="222" y="384" type="curve"/>
      <point x="222" y="333"/>
      <point x="189" y="297"/>
      <point x="136" y="297" type="curve" smooth="yes"/>
      <point x="84" y="297"/>
      <point x="49" y="333"/>
      <point x="49" y="384" type="curve"/>
    </contour>
    <contour>
      <point x="59" y="-96" type="line"/>
      <point x="106" y="255" type="line"/>
      <point x="166" y="255" type="line"/>
      <point x="214" y="-96" type="line" smooth="yes"/>
      <point x="224" y="-170"/>
      <point x="217" y="-204"/>
      <point x="136" y="-204" type="curve" smooth="yes"/>
      <point x="54" y="-204"/>
      <point x="49" y="-170"/>
      <point x="59" y="-96" type="curve"/>
    </contour>
  </outline>
</glyph>
<glyph name="cent" format="2">
  <advance width="536"/>
  <unicode hex="00A2"/>
  <outline>
    <contour>
      <point x="43" y="319" type="line"/>
      <point x="43" y="483"/>
      <point x="134" y="558"/>
      <point x="283" y="563" type="curve"/>
      <point x="283" y="637" type="line"/>
      <point x="334" y="637" type="line"/>
      <point x="334" y="563" type="line"/>
      <point x="398" y="562"/>
      <point x="513" y="534"/>
      <point x="513" y="465" type="curve" smooth="yes"/>
      <point x="513" y="427"/>
      <point x="471" y="410"/>
      <point x="441" y="410" type="curve" smooth="yes"/>
      <point x="418" y="410"/>
      <point x="407" y="421"/>
      <point x="398" y="445" type="curve" smooth="yes"/>
      <point x="377" y="500"/>
      <point x="357" y="517"/>
      <point x="334" y="520" type="curve"/>
      <point x="334" y="137" type="line"/>
      <point x="389" y="137"/>
      <point x="442" y="154"/>
      <point x="483" y="228" type="curve"/>
      <point x="518" y="209" type="line"/>
      <point x="482" y="114"/>
      <point x="394" y="83"/>
      <point x="334" y="82" type="curve"/>
      <point x="334" y="-14" type="line"/>
      <point x="281" y="-14" type="line"/>
      <point x="281" y="82" type="line"/>
      <point x="96" y="81"/>
      <point x="43" y="196"/>
      <point x="43" y="319" type="curve"/>
    </contour>
    <contour>
      <point x="185" y="346" type="line"/>
      <point x="185" y="255"/>
      <point x="207" y="159"/>
      <point x="281" y="141" type="curve"/>
      <point x="281" y="520" type="line"/>
      <point x="240" y="516"/>
      <point x="185" y="487"/>
      <point x="185" y="346" type="curve"/>
    </contour>
  </outline>
</glyph>
<glyph name="currency" format="2">
  <advance width="536"/>
  <unicode hex="00A4"/>
  <outline>
    <contour>
      <point x="44" y="83" type="line"/>
      <point x="17" y="109"/>
      <point x="24" y="135"/>
      <point x="44" y="151" type="curve" smooth="yes"/>
      <point x="89" y="188" type="line"/>
      <point x="63" y="218"/>
      <point x="48" y="268"/>
      <point x="48" y="314" type="curve" smooth="yes"/>
      <point x="48" y="360"/>
      <point x="63" y="410"/>
      <point x="89" y="440" type="curve"/>
      <point x="44" y="477" type="line" smooth="yes"/>
      <point x="24" y="493"/>
      <point x="17" y="519"/>
      <point x="44" y="545" type="curve" smooth="yes"/>
      <point x="67" y="568"/>
      <point x="97" y="562"/>
      <point x="111" y="543" type="curve"/>
      <point x="147" y="497" type="line"/>
      <point x="178" y="523"/>
      <point x="227" y="536"/>
      <point x="268" y="536" type="curve" smooth="yes"/>
      <point x="309" y="536"/>
      <point x="359" y="523"/>
      <point x="390" y="497" type="curve"/>
      <point x="427" y="543" type="line"/>
      <point x="441" y="562"/>
      <point x="472" y="568"/>
      <point x="495" y="545" type="curve" smooth="yes"/>
      <point x="522" y="519"/>
      <point x="515" y="493"/>
      <point x="495" y="477" type="curve" smooth="yes"/>
      <point x="448" y="440" type="line"/>
      <point x="474" y="410"/>
      <point x="488" y="360"/>
      <point x="488" y="314" type="curve" smooth="yes"/>
      <point x="488" y="268"/>
      <point x="474" y="218"/>
      <point x="448" y="188" type="curve"/>
      <point x="495" y="151" type="line" smooth="yes"/>
      <point x="515" y="135"/>
      <point x="522" y="109"/>
      <point x="495" y="83" type="curve" smooth="yes"/>
      <point x="472" y="60"/>
      <point x="441" y="66"/>
      <point x="427" y="85" type="curve"/>
      <point x="390" y="131" type="line"/>
      <point x="359" y="105"/>
      <point x="309" y="91"/>
      <point x="268" y="91" type="curve" smooth="yes"/>
      <point x="227" y="91"/>
      <point x="178" y="105"/>
      <point x="147" y="131" type="curve"/>
      <point x="111" y="85" type="line"/>
      <point x="97" y="66"/>
      <point x="67" y="60"/>
      <point x="44" y="83" type="curve"/>
    </contour>
    <contour>
      <point x="145" y="314" type="line"/>
      <point x="145" y="236"/>
      <point x="198" y="176"/>
      <point x="268" y="176" type="curve" smooth="yes"/>
      <point x="338" y="176"/>
      <point x="393" y="236"/>
      <point x="393" y="314" type="curve" smooth="yes"/>
      <point x="393" y="392"/>
      <point x="338" y="452"/>
      <point x="268" y="452" type="curve" smooth="yes"/>
      <point x="198" y="452"/>
      <point x="145" y="392"/>
      <point x="145" y="314" type="curve"/>
    </contour>
  </outline>
</glyph>
<glyph name="yen" format="2">
  <advance width="536"/>
  <unicode hex="00A5"/>
  <outline>
    <contour>
      <point x="126" y="0" type="line"/>
      <point x="126" y="34" type="line"/>
      <point x="180" y="39" type="line" smooth="yes"/>
      <point x="200" y="41"/>
      <point x="201" y="57"/>
      <point x="201" y="72" type="curve" smooth="yes"/>
      <point x="201" y="201" type="line"/>
      <point x="53" y="201" type="line"/>
      <point x="53" y="246" type="line"/>
      <point x="201" y="246" type="line"/>
      <point x="201" y="265" type="line" smooth="yes"/>
      <point x="201" y="291"/>
      <point x="197" y="309"/>
      <point x="185" y="328" type="curve"/>
      <point x="53" y="328" type="line"/>
      <point x="53" y="373" type="line"/>
      <point x="165" y="373" type="line"/>
      <point x="73" y="556" type="line" smooth="yes"/>
      <point x="62" y="577"/>
      <point x="49" y="587"/>
      <point x="33" y="590" type="curve" smooth="yes"/>
      <point x="9" y="594" type="line"/>
      <point x="9" y="628" type="line"/>
      <point x="273" y="628" type="line"/>
      <point x="273" y="591" type="line"/>
      <point x="230" y="587" type="line" smooth="yes"/>
      <point x="220" y="586"/>
      <point x="216" y="581"/>
      <point x="216" y="574" type="curve" smooth="yes"/>
      <point x="216" y="569"/>
      <point x="218" y="564"/>
      <point x="220" y="559" type="curve"/>
      <point x="306" y="363" type="line"/>
      <point x="309" y="363" type="line"/>
      <point x="375" y="519" type="line" smooth="yes"/>
      <point x="379" y="528"/>
      <point x="392" y="560"/>
      <point x="392" y="570" type="curve" smooth="yes"/>
      <point x="392" y="582"/>
      <point x="384" y="587"/>
      <point x="371" y="588" type="curve"/>
      <point x="327" y="594" type="line"/>
      <point x="327" y="628" type="line"/>
      <point x="533" y="628" type="line"/>
      <point x="533" y="594" type="line"/>
      <point x="502" y="590" type="line" smooth="yes"/>
      <point x="469" y="586"/>
      <point x="452" y="552"/>
      <point x="390" y="420" type="curve" smooth="yes"/>
      <point x="368" y="373" type="line"/>
      <point x="487" y="373" type="line"/>
      <point x="487" y="328" type="line"/>
      <point x="349" y="328" type="line"/>
      <point x="341" y="309"/>
      <point x="339" y="291"/>
      <point x="339" y="265" type="curve" smooth="yes"/>
      <point x="339" y="246" type="line"/>
      <point x="487" y="246" type="line"/>
      <point x="487" y="201" type="line"/>
      <point x="339" y="201" type="line"/>
      <point x="339" y="72" type="line" smooth="yes"/>
      <point x="339" y="57"/>
      <point x="341" y="41"/>
      <point x="360" y="39" type="curve" smooth="yes"/>
      <point x="414" y="34" type="line"/>
      <point x="414" y="0" type="line"/>
    </contour>
  </outline>
</glyph>
<glyph name="brokenbar" format="2">
  <advance width="276"/>
  <unicode hex="00A6"/>
  <outline>
    <contour>
      <point x="94" y="-164" type="line"/>
      <point x="94" y="164" type="line"/>
      <point x="184" y="164" type="line"/>
      <point x="184" y="-164" type="line"/>
    </contour>
    <contour>
      <point x="94" y="306" type="line"/>
      <point x="94" y="634" type="line"/>
      <point x="184" y="634" type="line"/>
      <point x="184" y="306" type="line"/>
    </contour>
  </outline>
</glyph>
<glyph name="section" format="2">
  <advance width="542"/>
  <unicode hex="00A7"/>
  <outline>
    <contour>
      <point x="38" y="348" type="line"/>
      <point x="38" y="412"/>
      <point x="72" y="480"/>
      <point x="127" y="520" type="curve"/>
      <point x="126" y="580"/>
      <point x="168" y="665"/>
      <point x="295" y="665" type="curve" smooth="yes"/>
      <point x="365" y="665"/>
      <point x="433" y="629"/>
      <point x="433" y="585" type="curve" smooth="yes"/>
      <point x="433" y="554"/>
      <point x="397" y="532"/>
      <point x="373" y="532" type="curve" smooth="yes"/>
      <point x="354" y="532"/>
      <point x="347" y="543"/>
      <point x="338" y="556" type="curve"/>
      <point x="307" y="604"/>
      <point x="288" y="619"/>
      <point x="260" y="619" type="curve" smooth="yes"/>
      <point x="232" y="619"/>
      <point x="213" y="597"/>
      <point x="213" y="573" type="curve" smooth="yes"/>
      <point x="213" y="547"/>
      <point x="218" y="513"/>
      <point x="314" y="462" type="curve" smooth="yes"/>
      <point x="453" y="389"/>
      <point x="504" y="337"/>
      <point x="504" y="226" type="curve" smooth="yes"/>
      <point x="504" y="164"/>
      <point x="473" y="102"/>
      <point x="433" y="50" type="curve"/>
      <point x="434" y="-40"/>
      <point x="378" y="-109"/>
      <point x="260" y="-109" type="curve" smooth="yes"/>
      <point x="167" y="-109"/>
      <point x="101" y="-65"/>
      <point x="100" y="-19" type="curve" smooth="yes"/>
      <point x="100" y="24"/>
      <point x="135" y="41"/>
      <point x="161" y="41" type="curve" smooth="yes"/>
      <point x="182" y="41"/>
      <point x="192" y="36"/>
      <point x="203" y="13" type="curve" smooth="yes"/>
      <point x="234" y="-50"/>
      <point x="265" y="-63"/>
      <point x="295" y="-63" type="curve" smooth="yes"/>
      <point x="319" y="-63"/>
      <point x="343" y="-45"/>
      <point x="343" y="-13" type="curve" smooth="yes"/>
      <point x="343" y="21"/>
      <point x="328" y="65"/>
      <point x="211" y="126" type="curve" smooth="yes"/>
      <point x="78" y="196"/>
      <point x="38" y="261"/>
      <point x="38" y="348" type="curve"/>
    </contour>
    <contour>
      <point x="99" y="402" type="line"/>
      <point x="99" y="347"/>
      <point x="139" y="302"/>
      <point x="255" y="240" type="curve" smooth="yes"/>
      <point x="328" y="201"/>
      <point x="389" y="156"/>
      <point x="415" y="109" type="curve"/>
      <point x="427" y="121"/>
      <point x="444" y="141"/>
      <point x="444" y="172" type="curve" smooth="yes"/>
      <point x="444" y="226"/>
      <point x="401" y="278"/>
      <point x="302" y="332" type="curve" smooth="yes"/>
      <point x="232" y="371"/>
      <point x="166" y="409"/>
      <point x="139" y="466" type="curve"/>
      <point x="120" y="457"/>
      <point x="99" y="429"/>
      <point x="99" y="402" type="curve"/>
    </contour>
  </outline>
</glyph>
<glyph name="dieresis" format="2">
  <advance width="413"/>
  <unicode hex="00A8"/>
  <outline>
    <contour>
      <point x="247" y="597" type="curve" smooth="yes"/>
      <point x="247" y="638"/>
      <point x="277" y="667"/>
      <point x="320" y="667" type="curve" smooth="yes"/>
      <point x="363" y="667"/>
      <point x="395" y="637"/>
      <point x="395" y="597" type="curve" smooth="yes"/>
      <point x="395" y="556"/>
      <point x="363" y="526"/>
      <point x="320" y="526" type="curve" smooth="yes"/>
      <point x="277" y="526"/>
      <point x="247" y="556"/>
    </contour>
    <contour>
      <point x="20" y="597" type="curve" smooth="yes"/>
      <point x="20" y="637"/>
      <point x="52" y="667"/>
      <point x="95" y="667" type="curve" smooth="yes"/>
      <point x="138" y="667"/>
      <point x="169" y="638"/>
      <point x="169" y="597" type="curve" smooth="yes"/>
      <point x="169" y="556"/>
      <point x="138" y="526"/>
      <point x="95" y="526" type="curve" smooth="yes"/>
      <point x="52" y="526"/>
      <point x="20" y="556"/>
    </contour>
  </outline>
</glyph>
<glyph name="copyright" format="2">
  <advance width="761"/>
  <unicode hex="00A9"/>
  <outline>
    <contour>
      <point x="39" y="326" type="curve" smooth="yes"/>
      <point x="39" y="514"/>
      <point x="192" y="665"/>
      <point x="381" y="665" type="curve" smooth="yes"/>
      <point x="570" y="665"/>
      <point x="723" y="514"/>
      <point x="723" y="326" type="curve" smooth="yes"/>
      <point x="723" y="138"/>
      <point x="570" y="-14"/>
      <point x="381" y="-14" type="curve" smooth="yes"/>
      <point x="192" y="-14"/>
      <point x="39" y="138"/>
    </contour>
    <contour>
      <point x="117" y="326" type="curve" smooth="yes"/>
      <point x="117" y="167"/>
      <point x="235" y="45"/>
      <point x="381" y="45" type="curve" smooth="yes"/>
      <point x="527" y="45"/>
      <point x="646" y="167"/>
      <point x="646" y="326" type="curve" smooth="yes"/>
      <point x="646" y="485"/>
      <point x="527" y="605"/>
      <point x="381" y="605" type="curve" smooth="yes"/>
      <point x="235" y="605"/>
      <point x="117" y="485"/>
    </contour>
    <contour>
      <point x="200" y="322.717" type="curve" smooth="yes"/>
      <point x="200" y="430"/>
      <point x="259" y="515"/>
      <point x="404.617" y="515" type="curve" smooth="yes"/>
      <point x="452" y="515"/>
      <point x="501" y="506"/>
      <point x="531" y="488" type="curve"/>
      <point x="531" y="390" type="line"/>
      <point x="504" y="390" type="line"/>
      <point x="490" y="434"/>
      <point x="462" y="485"/>
      <point x="406" y="485" type="curve" smooth="yes"/>
      <point x="341" y="485"/>
      <point x="313" y="417"/>
      <point x="313" y="333" type="curve" smooth="yes"/>
      <point x="313" y="247"/>
      <point x="341" y="172"/>
      <point x="409.752" y="172" type="curve" smooth="yes"/>
      <point x="467" y="172"/>
      <point x="493" y="224"/>
      <point x="514" y="273" type="curve"/>
      <point x="539" y="273" type="line"/>
      <point x="530" y="171" type="line"/>
      <point x="500" y="152"/>
      <point x="448" y="141"/>
      <point x="395.221" y="141" type="curve" smooth="yes"/>
      <point x="252" y="141"/>
      <point x="200" y="222"/>
    </contour>
  </outline>
</glyph>
<glyph name="ordfeminine" format="2">
  <advance width="390"/>
  <unicode hex="00AA"/>
  <outline>
    <contour>
      <point x="31" y="335" type="curve" smooth="yes"/>
      <point x="31" y="369"/>
      <point x="52" y="395"/>
      <point x="97" y="409" type="curve" smooth="yes"/>
      <point x="218" y="447" type="line"/>
      <point x="218" y="480" type="line" smooth="yes"/>
      <point x="218" y="508"/>
      <point x="203" y="521"/>
      <point x="183" y="521" type="curve" smooth="yes"/>
      <point x="168" y="521"/>
      <point x="150" y="514"/>
      <point x="132" y="470" type="curve" smooth="yes"/>
      <point x="122" y="447"/>
      <point x="114" y="438"/>
      <point x="97" y="438" type="curve" smooth="yes"/>
      <point x="77" y="438"/>
      <point x="37" y="450"/>
      <point x="37" y="481" type="curve" smooth="yes"/>
      <point x="37" y="519"/>
      <point x="96" y="555"/>
      <point x="195" y="555" type="curve" smooth="yes"/>
      <point x="313" y="555"/>
      <point x="324" y="505"/>
      <point x="324" y="465" type="curve" smooth="yes"/>
      <point x="324" y="340" type="line" smooth="yes"/>
      <point x="324" y="303"/>
      <point x="335" y="288"/>
      <point x="366" y="288" type="curve" smooth="yes"/>
      <point x="369" y="288"/>
      <point x="372" y="288"/>
      <point x="376" y="289" type="curve"/>
      <point x="377" y="267" type="line"/>
      <point x="355" y="258"/>
      <point x="314" y="249"/>
      <point x="273" y="249" type="curve" smooth="yes"/>
      <point x="241" y="249"/>
      <point x="229" y="267"/>
      <point x="221" y="283" type="curve"/>
      <point x="199" y="267"/>
      <point x="170" y="249"/>
      <point x="128" y="249" type="curve" smooth="yes"/>
      <point x="63" y="249"/>
      <point x="31" y="293"/>
    </contour>
    <contour>
      <point x="145" y="349" type="curve" smooth="yes"/>
      <point x="145" y="313"/>
      <point x="168" y="300"/>
      <point x="186" y="300" type="curve" smooth="yes"/>
      <point x="201" y="300"/>
      <point x="218" y="308"/>
      <point x="218" y="335" type="curve" smooth="yes"/>
      <point x="218" y="413" type="line"/>
      <point x="210" y="411" type="line" smooth="yes"/>
      <point x="171" y="401"/>
      <point x="145" y="388"/>
    </contour>
  </outline>
</glyph>
<glyph name="guillemotleft" format="2">
  <advance width="467"/>
  <unicode hex="00AB"/>
  <outline>
    <contour>
      <point x="43" y="236" type="curve" smooth="yes"/>
      <point x="43" y="242"/>
      <point x="46" y="248"/>
      <point x="51" y="254" type="curve"/>
      <point x="215" y="436" type="line"/>
      <point x="243" y="416" type="line"/>
      <point x="168" y="252" type="line"/>
      <point x="166" y="247"/>
      <point x="164" y="241"/>
      <point x="164" y="235" type="curve" smooth="yes"/>
      <point x="164" y="230"/>
      <point x="165" y="224"/>
      <point x="168" y="218" type="curve"/>
      <point x="243" y="55" type="line"/>
      <point x="215" y="35" type="line"/>
      <point x="51" y="217" type="line"/>
      <point x="46" y="223"/>
      <point x="43" y="230"/>
    </contour>
    <contour>
      <point x="231" y="236" type="curve" smooth="yes"/>
      <point x="231" y="242"/>
      <point x="234" y="248"/>
      <point x="239" y="254" type="curve"/>
      <point x="403" y="436" type="line"/>
      <point x="431" y="416" type="line"/>
      <point x="356" y="252" type="line"/>
      <point x="354" y="247"/>
      <point x="352" y="241"/>
      <point x="352" y="235" type="curve" smooth="yes"/>
      <point x="352" y="230"/>
      <point x="353" y="224"/>
      <point x="356" y="218" type="curve"/>
      <point x="431" y="55" type="line"/>
      <point x="403" y="35" type="line"/>
      <point x="239" y="217" type="line"/>
      <point x="234" y="223"/>
      <point x="231" y="230"/>
    </contour>
  </outline>
</glyph>
<glyph name="logicalnot" format="2">
  <advance width="574"/>
  <unicode hex="00AC"/>
  <outline>
    <contour>
      <point x="61" y="298" type="line"/>
      <point x="61" y="373" type="line"/>
      <point x="514" y="373" type="line"/>
      <point x="514" y="89" type="line"/>
      <point x="424" y="89" type="line"/>
      <point x="424" y="298" type="line"/>
    </contour>
  </outline>
</glyph>
<glyph name="uni00AD" format="2">
  <advance width="377"/>
  <unicode hex="00AD"/>
  <outline>
    <contour>
      <point x="66" y="191" type="line"/>
      <point x="66" y="280" type="line"/>
      <point x="314" y="280" type="line"/>
      <point x="314" y="191" type="line"/>
    </contour>
  </outline>
</glyph>
<glyph name="registered" format="2">
  <advance width="761"/>
  <unicode hex="00AE"/>
  <outline>
    <contour>
      <point x="39" y="326" type="curve" smooth="yes"/>
      <point x="39" y="514"/>
      <point x="192" y="665"/>
      <point x="381" y="665" type="curve" smooth="yes"/>
      <point x="570" y="665"/>
      <point x="723" y="514"/>
      <point x="723" y="326" type="curve" smooth="yes"/>
      <point x="723" y="138"/>
      <point x="570" y="-14"/>
      <point x="381" y="-14" type="curve" smooth="yes"/>
      <point x="192" y="-14"/>
      <point x="39" y="138"/>
    </contour>
    <contour>
      <point x="117" y="326" type="curve" smooth="yes"/>
      <point x="117" y="167"/>
      <point x="235" y="45"/>
      <point x="381" y="45" type="curve" smooth="yes"/>
      <point x="527" y="45"/>
      <point x="646" y="167"/>
      <point x="646" y="326" type="curve" smooth="yes"/>
      <point x="646" y="485"/>
      <point x="527" y="605"/>
      <point x="381" y="605" type="curve" smooth="yes"/>
      <point x="235" y="605"/>
      <point x="117" y="485"/>
    </contour>
    <contour>
      <point x="214" y="149" type="line"/>
      <point x="214" y="174" type="line"/>
      <point x="238" y="178" type="line"/>
      <point x="253" y="180"/>
      <point x="256" y="189"/>
      <point x="256" y="206" type="curve" smooth="yes"/>
      <point x="256" y="452" type="line" smooth="yes"/>
      <point x="256" y="468"/>
      <point x="253" y="477"/>
      <point x="238" y="479" type="curve"/>
      <point x="214" y="483" type="line"/>
      <point x="214" y="509" type="line"/>
      <point x="409" y="509" type="line" smooth="yes"/>
      <point x="502" y="509"/>
      <point x="532" y="470"/>
      <point x="532" y="422" type="curve" smooth="yes"/>
      <point x="532" y="372"/>
      <point x="499" y="340"/>
      <point x="449" y="331" type="curve"/>
      <point x="449" y="328" type="line"/>
      <point x="497" y="313"/>
      <point x="506" y="279"/>
      <point x="516" y="238" type="curve" smooth="yes"/>
      <point x="523" y="211"/>
      <point x="534" y="181"/>
      <point x="564" y="174" type="curve"/>
      <point x="564" y="149" type="line"/>
      <point x="514" y="149" type="line" smooth="yes"/>
      <point x="451" y="149"/>
      <point x="429" y="182"/>
      <point x="414" y="242" type="curve" smooth="yes"/>
      <point x="406" y="275"/>
      <point x="393" y="311"/>
      <point x="367" y="311" type="curve" smooth="yes"/>
      <point x="350" y="311" type="line"/>
      <point x="350" y="206" type="line" smooth="yes"/>
      <point x="350" y="189"/>
      <point x="354" y="180"/>
      <point x="369" y="178" type="curve" smooth="yes"/>
      <point x="395" y="174" type="line"/>
      <point x="395" y="149" type="line"/>
    </contour>
    <contour>
      <point x="350" y="341" type="line"/>
      <point x="373" y="341" type="line" smooth="yes"/>
      <point x="419" y="341"/>
      <point x="434" y="369"/>
      <point x="434" y="408" type="curve" smooth="yes"/>
      <point x="434" y="459"/>
      <point x="409" y="478"/>
      <point x="373" y="478" type="curve" smooth="yes"/>
      <point x="354" y="478"/>
      <point x="350" y="473"/>
      <point x="350" y="459" type="curve" smooth="yes"/>
    </contour>
  </outline>
</glyph>
<glyph name="macron" format="2">
  <advance width="413"/>
  <unicode hex="00AF"/>
  <outline>
    <contour>
      <point x="62" y="552" type="line"/>
      <point x="62" y="634" type="line"/>
      <point x="354" y="634" type="line"/>
      <point x="354" y="552" type="line"/>
    </contour>
  </outline>
</glyph>
<glyph name="degree" format="2">
  <advance width="381"/>
  <unicode hex="00B0"/>
  <outline>
    <contour>
      <point x="28" y="489" type="curve" smooth="yes"/>
      <point x="28" y="574"/>
      <point x="95" y="639"/>
      <point x="181" y="639" type="curve" smooth="yes"/>
      <point x="266" y="639"/>
      <point x="335" y="574"/>
      <point x="335" y="489" type="curve" smooth="yes"/>
      <point x="335" y="404"/>
      <point x="266" y="338"/>
      <point x="181" y="338" type="curve" smooth="yes"/>
      <point x="95" y="338"/>
      <point x="28" y="404"/>
    </contour>
    <contour>
      <point x="91" y="490" type="curve" smooth="yes"/>
      <point x="91" y="434"/>
      <point x="130.348" y="393"/>
      <point x="180.938" y="393" type="curve" smooth="yes"/>
      <point x="230.404" y="393"/>
      <point x="272" y="434"/>
      <point x="272" y="490" type="curve" smooth="yes"/>
      <point x="272" y="545"/>
      <point x="230.404" y="585"/>
      <point x="179.814" y="585" type="curve" smooth="yes"/>
      <point x="130.348" y="585"/>
      <point x="91" y="545"/>
    </contour>
  </outline>
</glyph>
<glyph name="plusminus" format="2">
  <advance width="574"/>
  <unicode hex="00B1"/>
  <outline>
    <contour>
      <point x="61" y="280" type="line"/>
      <point x="61" y="355" type="line"/>
      <point x="244" y="355" type="line"/>
      <point x="244" y="516" type="line"/>
      <point x="333" y="516" type="line"/>
      <point x="333" y="355" type="line"/>
      <point x="514" y="355" type="line"/>
      <point x="514" y="280" type="line"/>
      <point x="333" y="280" type="line"/>
      <point x="333" y="121" type="line"/>
      <point x="244" y="121" type="line"/>
      <point x="244" y="280" type="line"/>
    </contour>
    <contour>
      <point x="61" y="0" type="line"/>
      <point x="61" y="74" type="line"/>
      <point x="514" y="74" type="line"/>
      <point x="514" y="0" type="line"/>
    </contour>
  </outline>
</glyph>
<glyph name="uni00B2" format="2">
  <advance width="387"/>
  <unicode hex="00B2"/>
  <outline>
    <contour>
      <point x="32" y="364" type="line"/>
      <point x="35" y="419"/>
      <point x="84" y="468"/>
      <point x="150" y="518" type="curve" smooth="yes"/>
      <point x="213" y="566"/>
      <point x="227" y="608"/>
      <point x="227" y="645" type="curve" smooth="yes"/>
      <point x="227" y="678"/>
      <point x="216" y="703"/>
      <point x="195" y="703" type="curve" smooth="yes"/>
      <point x="173" y="703"/>
      <point x="159" y="678"/>
      <point x="148" y="629" type="curve" smooth="yes"/>
      <point x="142" y="605"/>
      <point x="130" y="595"/>
      <point x="107" y="595" type="curve" smooth="yes"/>
      <point x="83" y="595"/>
      <point x="46" y="611"/>
      <point x="46" y="645" type="curve" smooth="yes"/>
      <point x="46" y="693"/>
      <point x="105" y="739"/>
      <point x="196" y="739" type="curve" smooth="yes"/>
      <point x="284" y="739"/>
      <point x="345" y="703"/>
      <point x="345" y="626" type="curve" smooth="yes"/>
      <point x="345" y="558"/>
      <point x="293" y="530"/>
      <point x="241" y="508" type="curve" smooth="yes"/>
      <point x="189" y="487"/>
      <point x="148" y="462"/>
      <point x="135" y="432" type="curve"/>
      <point x="294" y="432" type="line" smooth="yes"/>
      <point x="315" y="432"/>
      <point x="323" y="435"/>
      <point x="338" y="461" type="curve"/>
      <point x="364" y="454" type="line"/>
      <point x="335" y="356" type="line"/>
      <point x="44" y="356" type="line"/>
    </contour>
  </outline>
</glyph>
<glyph name="uni00B3" format="2">
  <advance width="387"/>
  <unicode hex="00B3"/>
  <outline>
    <contour>
      <point x="33" y="428" type="line"/>
      <point x="33" y="462"/>
      <point x="69" y="484"/>
      <point x="93" y="484" type="curve" smooth="yes"/>
      <point x="115" y="484"/>
      <point x="125" y="472"/>
      <point x="131" y="454" type="curve" smooth="yes"/>
      <point x="149" y="403"/>
      <point x="167" y="384"/>
      <point x="185" y="384" type="curve" smooth="yes"/>
      <point x="212" y="384"/>
      <point x="231" y="411"/>
      <point x="231" y="462" type="curve" smooth="yes"/>
      <point x="231" y="529"/>
      <point x="202" y="538"/>
      <point x="180" y="538" type="curve" smooth="yes"/>
      <point x="158" y="538"/>
      <point x="132" y="526"/>
      <point x="119" y="526" type="curve" smooth="yes"/>
      <point x="105" y="526"/>
      <point x="98" y="538"/>
      <point x="98" y="555" type="curve" smooth="yes"/>
      <point x="98" y="574"/>
      <point x="105" y="584"/>
      <point x="119" y="584" type="curve" smooth="yes"/>
      <point x="132" y="584"/>
      <point x="159" y="574"/>
      <point x="180" y="574" type="curve" smooth="yes"/>
      <point x="217" y="574"/>
      <point x="217" y="622"/>
      <point x="217" y="646" type="curve" smooth="yes"/>
      <point x="217" y="675"/>
      <point x="208" y="703"/>
      <point x="184" y="703" type="curve" smooth="yes"/>
      <point x="165" y="703"/>
      <point x="151" y="681"/>
      <point x="140" y="642" type="curve" smooth="yes"/>
      <point x="134" y="622"/>
      <point x="125" y="612"/>
      <point x="102" y="612" type="curve" smooth="yes"/>
      <point x="79" y="612"/>
      <point x="46" y="626"/>
      <point x="44" y="657" type="curve"/>
      <point x="45" y="700"/>
      <point x="95" y="739"/>
      <point x="191" y="739" type="curve" smooth="yes"/>
      <point x="260" y="739"/>
      <point x="335" y="715"/>
      <point x="335" y="642" type="curve" smooth="yes"/>
      <point x="335" y="591"/>
      <point x="292" y="569"/>
      <point x="253" y="560" type="curve"/>
      <point x="253" y="558" type="line"/>
      <point x="306" y="549"/>
      <point x="351" y="514"/>
      <point x="351" y="460" type="curve" smooth="yes"/>
      <point x="351" y="401"/>
      <point x="313" y="348"/>
      <point x="182" y="348" type="curve" smooth="yes"/>
      <point x="112" y="348"/>
      <point x="33" y="375"/>
      <point x="33" y="428" type="curve"/>
    </contour>
  </outline>
</glyph>
<glyph name="acute" format="2">
  <advance width="413"/>
  <unicode hex="00B4"/>
  <outline>
    <contour>
      <point x="117" y="509" type="line"/>
      <point x="253" y="649" type="line" smooth="yes"/>
      <point x="288" y="685"/>
      <point x="304" y="696"/>
      <point x="323" y="696" type="curve" smooth="yes"/>
      <point x="346" y="696"/>
      <point x="373" y="663"/>
      <point x="373" y="639" type="curve" smooth="yes"/>
      <point x="373" y="615"/>
      <point x="344" y="596"/>
      <point x="310" y="577" type="curve" smooth="yes"/>
      <point x="137" y="480" type="line"/>
    </contour>
  </outline>
</glyph>
<glyph name="mu" format="2">
  <advance width="601"/>
  <unicode hex="00B5"/>
  <outline>
    <contour>
      <point x="82" y="-180" type="curve" smooth="yes"/>
      <point x="82" y="359" type="line" smooth="yes"/>
      <point x="82" y="397"/>
      <point x="76" y="404"/>
      <point x="61" y="406" type="curve" smooth="yes"/>
      <point x="28" y="411" type="line"/>
      <point x="28" y="445" type="line"/>
      <point x="217" y="472" type="line"/>
      <point x="224" y="466" type="line"/>
      <point x="224" y="165" type="line" smooth="yes"/>
      <point x="224" y="92"/>
      <point x="253" y="63"/>
      <point x="305" y="63" type="curve" smooth="yes"/>
      <point x="359" y="63"/>
      <point x="385" y="94"/>
      <point x="385" y="160" type="curve" smooth="yes"/>
      <point x="385" y="359" type="line" smooth="yes"/>
      <point x="385" y="397"/>
      <point x="378" y="404"/>
      <point x="363" y="406" type="curve" smooth="yes"/>
      <point x="330" y="411" type="line"/>
      <point x="330" y="445" type="line"/>
      <point x="520" y="472" type="line"/>
      <point x="528" y="466" type="line"/>
      <point x="528" y="82" type="line" smooth="yes"/>
      <point x="528" y="43"/>
      <point x="534" y="39"/>
      <point x="588" y="36" type="curve"/>
      <point x="588" y="0" type="line"/>
      <point x="393" y="0" type="line"/>
      <point x="385" y="53" type="line"/>
      <point x="349" y="21"/>
      <point x="300" y="-11"/>
      <point x="246" y="-11" type="curve" smooth="yes"/>
      <point x="210" y="-11"/>
      <point x="183" y="3"/>
      <point x="165" y="19" type="curve"/>
      <point x="162" y="19" type="line"/>
      <point x="162" y="-9" type="line" smooth="yes"/>
      <point x="162" y="-37"/>
      <point x="175" y="-76"/>
      <point x="188" y="-100" type="curve" smooth="yes"/>
      <point x="201" y="-123"/>
      <point x="213" y="-145"/>
      <point x="213" y="-163" type="curve" smooth="yes"/>
      <point x="213" y="-203"/>
      <point x="152" y="-227"/>
      <point x="115" y="-227" type="curve" smooth="yes"/>
      <point x="95" y="-227"/>
      <point x="82" y="-219"/>
    </contour>
  </outline>
</glyph>
<glyph name="paragraph" format="2">
  <advance width="527"/>
  <unicode hex="00B6"/>
  <outline>
    <contour>
      <point x="38" y="437" type="curve" smooth="yes"/>
      <point x="38" y="563"/>
      <point x="119" y="650"/>
      <point x="265" y="650" type="curve"/>
      <point x="265" y="224" type="line"/>
      <point x="124" y="224"/>
      <point x="38" y="308"/>
    </contour>
    <contour>
      <point x="233" y="-66" type="line"/>
      <point x="310" y="-53" type="line" smooth="yes"/>
      <point x="327" y="-50"/>
      <point x="329" y="-34"/>
      <point x="329" y="-7" type="curve" smooth="yes"/>
      <point x="329" y="650" type="line"/>
      <point x="500" y="650" type="line"/>
      <point x="500" y="621" type="line"/>
      <point x="439" y="610" type="line" smooth="yes"/>
      <point x="422" y="607"/>
      <point x="420" y="599"/>
      <point x="420" y="572" type="curve" smooth="yes"/>
      <point x="420" y="-95" type="line"/>
      <point x="233" y="-95" type="line"/>
    </contour>
  </outline>
</glyph>
<glyph name="periodcentered" format="2">
  <advance width="273"/>
  <unicode hex="00B7"/>
  <outline>
    <contour>
      <point x="49" y="234" type="line"/>
      <point x="49" y="286"/>
      <point x="85" y="321"/>
      <point x="137" y="321" type="curve" smooth="yes"/>
      <point x="189" y="321"/>
      <point x="224" y="286"/>
      <point x="224" y="234" type="curve" smooth="yes"/>
      <point x="224" y="182"/>
      <point x="189" y="147"/>
      <point x="137" y="147" type="curve" smooth="yes"/>
      <point x="85" y="147"/>
      <point x="49" y="182"/>
      <point x="49" y="234" type="curve"/>
    </contour>
  </outline>
</glyph>
<glyph name="cedilla" format="2">
  <advance width="413"/>
  <unicode hex="00B8"/>
  <outline>
    <contour>
      <point x="133" y="-198" type="line"/>
      <point x="186" y="-198"/>
      <point x="221" y="-184"/>
      <point x="221" y="-146" type="curve" smooth="yes"/>
      <point x="221" y="-105"/>
      <point x="181" y="-96"/>
      <point x="160" y="-94" type="curve"/>
      <point x="155" y="-86" type="line"/>
      <point x="216" y="10" type="line"/>
      <point x="270" y="10" type="line"/>
      <point x="228" y="-55" type="line"/>
      <point x="257" y="-59"/>
      <point x="320" y="-74"/>
      <point x="320" y="-139" type="curve" smooth="yes"/>
      <point x="320" y="-220"/>
      <point x="223" y="-231"/>
      <point x="175" y="-231" type="curve" smooth="yes"/>
      <point x="161" y="-231"/>
      <point x="149" y="-230"/>
      <point x="133" y="-228" type="curve"/>
    </contour>
  </outline>
  <guideline angle="57.3997" x="155" y="-86"/>
  <guideline angle="236.793" x="264" y="0"/>
  <guideline angle="0" x="0" y="10"/>
</glyph>
<glyph name="uni00B9" format="2">
  <advance width="387"/>
  <unicode hex="00B9"/>
  <outline>
    <contour>
      <point x="72" y="356" type="line"/>
      <point x="72" y="380" type="line"/>
      <point x="107" y="386" type="line" smooth="yes"/>
      <point x="127" y="389"/>
      <point x="135" y="396"/>
      <point x="135" y="420" type="curve" smooth="yes"/>
      <point x="135" y="655" type="line" smooth="yes"/>
      <point x="135" y="678"/>
      <point x="128" y="684"/>
      <point x="113" y="687" type="curve"/>
      <point x="74" y="691" type="line"/>
      <point x="74" y="716" type="line"/>
      <point x="239" y="739" type="line"/>
      <point x="247" y="732" type="line"/>
      <point x="247" y="420" type="line" smooth="yes"/>
      <point x="247" y="396"/>
      <point x="254" y="389"/>
      <point x="274" y="386" type="curve" smooth="yes"/>
      <point x="311" y="380" type="line"/>
      <point x="311" y="356" type="line"/>
    </contour>
  </outline>
</glyph>
<glyph name="ordmasculine" format="2">
  <advance width="410"/>
  <unicode hex="00BA"/>
  <outline>
    <contour>
      <point x="31" y="402" type="line"/>
      <point x="31" y="490"/>
      <point x="79" y="555"/>
      <point x="206" y="555" type="curve" smooth="yes"/>
      <point x="333" y="555"/>
      <point x="380" y="490"/>
      <point x="380" y="402" type="curve" smooth="yes"/>
      <point x="380" y="313"/>
      <point x="333" y="249"/>
      <point x="206" y="249" type="curve" smooth="yes"/>
      <point x="79" y="249"/>
      <point x="31" y="313"/>
      <point x="31" y="402" type="curve"/>
    </contour>
    <contour>
      <point x="150" y="402" type="line"/>
      <point x="150" y="329"/>
      <point x="168" y="283"/>
      <point x="206" y="283" type="curve" smooth="yes"/>
      <point x="244" y="283"/>
      <point x="263" y="329"/>
      <point x="263" y="402" type="curve" smooth="yes"/>
      <point x="263" y="474"/>
      <point x="244" y="521"/>
      <point x="206" y="521" type="curve" smooth="yes"/>
      <point x="168" y="521"/>
      <point x="150" y="474"/>
      <point x="150" y="402" type="curve"/>
    </contour>
  </outline>
</glyph>
<glyph name="onequarter" format="2">
  <advance width="856"/>
  <unicode hex="00BC"/>
  <outline>
    <contour>
      <point x="74" y="256" type="line"/>
      <point x="74" y="281" type="line"/>
      <point x="110" y="286" type="line" smooth="yes"/>
      <point x="130" y="289"/>
      <point x="137" y="296"/>
      <point x="137" y="320" type="curve" smooth="yes"/>
      <point x="137" y="555" type="line" smooth="yes"/>
      <point x="137" y="578"/>
      <point x="129" y="585"/>
      <point x="114" y="587" type="curve"/>
      <point x="76" y="591" type="line"/>
      <point x="76" y="617" type="line"/>
      <point x="241" y="639" type="line"/>
      <point x="248" y="633" type="line"/>
      <point x="248" y="320" type="line" smooth="yes"/>
      <point x="248" y="296"/>
      <point x="257" y="289"/>
      <point x="277" y="286" type="curve" smooth="yes"/>
      <point x="312" y="281" type="line"/>
      <point x="312" y="256" type="line"/>
    </contour>
    <contour>
      <point x="233" y="4" type="line"/>
      <point x="569" y="653" type="line"/>
      <point x="619" y="627" type="line"/>
      <point x="282" y="-26" type="line"/>
    </contour>
    <contour>
      <point x="434" y="112" type="line"/>
      <point x="494" y="208"/>
      <point x="557" y="300"/>
      <point x="617" y="377" type="curve"/>
      <point x="707" y="377" type="line"/>
      <point x="707" y="133" type="line"/>
      <point x="770" y="133" type="line"/>
      <point x="770" y="87" type="line"/>
      <point x="707" y="87" type="line"/>
      <point x="707" y="57" type="line" smooth="yes"/>
      <point x="707" y="35"/>
      <point x="715" y="30"/>
      <point x="729" y="28" type="curve"/>
      <point x="753" y="26" type="line"/>
      <point x="753" y="0" type="line"/>
      <point x="545" y="0" type="line"/>
      <point x="545" y="26" type="line"/>
      <point x="579" y="29" type="line"/>
      <point x="592" y="31"/>
      <point x="599" y="35"/>
      <point x="599" y="57" type="curve" smooth="yes"/>
      <point x="599" y="87" type="line"/>
      <point x="447" y="87" type="line"/>
    </contour>
    <contour>
      <point x="501" y="133" type="line"/>
      <point x="599" y="133" type="line"/>
      <point x="599" y="291" type="line"/>
      <point x="596" y="291" type="line"/>
      <point x="563" y="244"/>
      <point x="532" y="191"/>
      <point x="500" y="135" type="curve"/>
    </contour>
  </outline>
</glyph>
<glyph name="onehalf" format="2">
  <advance width="856"/>
  <unicode hex="00BD"/>
  <outline>
    <contour>
      <point x="55" y="256" type="line"/>
      <point x="55" y="281" type="line"/>
      <point x="91" y="286" type="line" smooth="yes"/>
      <point x="111" y="289"/>
      <point x="118" y="296"/>
      <point x="118" y="320" type="curve" smooth="yes"/>
      <point x="118" y="555" type="line" smooth="yes"/>
      <point x="118" y="578"/>
      <point x="111" y="585"/>
      <point x="96" y="587" type="curve"/>
      <point x="57" y="591" type="line"/>
      <point x="57" y="617" type="line"/>
      <point x="222" y="639" type="line"/>
      <point x="231" y="633" type="line"/>
      <point x="231" y="320" type="line" smooth="yes"/>
      <point x="231" y="296"/>
      <point x="237" y="289"/>
      <point x="257" y="286" type="curve" smooth="yes"/>
      <point x="294" y="281" type="line"/>
      <point x="294" y="256" type="line"/>
    </contour>
    <contour>
      <point x="211" y="4" type="line"/>
      <point x="546" y="653" type="line"/>
      <point x="596" y="627" type="line"/>
      <point x="260" y="-26" type="line"/>
    </contour>
    <contour>
      <point x="471" y="9" type="line"/>
      <point x="474" y="64"/>
      <point x="523" y="114"/>
      <point x="589" y="164" type="curve" smooth="yes"/>
      <point x="652" y="212"/>
      <point x="665" y="253"/>
      <point x="665" y="290" type="curve" smooth="yes"/>
      <point x="665" y="323"/>
      <point x="654" y="348"/>
      <point x="633" y="348" type="curve" smooth="yes"/>
      <point x="611" y="348"/>
      <point x="598" y="323"/>
      <point x="587" y="274" type="curve" smooth="yes"/>
      <point x="581" y="250"/>
      <point x="570" y="241"/>
      <point x="549" y="241" type="curve" smooth="yes"/>
      <point x="523" y="241"/>
      <point x="484" y="256"/>
      <point x="484" y="293" type="curve" smooth="yes"/>
      <point x="484" y="338"/>
      <point x="543" y="384"/>
      <point x="639" y="384" type="curve" smooth="yes"/>
      <point x="722" y="384"/>
      <point x="783" y="349"/>
      <point x="783" y="273" type="curve" smooth="yes"/>
      <point x="783" y="204"/>
      <point x="732" y="174"/>
      <point x="677" y="151" type="curve" smooth="yes"/>
      <point x="628" y="131"/>
      <point x="587" y="107"/>
      <point x="574" y="77" type="curve"/>
      <point x="732" y="77" type="line" smooth="yes"/>
      <point x="753" y="77"/>
      <point x="763" y="80"/>
      <point x="778" y="106" type="curve"/>
      <point x="803" y="99" type="line"/>
      <point x="774" y="0" type="line"/>
      <point x="482" y="0" type="line"/>
    </contour>
  </outline>
</glyph>
<glyph name="threequarters" format="2">
  <advance width="856"/>
  <unicode hex="00BE"/>
  <outline>
    <contour>
      <point x="44" y="329" type="curve" smooth="yes"/>
      <point x="44" y="363"/>
      <point x="78" y="385"/>
      <point x="104" y="385" type="curve" smooth="yes"/>
      <point x="124" y="385"/>
      <point x="134" y="372"/>
      <point x="143" y="345" type="curve" smooth="yes"/>
      <point x="158" y="303"/>
      <point x="178" y="285"/>
      <point x="198" y="285" type="curve" smooth="yes"/>
      <point x="223" y="285"/>
      <point x="240" y="312"/>
      <point x="240" y="363" type="curve" smooth="yes"/>
      <point x="240" y="430"/>
      <point x="211" y="438"/>
      <point x="191" y="438" type="curve" smooth="yes"/>
      <point x="167" y="438"/>
      <point x="142" y="427"/>
      <point x="129" y="427" type="curve" smooth="yes"/>
      <point x="115" y="427"/>
      <point x="107" y="438"/>
      <point x="107" y="455" type="curve" smooth="yes"/>
      <point x="107" y="474"/>
      <point x="115" y="485"/>
      <point x="129" y="485" type="curve" smooth="yes"/>
      <point x="142" y="485"/>
      <point x="168" y="474"/>
      <point x="187" y="474" type="curve" smooth="yes"/>
      <point x="226" y="474"/>
      <point x="228" y="523"/>
      <point x="228" y="539" type="curve" smooth="yes"/>
      <point x="228" y="576"/>
      <point x="218" y="603"/>
      <point x="195" y="603" type="curve" smooth="yes"/>
      <point x="175" y="603"/>
      <point x="161" y="582"/>
      <point x="152" y="551" type="curve" smooth="yes"/>
      <point x="144" y="523"/>
      <point x="135" y="513"/>
      <point x="114" y="513" type="curve" smooth="yes"/>
      <point x="89" y="513"/>
      <point x="52" y="526"/>
      <point x="52" y="560" type="curve" smooth="yes"/>
      <point x="52" y="600"/>
      <point x="105" y="639"/>
      <point x="198" y="639" type="curve" smooth="yes"/>
      <point x="270" y="639"/>
      <point x="345" y="616"/>
      <point x="345" y="545" type="curve" smooth="yes"/>
      <point x="345" y="492"/>
      <point x="303" y="471"/>
      <point x="264" y="462" type="curve"/>
      <point x="264" y="459" type="line"/>
      <point x="317" y="449"/>
      <point x="361" y="415"/>
      <point x="361" y="357" type="curve" smooth="yes"/>
      <point x="361" y="302"/>
      <point x="322" y="249"/>
      <point x="191" y="249" type="curve" smooth="yes"/>
      <point x="121" y="249"/>
      <point x="44" y="276"/>
    </contour>
    <contour>
      <point x="256" y="4" type="line"/>
      <point x="593" y="653" type="line"/>
      <point x="641" y="627" type="line"/>
      <point x="305" y="-26" type="line"/>
    </contour>
    <contour>
      <point x="461" y="112" type="line"/>
      <point x="521" y="208"/>
      <point x="584" y="300"/>
      <point x="644" y="377" type="curve"/>
      <point x="733" y="377" type="line"/>
      <point x="733" y="133" type="line"/>
      <point x="797" y="133" type="line"/>
      <point x="797" y="87" type="line"/>
      <point x="733" y="87" type="line"/>
      <point x="733" y="57" type="line" smooth="yes"/>
      <point x="733" y="35"/>
      <point x="740" y="29"/>
      <point x="754" y="28" type="curve" smooth="yes"/>
      <point x="780" y="26" type="line"/>
      <point x="780" y="0" type="line"/>
      <point x="570" y="0" type="line"/>
      <point x="570" y="26" type="line"/>
      <point x="605" y="29" type="line" smooth="yes"/>
      <point x="618" y="30"/>
      <point x="626" y="35"/>
      <point x="626" y="57" type="curve" smooth="yes"/>
      <point x="626" y="87" type="line"/>
      <point x="473" y="87" type="line"/>
    </contour>
    <contour>
      <point x="530" y="133" type="line"/>
      <point x="626" y="133" type="line"/>
      <point x="626" y="276" type="line"/>
      <point x="623" y="276" type="line"/>
      <point x="586" y="227"/>
      <point x="560" y="188"/>
      <point x="528" y="136" type="curve"/>
    </contour>
  </outline>
</glyph>
<glyph name="questiondown" format="2">
  <advance width="438"/>
  <unicode hex="00BF"/>
  <outline>
    <contour>
      <point x="28" y="-65" type="line"/>
      <point x="28" y="2"/>
      <point x="87" y="31"/>
      <point x="126" y="52" type="curve" smooth="yes"/>
      <point x="173" y="76"/>
      <point x="196" y="106"/>
      <point x="196" y="134" type="curve" smooth="yes"/>
      <point x="196" y="162"/>
      <point x="173" y="184"/>
      <point x="136" y="184" type="curve" smooth="yes"/>
      <point x="116" y="184"/>
      <point x="101" y="182"/>
      <point x="91" y="179" type="curve"/>
      <point x="81" y="204" type="line"/>
      <point x="119" y="230"/>
      <point x="169" y="250"/>
      <point x="223" y="250" type="curve" smooth="yes"/>
      <point x="291" y="250"/>
      <point x="353" y="218"/>
      <point x="353" y="150" type="curve" smooth="yes"/>
      <point x="353" y="123"/>
      <point x="339" y="90"/>
      <point x="272" y="50" type="curve" smooth="yes"/>
      <point x="211" y="12"/>
      <point x="184" y="-36"/>
      <point x="184" y="-88" type="curve" smooth="yes"/>
      <point x="184" y="-129"/>
      <point x="198" y="-161"/>
      <point x="222" y="-161" type="curve" smooth="yes"/>
      <point x="246" y="-161"/>
      <point x="265" y="-135"/>
      <point x="284" y="-57" type="curve" smooth="yes"/>
      <point x="290" y="-33"/>
      <point x="305" y="-23"/>
      <point x="335" y="-23" type="curve" smooth="yes"/>
      <point x="366" y="-23"/>
      <point x="415" y="-45"/>
      <point x="415" y="-86" type="curve" smooth="yes"/>
      <point x="415" y="-133"/>
      <point x="351" y="-204"/>
      <point x="218" y="-204" type="curve" smooth="yes"/>
      <point x="108" y="-204"/>
      <point x="28" y="-159"/>
      <point x="28" y="-65" type="curve"/>
    </contour>
    <contour>
      <point x="129" y="384" type="line"/>
      <point x="129" y="436"/>
      <point x="164" y="472"/>
      <point x="216" y="472" type="curve" smooth="yes"/>
      <point x="268" y="472"/>
      <point x="303" y="436"/>
      <point x="303" y="384" type="curve" smooth="yes"/>
      <point x="303" y="332"/>
      <point x="268" y="297"/>
      <point x="216" y="297" type="curve" smooth="yes"/>
      <point x="164" y="297"/>
      <point x="129" y="332"/>
      <point x="129" y="384" type="curve"/>
    </contour>
  </outline>
</glyph>
<glyph name="AE" format="2">
  <advance width="836"/>
  <unicode hex="00C6"/>
  <anchor x="437" y="697" name="top"/>
  <outline>
    <contour>
      <point x="-67" y="0" type="line"/>
      <point x="-67" y="36" type="line"/>
      <point x="-12" y="38"/>
      <point x="-1" y="49"/>
      <point x="20" y="88" type="curve" smooth="yes"/>
      <point x="61" y="165"/>
      <point x="127" y="296"/>
      <point x="182" y="406" type="curve" smooth="yes"/>
      <point x="262" y="569" type="line" smooth="yes"/>
      <point x="267" y="579"/>
      <point x="269" y="587"/>
      <point x="269" y="593" type="curve" smooth="yes"/>
      <point x="269" y="602"/>
      <point x="263" y="607"/>
      <point x="252" y="609" type="curve"/>
      <point x="193" y="615" type="line"/>
      <point x="193" y="650" type="line"/>
      <point x="779" y="650" type="line"/>
      <point x="779" y="477" type="line"/>
      <point x="743" y="477" type="line"/>
      <point x="714" y="570"/>
      <point x="696" y="607"/>
      <point x="599" y="607" type="curve" smooth="yes"/>
      <point x="530" y="607" type="line" smooth="yes"/>
      <point x="504" y="607"/>
      <point x="497" y="600"/>
      <point x="497" y="573" type="curve" smooth="yes"/>
      <point x="497" y="366" type="line"/>
      <point x="585" y="366" type="line" smooth="yes"/>
      <point x="644" y="366"/>
      <point x="656" y="381"/>
      <point x="671" y="450" type="curve"/>
      <point x="707" y="450" type="line"/>
      <point x="707" y="232" type="line"/>
      <point x="671" y="232" type="line"/>
      <point x="656" y="301"/>
      <point x="644" y="317"/>
      <point x="585" y="317" type="curve" smooth="yes"/>
      <point x="497" y="317" type="line"/>
      <point x="497" y="112" type="line" smooth="yes"/>
      <point x="497" y="52"/>
      <point x="526" y="43"/>
      <point x="612" y="43" type="curve" smooth="yes"/>
      <point x="711" y="43"/>
      <point x="738" y="95"/>
      <point x="772" y="196" type="curve"/>
      <point x="809" y="196" type="line"/>
      <point x="797" y="0" type="line"/>
      <point x="276" y="0" type="line"/>
      <point x="276" y="36" type="line"/>
      <point x="343" y="39"/>
      <point x="349" y="43"/>
      <point x="349" y="91" type="curve" smooth="yes"/>
      <point x="349" y="317" type="line"/>
      <point x="198" y="317" type="line"/>
      <point x="146" y="204"/>
      <point x="114" y="128"/>
      <point x="94" y="78" type="curve" smooth="yes"/>
      <point x="91" y="70"/>
      <point x="89" y="63"/>
      <point x="89" y="58" type="curve" smooth="yes"/>
      <point x="89" y="48"/>
      <point x="96" y="42"/>
      <point x="111" y="41" type="curve" smooth="yes"/>
      <point x="170" y="36" type="line"/>
      <point x="170" y="0" type="line"/>
    </contour>
    <contour>
      <point x="221" y="366" type="curve"/>
      <point x="349" y="366" type="line"/>
      <point x="349" y="602" type="line"/>
      <point x="340" y="602" type="line"/>
      <point x="301" y="529"/>
      <point x="259" y="444"/>
    </contour>
  </outline>
</glyph>
<glyph name="Eth" format="2">
  <advance width="745"/>
  <unicode hex="00D0"/>
  <outline>
    <component base="D" xOffset="4"/>
    <contour>
      <point x="38" y="366" type="line"/>
      <point x="400" y="366" type="line"/>
      <point x="400" y="321" type="line"/>
      <point x="38" y="321" type="line"/>
    </contour>
  </outline>
</glyph>
<glyph name="multiply" format="2">
  <advance width="574"/>
  <unicode hex="00D7"/>
  <outline>
    <contour>
      <point x="131" y="19" type="line"/>
      <point x="76" y="76" type="line"/>
      <point x="231" y="232" type="line"/>
      <point x="76" y="388" type="line"/>
      <point x="131" y="447" type="line"/>
      <point x="287" y="290" type="line"/>
      <point x="444" y="447" type="line"/>
      <point x="499" y="388" type="line"/>
      <point x="344" y="232" type="line"/>
      <point x="499" y="76" type="line"/>
      <point x="444" y="19" type="line"/>
      <point x="287" y="176" type="line"/>
    </contour>
  </outline>
</glyph>
<glyph name="Oslash" format="2">
  <advance width="730"/>
  <unicode hex="00D8"/>
  <anchor x="371" y="697" name="top"/>
  <outline>
    <component base="O"/>
    <contour>
      <point x="226" y="130" type="line"/>
      <point x="476" y="579" type="line"/>
      <point x="504" y="523" type="line"/>
      <point x="254" y="73" type="line"/>
    </contour>
    <contour>
      <point x="138" y="-28" type="line"/>
      <point x="180" y="48" type="line"/>
      <point x="225" y="25" type="line"/>
      <point x="180" y="-57" type="line"/>
    </contour>
    <contour>
      <point x="505" y="627" type="line"/>
      <point x="546" y="702" type="line"/>
      <point x="590" y="678" type="line"/>
      <point x="549" y="605" type="line"/>
    </contour>
  </outline>
</glyph>
<glyph name="Thorn" format="2">
  <advance width="610"/>
  <unicode hex="00DE"/>
  <outline>
    <contour>
      <point x="36" y="0" type="line"/>
      <point x="36" y="36" type="line"/>
      <point x="103" y="39"/>
      <point x="111" y="43"/>
      <point x="111" y="91" type="curve" smooth="yes"/>
      <point x="111" y="559" type="line" smooth="yes"/>
      <point x="111" y="607"/>
      <point x="103" y="612"/>
      <point x="36" y="615" type="curve"/>
      <point x="36" y="650" type="line"/>
      <point x="334" y="650" type="line"/>
      <point x="334" y="615" type="line"/>
      <point x="268" y="612"/>
      <point x="262" y="607"/>
      <point x="262" y="559" type="curve" smooth="yes"/>
      <point x="262" y="515" type="line"/>
      <point x="343" y="515" type="line" smooth="yes"/>
      <point x="492" y="515"/>
      <point x="590" y="472"/>
      <point x="590" y="346" type="curve" smooth="yes"/>
      <point x="590" y="182"/>
      <point x="424" y="165"/>
      <point x="298" y="165" type="curve" smooth="yes"/>
      <point x="262" y="165" type="line"/>
      <point x="262" y="91" type="line" smooth="yes"/>
      <point x="262" y="43"/>
      <point x="268" y="39"/>
      <point x="351" y="34" type="curve"/>
      <point x="351" y="0" type="line"/>
    </contour>
    <contour>
      <point x="262" y="243" type="line" smooth="yes"/>
      <point x="262" y="216"/>
      <point x="276" y="209"/>
      <point x="308" y="209" type="curve" smooth="yes"/>
      <point x="402" y="209"/>
      <point x="432" y="267"/>
      <point x="432" y="341" type="curve" smooth="yes"/>
      <point x="432" y="439"/>
      <point x="377" y="472"/>
      <point x="320" y="472" type="curve" smooth="yes"/>
      <point x="266" y="472"/>
      <point x="262" y="462"/>
      <point x="262" y="436" type="curve" smooth="yes"/>
    </contour>
  </outline>
</glyph>
<glyph name="germandbls" format="2">
  <advance width="631"/>
  <unicode hex="00DF"/>
  <outline>
    <contour>
      <point x="32" y="0" type="line"/>
      <point x="32" y="34" type="line"/>
      <point x="86" y="39"/>
      <point x="91" y="43"/>
      <point x="91" y="80" type="curve" smooth="yes"/>
      <point x="91" y="461" type="line" smooth="yes"/>
      <point x="91" y="618"/>
      <point x="173" y="697"/>
      <point x="329" y="697" type="curve" smooth="yes"/>
      <point x="466" y="697"/>
      <point x="547" y="636"/>
      <point x="547" y="539" type="curve" smooth="yes"/>
      <point x="547" y="510"/>
      <point x="540" y="490"/>
      <point x="522" y="470" type="curve"/>
      <point x="464" y="464"/>
      <point x="428" y="433"/>
      <point x="428" y="393" type="curve" smooth="yes"/>
      <point x="428" y="359"/>
      <point x="454" y="323"/>
      <point x="499" y="293" type="curve" smooth="yes"/>
      <point x="546" y="261"/>
      <point x="614" y="215"/>
      <point x="614" y="127" type="curve" smooth="yes"/>
      <point x="614" y="41"/>
      <point x="549" y="-11"/>
      <point x="443" y="-11" type="curve" smooth="yes"/>
      <point x="367" y="-11"/>
      <point x="314" y="16"/>
      <point x="314" y="54" type="curve" smooth="yes"/>
      <point x="314" y="78"/>
      <point x="338" y="102"/>
      <point x="363" y="102" type="curve" smooth="yes"/>
      <point x="374" y="102"/>
      <point x="384" y="97"/>
      <point x="396" y="75" type="curve" smooth="yes"/>
      <point x="413" y="44"/>
      <point x="434" y="32"/>
      <point x="454" y="32" type="curve" smooth="yes"/>
      <point x="479" y="32"/>
      <point x="496" y="51"/>
      <point x="496" y="80" type="curve" smooth="yes"/>
      <point x="496" y="117"/>
      <point x="469" y="149"/>
      <point x="398" y="194" type="curve" smooth="yes"/>
      <point x="333" y="235"/>
      <point x="298" y="287"/>
      <point x="298" y="341" type="curve" smooth="yes"/>
      <point x="298" y="400"/>
      <point x="339" y="452"/>
      <point x="396" y="467" type="curve"/>
      <point x="407" y="483"/>
      <point x="414" y="508"/>
      <point x="414" y="539" type="curve" smooth="yes"/>
      <point x="414" y="606"/>
      <point x="380" y="654"/>
      <point x="329" y="654" type="curve" smooth="yes"/>
      <point x="269" y="654"/>
      <point x="233" y="588"/>
      <point x="233" y="480" type="curve" smooth="yes"/>
      <point x="233" y="80" type="line" smooth="yes"/>
      <point x="233" y="44"/>
      <point x="239" y="39"/>
      <point x="294" y="34" type="curve"/>
      <point x="294" y="0" type="line"/>
    </contour>
  </outline>
</glyph>
<glyph name="ae" format="2">
  <advance width="767"/>
  <unicode hex="00E6"/>
  <anchor x="405" y="490" name="top"/>
  <outline>
    <contour>
      <point x="45" y="126" type="line"/>
      <point x="45" y="180"/>
      <point x="70" y="217"/>
      <point x="143" y="243" type="curve" smooth="yes"/>
      <point x="205" y="266"/>
      <point x="275" y="286"/>
      <point x="316" y="309" type="curve"/>
      <point x="316" y="359" type="line" smooth="yes"/>
      <point x="316" y="413"/>
      <point x="290" y="429"/>
      <point x="263" y="429" type="curve" smooth="yes"/>
      <point x="237" y="429"/>
      <point x="206" y="415"/>
      <point x="180" y="335" type="curve"/>
      <point x="171" y="312"/>
      <point x="161" y="297"/>
      <point x="140" y="297" type="curve" smooth="yes"/>
      <point x="116" y="297"/>
      <point x="56" y="315"/>
      <point x="56" y="356" type="curve" smooth="yes"/>
      <point x="56" y="417"/>
      <point x="140" y="472"/>
      <point x="273" y="472" type="curve" smooth="yes"/>
      <point x="338" y="472"/>
      <point x="379" y="451"/>
      <point x="403" y="417" type="curve"/>
      <point x="442" y="450"/>
      <point x="492" y="472"/>
      <point x="547" y="472" type="curve" smooth="yes"/>
      <point x="737" y="472"/>
      <point x="749" y="328"/>
      <point x="749" y="276" type="curve" smooth="yes"/>
      <point x="749" y="246"/>
      <point x="733" y="237"/>
      <point x="699" y="237" type="curve" smooth="yes"/>
      <point x="454" y="237" type="line"/>
      <point x="454" y="138"/>
      <point x="484" y="61"/>
      <point x="581" y="61" type="curve" smooth="yes"/>
      <point x="638" y="61"/>
      <point x="679" y="91"/>
      <point x="707" y="145" type="curve"/>
      <point x="741" y="126" type="line"/>
      <point x="709" y="43"/>
      <point x="646" y="-11"/>
      <point x="536" y="-11" type="curve" smooth="yes"/>
      <point x="451" y="-12"/>
      <point x="397" y="19"/>
      <point x="364" y="70" type="curve"/>
      <point x="320" y="41" type="line" smooth="yes"/>
      <point x="289" y="20"/>
      <point x="245" y="-11"/>
      <point x="185" y="-11" type="curve" smooth="yes"/>
      <point x="89" y="-11"/>
      <point x="45" y="56"/>
      <point x="45" y="126" type="curve"/>
    </contour>
    <contour>
      <point x="188" y="141" type="line"/>
      <point x="188" y="91"/>
      <point x="222" y="62"/>
      <point x="259" y="62" type="curve" smooth="yes"/>
      <point x="285" y="62"/>
      <point x="314" y="75"/>
      <point x="316" y="126" type="curve"/>
      <point x="316" y="262" type="line"/>
      <point x="293" y="252"/>
      <point x="261" y="239"/>
      <point x="232" y="223" type="curve" smooth="yes"/>
      <point x="204" y="207"/>
      <point x="188" y="185"/>
      <point x="188" y="141" type="curve"/>
    </contour>
    <contour>
      <point x="454" y="282" type="line"/>
      <point x="573" y="282" type="line" smooth="yes"/>
      <point x="595" y="282"/>
      <point x="602" y="287"/>
      <point x="602" y="313" type="curve" smooth="yes"/>
      <point x="602" y="357"/>
      <point x="592" y="429"/>
      <point x="535" y="429" type="curve" smooth="yes"/>
      <point x="472" y="429"/>
      <point x="454" y="352"/>
      <point x="454" y="282" type="curve"/>
    </contour>
  </outline>
</glyph>
<glyph name="eth" format="2">
  <advance width="559"/>
  <unicode hex="00F0"/>
  <outline>
    <contour>
      <point x="37" y="230" type="line"/>
      <point x="37" y="380"/>
      <point x="110" y="472"/>
      <point x="280" y="472" type="curve" smooth="yes"/>
      <point x="290" y="472"/>
      <point x="297" y="471"/>
      <point x="307" y="469" type="curve"/>
      <point x="307" y="472" type="line"/>
      <point x="289" y="495"/>
      <point x="266" y="519"/>
      <point x="236" y="547" type="curve"/>
      <point x="113" y="494" type="line"/>
      <point x="89" y="530" type="line"/>
      <point x="202" y="579" type="line"/>
      <point x="176" y="603"/>
      <point x="144" y="631"/>
      <point x="106" y="659" type="curve"/>
      <point x="106" y="669" type="line"/>
      <point x="150" y="697" type="line"/>
      <point x="198" y="671"/>
      <point x="245" y="644"/>
      <point x="286" y="615" type="curve"/>
      <point x="429" y="674" type="line"/>
      <point x="452" y="639" type="line"/>
      <point x="326" y="585" type="line"/>
      <point x="363" y="558"/>
      <point x="392" y="529"/>
      <point x="420" y="499" type="curve" smooth="yes"/>
      <point x="485" y="428"/>
      <point x="523" y="343"/>
      <point x="523" y="236" type="curve" smooth="yes"/>
      <point x="523" y="80"/>
      <point x="450" y="-11"/>
      <point x="280" y="-11" type="curve" smooth="yes"/>
      <point x="109" y="-11"/>
      <point x="37" y="80"/>
      <point x="37" y="230" type="curve"/>
    </contour>
    <contour>
      <point x="186" y="230" type="line"/>
      <point x="186" y="104"/>
      <point x="213" y="32"/>
      <point x="280" y="32" type="curve" smooth="yes"/>
      <point x="346" y="32"/>
      <point x="373" y="104"/>
      <point x="373" y="230" type="curve" smooth="yes"/>
      <point x="373" y="356"/>
      <point x="346" y="429"/>
      <point x="280" y="429" type="curve" smooth="yes"/>
      <point x="213" y="429"/>
      <point x="186" y="356"/>
      <point x="186" y="230" type="curve"/>
    </contour>
  </outline>
</glyph>
<glyph name="divide" format="2">
  <advance width="574"/>
  <unicode hex="00F7"/>
  <outline>
    <contour>
      <point x="223" y="71" type="line"/>
      <point x="223" y="107"/>
      <point x="250" y="137"/>
      <point x="287" y="137" type="curve" smooth="yes"/>
      <point x="325" y="137"/>
      <point x="353" y="105"/>
      <point x="353" y="71" type="curve" smooth="yes"/>
      <point x="353" y="35"/>
      <point x="325" y="6"/>
      <point x="287" y="6" type="curve" smooth="yes"/>
      <point x="250" y="6"/>
      <point x="223" y="35"/>
      <point x="223" y="71" type="curve"/>
    </contour>
    <contour>
      <point x="223" y="399" type="line"/>
      <point x="223" y="435"/>
      <point x="250" y="464"/>
      <point x="287" y="464" type="curve" smooth="yes"/>
      <point x="325" y="464"/>
      <point x="353" y="433"/>
      <point x="353" y="399" type="curve" smooth="yes"/>
      <point x="353" y="363"/>
      <point x="325" y="333"/>
      <point x="287" y="333" type="curve" smooth="yes"/>
      <point x="250" y="333"/>
      <point x="223" y="363"/>
      <point x="223" y="399" type="curve"/>
    </contour>
    <contour>
      <point x="61" y="197" type="line"/>
      <point x="61" y="273" type="line"/>
      <point x="514" y="273" type="line"/>
      <point x="514" y="197" type="line"/>
    </contour>
  </outline>
</glyph>
<glyph name="oslash" format="2">
  <advance width="559"/>
  <unicode hex="00F8"/>
  <anchor x="280" y="490" name="top"/>
  <outline>
    <contour>
      <point x="37" y="230" type="curve" smooth="yes"/>
      <point x="37" y="380"/>
      <point x="109" y="472"/>
      <point x="278" y="472" type="curve" smooth="yes"/>
      <point x="321" y="472"/>
      <point x="359" y="466"/>
      <point x="389" y="455" type="curve"/>
      <point x="420" y="503" type="line"/>
      <point x="456" y="480" type="line"/>
      <point x="430" y="437" type="line"/>
      <point x="495" y="398"/>
      <point x="523" y="326"/>
      <point x="523" y="232" type="curve" smooth="yes"/>
      <point x="523" y="80"/>
      <point x="450" y="-11"/>
      <point x="285" y="-11" type="curve" smooth="yes"/>
      <point x="236" y="-11"/>
      <point x="200" y="-3"/>
      <point x="167" y="9" type="curve"/>
      <point x="133" y="-48" type="line"/>
      <point x="98" y="-22" type="line"/>
      <point x="128" y="26" type="line"/>
      <point x="66" y="65"/>
      <point x="37" y="136"/>
    </contour>
    <contour>
      <point x="183" y="226" type="curve" smooth="yes"/>
      <point x="183" y="191"/>
      <point x="185" y="158"/>
      <point x="191" y="131" type="curve"/>
      <point x="349" y="388" type="line"/>
      <point x="333" y="414"/>
      <point x="311" y="429"/>
      <point x="280" y="429" type="curve" smooth="yes"/>
      <point x="210" y="429"/>
      <point x="183" y="356"/>
    </contour>
    <contour>
      <point x="210" y="77" type="line"/>
      <point x="225" y="47"/>
      <point x="247" y="32"/>
      <point x="280" y="32" type="curve" smooth="yes"/>
      <point x="350" y="32"/>
      <point x="378" y="104"/>
      <point x="378" y="230" type="curve" smooth="yes"/>
      <point x="378" y="271"/>
      <point x="375" y="307"/>
      <point x="368" y="337" type="curve"/>
    </contour>
  </outline>
</glyph>
